{
.appVersion = "1338";
DisplayStrings = (
"Ð/tbar",
"¡xH!/exclamdouble/exclamdown.case H!/space/exclamdown.sc/h.sc/exclam.sc \012¿xH!?¿/question.sc ¿/questiondown.case H?/space/questiondown.sc/h.sc/question.sc/exclam.sc/space !?",
"/tbar Ð/Dcroat/Dcroat"
);
classes = (
{
automatic = 1;

glyphs = (
{
glyphname = A;
layers = (
{
anchors = (
{
name = bottom;
position = "{288, 0}";
},
{
name = ogonek;
position = "{614, 0}";
},
{
name = top;
position = "{406, 692}";
}
);
background = {
anchors = (
{
name = bottom;
position = "{292, 0}";
},
{
name = ogonek;
position = "{533, 0}";
},
{
name = top;
position = "{406, 692}";
},
{
name = topleft;
position = "{339, 692}";
}
);
paths = (
{
closed = 1;
nodes = (
"415 693 LINE",
"396 691 LINE",
"52 22 LINE",
"61 29 LINE",
"-36 15 LINE",
"-39 0 LINE",
"181 0 LINE",
"184 15 LINE",
"69 29 LINE",
"72 22 LINE",
"170 213 LINE",
"160 206 LINE",
"486 206 LINE",
"479 213 LINE",
"512 22 LINE",
"517 29 LINE",
"397 15 LINE",
"394 0 LINE",
"619 0 LINE",
"621 15 LINE",
"526 29 LINE",
"533 22 LINE"
);
},
{
closed = 1;
nodes = (
"404 672 LINE",
"400 672 LINE",
"478 219 LINE",
"483 225 LINE",
"169 225 LINE",
"173 219 LINE"
);
}
);
};
guideLines = (
{
angle = 90;
position = "{1209, -200}";
},
{
angle = 90;
position = "{1188, -200}";
}
);
layerId = "075BA79B-D813-4287-A9DD-CCAF2D535ED3";
paths = (
{
closed = 1;
nodes = (
"415 693 LINE",
"395 691 LINE",
"50 22 LINE",
"59 29 LINE",
"-32 15 LINE",
"-35 0 LINE",
"181 0 LINE",
"184 15 LINE",
"67 29 LINE",
"71 22 LINE",
"168 213 LINE",
"158 206 LINE",
"488 206 LINE",
"481 213 LINE",
"514 22 LINE",
"519 29 LINE",
"397 15 LINE",
"394 0 LINE",
"614 0 LINE",
"616 15 LINE",
"528 29 LINE",
"535 22 LINE"
);
},
{
closed = 1;
nodes = (
"404 672 LINE",
"400 672 LINE",
"480 219 LINE",
"485 225 LINE",
"167 225 LINE",
"171 219 LINE"
);
}
);
width = 662;
},
{
anchors = (
{
name = bottom;
position = "{297, 0}";
},
{
name = ogonek;
position = "{649, 0}";
},
{
name = top;
position = "{426, 710}";
}
);
background = {
paths = (
{
closed = 1;
nodes = (
"525 716 LINE",
"359 702 LINE",
"429 102 LINE",
"630 139 LINE"
);
}
);
};
layerId = "927AED37-E9E6-4F96-A08E-421C3785EFC6";
paths = (
{
closed = 1;
nodes = (
"525 713 LINE",
"320 708 LINE",
"5 94 LINE",
"59 133 LINE",
"-21 100 LINE",
"-37 0 LINE",
"230 0 LINE",
"246 100 LINE",
"194 127 LINE",
"195 105 LINE",
"239 203 LINE",
"213 180 LINE",
"428 180 LINE",
"417 205 LINE",
"429 104 LINE",
"437 131 LINE",
"379 100 LINE",
"363 0 LINE",
"649 0 LINE",
"665 100 LINE",
"598 135 LINE",
"639 89 LINE"
);
},
{
closed = 1;
nodes = (
"420 604 LINE",
"371 605 LINE",
"408 286 LINE",
"421 320 LINE",
"272 320 LINE",
"279 291 LINE"
);
}
);
width = 699;
}
);
leftKerningGroup = A;
rightKerningGroup = A;
unicode = 0041;
},
{
glyphname = Aringacute;
layers = (
{
background = {
components = (
{
name = A;
},
{
alignment = -1;
name = ringacutecomb;
transform = "{1, 0, 0, 1, 145, 140}";
}
);
};
components = (
{
name = A;
},
{
alignment = -1;
name = ringacutecomb;
transform = "{1, 0, 0, 1, 173, 140}";
}
);
layerId = "075BA79B-D813-4287-A9DD-CCAF2D535ED3";
width = 662;
},
{
background = {
anchors = (
{
name = bottom;
position = "{297, 0}";
},
{
name = ogonek;
position = "{649, 0}";
},
{
name = top;
position = "{426, 710}";
}
);
components = (
{
name = ringcomb;
transform = "{1, 0, 0, 1, 192, 145}";
}
);
paths = (
{
closed = 1;
nodes = (
"525 713 LINE",
"320 708 LINE",
"5 94 LINE",
"59 133 LINE",
"-21 100 LINE",
"-37 0 LINE",
"230 0 LINE",
"246 100 LINE",
"194 127 LINE",
"195 105 LINE",
"239 203 LINE",
"213 180 LINE",
"428 180 LINE",
"417 205 LINE",
"429 104 LINE",
"437 131 LINE",
"379 100 LINE",
"363 0 LINE",
"649 0 LINE",
"665 100 LINE",
"598 135 LINE",
"639 89 LINE"
);
},
{
closed = 1;
nodes = (
"420 604 LINE",
"371 605 LINE",
"408 286 LINE",
"421 320 LINE",
"272 320 LINE",
"279 291 LINE"
);
},
{
closed = 1;
nodes = (
"653.005 1121.009 LINE",
"594.004 1259.01 LINE",
"319.001 1110.008 LINE",
"364.002 1019.008 LINE"
);
}
);
};
components = (
{
name = A;
},
{
alignment = -1;
name = ringacutecomb;
transform = "{1, 0, 0, 1, 186, 160}";
}
);
layerId = "927AED37-E9E6-4F96-A08E-421C3785EFC6";
width = 699;
}
);
leftKerningGroup = A;
rightKerningGroup = A;
unicode = 01FA;
},
{
glyphname = AE;
layers = (
{
anchors = (
{
name = bottom;
position = "{436, 0}";
},
{
name = top;
position = "{641, 692}";
}
);
background = {
paths = (
{
closed = 1;
nodes = (
"185 0 LINE",
"187 15 LINE",
"73 29 LINE",
"76 22 LINE",
"219 232 LINE",
"208 226 LINE",
"469 226 LINE",
"463 233 LINE",
"430 21 LINE",
"438 29 LINE",
"333 15 LINE",
"331 0 LINE",
"794 0 LINE",
"817 141 LINE",
"802 141 LINE",
"768 12 LINE",
"776 19 LINE",
"442 19 LINE",
"448 12 LINE",
"504 366 LINE",
"496 359 LINE",
"773 359 LINE",
"776 378 LINE",
"499 378 LINE",
"505 371 LINE",
"553 680 LINE",
"545 673 LINE",
"867 673 LINE",
"861 680 LINE",
"856 556 LINE",
"870 556 LINE",
"891 692 LINE",
"556 692 LINE",
"408 687 LINE",
"405 672 LINE",
"499 664 LINE",
"496 671 LINE",
"55 22 LINE",
"66 29 LINE",
"-33 15 LINE",
"-35 0 LINE"
);
},
{
closed = 1;
nodes = (
"523 679 LINE",
"512 673 LINE",
"540 673 LINE",
"534 680 LINE",
"464 238 LINE",
"472 245 LINE",
"221 245 LINE",
"224 239 LINE"
);
}
);
};
guideLines = (
{
angle = -99;
position = "{472, 226}";
}
);
layerId = "075BA79B-D813-4287-A9DD-CCAF2D535ED3";
paths = (
{
closed = 1;
nodes = (
"185 0 LINE",
"187 15 LINE",
"73 29 LINE",
"76 22 LINE",
"219 232 LINE",
"208 226 LINE",
"469 226 LINE",
"463 233 LINE",
"430 21 LINE",
"438 29 LINE",
"333 15 LINE",
"331 0 LINE",
"794 0 LINE",
"817 141 LINE",
"802 141 LINE",
"768 12 LINE",
"776 19 LINE",
"442 19 LINE",
"448 12 LINE",
"502 353 LINE",
"494 346 LINE",
"771 346 LINE",
"774 365 LINE",
"497 365 LINE",
"503 358 LINE",
"553 680 LINE",
"545 673 LINE",
"867 673 LINE",
"861 680 LINE",
"856 556 LINE",
"870 556 LINE",
"891 692 LINE",
"556 692 LINE",
"408 687 LINE",
"405 672 LINE",
"499 664 LINE",
"496 671 LINE",
"55 22 LINE",
"66 29 LINE",
"-33 15 LINE",
"-35 0 LINE"
);
},
{
closed = 1;
nodes = (
"523 679 LINE",
"512 673 LINE",
"540 673 LINE",
"534 680 LINE",
"464 238 LINE",
"472 245 LINE",
"221 245 LINE",
"224 239 LINE"
);
}
);
width = 921;
},
{
anchors = (
{
name = bottom;
position = "{468, 0}";
},
{
name = top;
position = "{591, 710}";
}
);
background = {
anchors = (
{
name = bottom;
position = "{417, 0}";
},
{
name = top;
position = "{583, 710}";
}
);
paths = (
{
closed = 1;
nodes = (
"231 0 LINE",
"246 100 LINE",
"184 133 LINE",
"189 91 LINE",
"259 221 LINE",
"214 195 LINE",
"434 195 LINE",
"489 710 LINE",
"236 705 LINE",
"221 605 LINE",
"307 568 LINE",
"290 598 LINE",
"4 92 LINE",
"62 133 LINE",
"-22 100 LINE",
"-37 0 LINE"
);
},
{
closed = 1;
nodes = (
"456 583 LINE",
"417 565 LINE",
"493 565 LINE",
"467 584 LINE",
"457 325 LINE",
"288 325 LINE",
"307 305 LINE"
);
},
{
closed = 1;
nodes = (
"716 115 LINE",
"758 145 LINE",
"569 145 LINE",
"588 105 LINE",
"623 325 LINE",
"589 295 LINE",
"791 295 LINE",
"813 430 LINE",
"614 430 LINE",
"635 400 LINE",
"666 595 LINE",
"632 565 LINE",
"810 565 LINE",
"781 591 LINE",
"791 508 LINE",
"905 508 LINE",
"937 710 LINE",
"681 710 LINE",
"431 705 LINE",
"415 605 LINE",
"489 571 LINE",
"470 600 LINE",
"391 106 LINE",
"415 131 LINE",
"335 100 LINE",
"319 0 LINE",
"834 0 LINE",
"869 211 LINE",
"753 211 LINE"
);
}
);
};
guideLines = (
{
angle = -99;
position = "{609, 231}";
},
{
angle = -99;
position = "{411, 231}";
}
);
layerId = "927AED37-E9E6-4F96-A08E-421C3785EFC6";
paths = (
{
closed = 1;
nodes = (
"231 0 LINE",
"247 100 LINE",
"184 133 LINE",
"187 91 LINE",
"258 221 LINE",
"215 190 LINE",
"436 190 LINE",
"409 221 LINE",
"390 104 LINE",
"420 136 LINE",
"344 100 LINE",
"328 0 LINE",
"832 0 LINE",
"866 211 LINE",
"750 211 LINE",
"711 111 LINE",
"743 145 LINE",
"568 145 LINE",
"588 106 LINE",
"623 325 LINE",
"587 290 LINE",
"788 290 LINE",
"810 430 LINE",
"614 430 LINE",
"635 400 LINE",
"666 595 LINE",
"631 565 LINE",
"806 565 LINE",
"778 593 LINE",
"788 508 LINE",
"902 508 LINE",
"934 710 LINE",
"489 710 LINE",
"236 705 LINE",
"220 605 LINE",
"308 568 LINE",
"293 598 LINE",
"4 92 LINE",
"61 133 LINE",
"-21 100 LINE",
"-37 0 LINE"
);
},
{
closed = 1;
nodes = (
"456 583 LINE",
"417 565 LINE",
"494 565 LINE",
"468 584 LINE",
"423 305 LINE",
"456 330 LINE",
"286 330 LINE",
"304 305 LINE"
);
}
);
width = 913;
}
);
leftKerningGroup = A;
leftMetricsKey = A;
rightKerningGroup = E;
rightMetricsKey = E;
unicode = 00C6;
},
{
glyphname = B;
layers = (
{
anchors = (
{
name = bottom;
position = "{263, 0}";
},
{
name = top;
position = "{372, 692}";
}
);
background = {
paths = (
{
closed = 1;
nodes = (
"474 375 OFFCURVE",
"548 447 OFFCURVE",
"548 552 CURVE SMOOTH",
"548 640 OFFCURVE",
"496 692 OFFCURVE",
"375 692 CURVE SMOOTH",
"247 692 LINE",
"130 687 LINE",
"128 672 LINE",
"229 663 LINE",
"223 671 LINE",
"120 21 LINE",
"129 29 LINE",
"24 15 LINE",
"22 0 LINE",
"268 0 LINE SMOOTH",
"424 0 OFFCURVE",
"520 87 OFFCURVE",
"520 211 CURVE SMOOTH",
"520 302 OFFCURVE",
"469 354 OFFCURVE",
"363 358 CURVE",
"360 354 LINE"
);
},
{
closed = 1;
nodes = (
"484 673 OFFCURVE",
"527 626 OFFCURVE",
"527 549 CURVE SMOOTH",
"527 435 OFFCURVE",
"434 364 OFFCURVE",
"292 364 CURVE SMOOTH",
"188 364 LINE",
"193 355 LINE",
"244 678 LINE",
"236 673 LINE",
"369 673 LINE SMOOTH"
);
},
{
closed = 1;
nodes = (
"133 19 LINE",
"139 15 LINE",
"193 355 LINE",
"185 345 LINE",
"343 345 LINE SMOOTH",
"453 345 OFFCURVE",
"499 291 OFFCURVE",
"499 210 CURVE SMOOTH",
"499 100 OFFCURVE",
"415 19 OFFCURVE",
"270 19 CURVE SMOOTH"
);
}
);
};
layerId = "075BA79B-D813-4287-A9DD-CCAF2D535ED3";
paths = (
{
closed = 1;
nodes = (
"484 375 OFFCURVE",
"558 447 OFFCURVE",
"558 552 CURVE SMOOTH",
"558 640 OFFCURVE",
"506 692 OFFCURVE",
"385 692 CURVE SMOOTH",
"247 692 LINE",
"130 687 LINE",
"128 672 LINE",
"229 663 LINE",
"223 671 LINE",
"120 21 LINE",
"129 29 LINE",
"24 15 LINE",
"22 0 LINE",
"278 0 LINE SMOOTH",
"433 0 OFFCURVE",
"530 81 OFFCURVE",
"530 211 CURVE SMOOTH",
"530 302 OFFCURVE",
"479 354 OFFCURVE",
"373 358 CURVE",
"370 354 LINE"
);
},
{
closed = 1;
nodes = (
"494 673 OFFCURVE",
"537 626 OFFCURVE",
"537 549 CURVE SMOOTH",
"537 435 OFFCURVE",
"444 364 OFFCURVE",
"302 364 CURVE SMOOTH",
"188 364 LINE",
"193 355 LINE",
"244 678 LINE",
"236 673 LINE",
"379 673 LINE SMOOTH"
);
},
{
closed = 1;
nodes = (
"133 19 LINE",
"139 15 LINE",
"193 355 LINE",
"185 345 LINE",
"353 345 LINE SMOOTH",
"463 345 OFFCURVE",
"509 291 OFFCURVE",
"509 210 CURVE SMOOTH",
"509 93 OFFCURVE",
"421 19 OFFCURVE",
"280 19 CURVE SMOOTH"
);
}
);
width = 629;
},
{
anchors = (
{
name = bottom;
position = "{279, 0}";
},
{
name = top;
position = "{392, 710}";
}
);
background = {
paths = (
{
closed = 1;
nodes = (
"529 363 OFFCURVE",
"630 420 OFFCURVE",
"630 566 CURVE SMOOTH",
"630 671 OFFCURVE",
"539 711 OFFCURVE",
"416 711 CURVE SMOOTH",
"344 711 LINE",
"100 705 LINE",
"84 605 LINE",
"158 571 LINE",
"139 600 LINE",
"60 105 LINE",
"84 131 LINE",
"4 100 LINE",
"-12 0 LINE",
"298 0 LINE SMOOTH",
"477 0 OFFCURVE",
"607 73 OFFCURVE",
"607 238 CURVE SMOOTH",
"607 334 OFFCURVE",
"516 375 OFFCURVE",
"384 370 CURVE",
"377 355 LINE"
);
},
{
closed = 1;
nodes = (
"413 568 OFFCURVE",
"432 553 OFFCURVE",
"432 516 CURVE SMOOTH",
"432 445 OFFCURVE",
"391 428 OFFCURVE",
"323 428 CURVE SMOOTH",
"282 428 LINE",
"305 403 LINE",
"336 600 LINE",
"300 568 LINE",
"372 568 LINE SMOOTH"
);
},
{
closed = 1;
nodes = (
"237 143 LINE",
"257 105 LINE",
"294 336 LINE",
"258 308 LINE",
"349 308 LINE SMOOTH",
"388 308 OFFCURVE",
"402 285 OFFCURVE",
"402 247 CURVE SMOOTH",
"402 175 OFFCURVE",
"365 143 OFFCURVE",
"292 143 CURVE SMOOTH"
);
}
);
};
guideLines = (
{
angle = -99;
position = "{278, 231}";
}
);
layerId = "927AED37-E9E6-4F96-A08E-421C3785EFC6";
paths = (
{
closed = 1;
nodes = (
"523 344 OFFCURVE",
"633 419 OFFCURVE",
"633 553 CURVE SMOOTH",
"633 711 OFFCURVE",
"478 710 OFFCURVE",
"416 710 CURVE SMOOTH",
"344 710 LINE",
"100 705 LINE",
"84 605 LINE",
"158 571 LINE",
"139 600 LINE",
"60 105 LINE",
"84 131 LINE",
"4 100 LINE",
"-12 0 LINE",
"298 0 LINE SMOOTH",
"485 0 OFFCURVE",
"607 86 OFFCURVE",
"607 226 CURVE SMOOTH",
"607 335 OFFCURVE",
"533 374 OFFCURVE",
"384 371 CURVE",
"377 344 LINE"
);
},
{
closed = 1;
nodes = (
"395 568 OFFCURVE",
"432 568 OFFCURVE",
"432 511 CURVE SMOOTH",
"432 430 OFFCURVE",
"354 430 OFFCURVE",
"323 430 CURVE SMOOTH",
"282 430 LINE",
"305 398 LINE",
"336 600 LINE",
"300 568 LINE",
"365 568 LINE SMOOTH"
);
},
{
closed = 1;
nodes = (
"222 143 LINE",
"257 105 LINE",
"294 331 LINE",
"258 290 LINE",
"338 290 LINE SMOOTH",
"357 290 OFFCURVE",
"402 290 OFFCURVE",
"402 231 CURVE SMOOTH",
"402 179 OFFCURVE",
"368 143 OFFCURVE",
"292 143 CURVE SMOOTH"
);
}
);
width = 640;
},
{
anchors = (
{
name = bottom;
position = "{274, 0}";
},
{
name = top;
position = "{387, 710}";
}
);
associatedMasterId = "927AED37-E9E6-4F96-A08E-421C3785EFC6";
background = {
paths = (
{
closed = 1;
nodes = (
"520 362 OFFCURVE",
"600 406 OFFCURVE",
"621 519 CURVE SMOOTH",
"648 664 OFFCURVE",
"551 711 OFFCURVE",
"412 711 CURVE SMOOTH",
"340 711 LINE",
"94 705 LINE",
"78 605 LINE",
"160 569 LINE",
"137 610 LINE",
"55 95 LINE",
"86 134 LINE",
"-2 100 LINE",
"-17 0 LINE",
"292 0 LINE SMOOTH",
"473 0 OFFCURVE",
"571 66 OFFCURVE",
"593 192 CURVE SMOOTH",
"617 328 OFFCURVE",
"528 379 OFFCURVE",
"380 373 CURVE",
"373 354 LINE"
);
},
{
closed = 1;
nodes = (
"416 566 OFFCURVE",
"433 546 OFFCURVE",
"426 502 CURVE SMOOTH",
"416 440 OFFCURVE",
"377 433 OFFCURVE",
"319 433 CURVE SMOOTH",
"278 433 LINE",
"304 403 LINE",
"335 596 LINE",
"296 566 LINE",
"368 566 LINE SMOOTH"
);
},
{
closed = 1;
nodes = (
"233 145 LINE",
"258 113 LINE",
"293 334 LINE",
"254 303 LINE",
"345 303 LINE SMOOTH",
"391 303 OFFCURVE",
"403 271 OFFCURVE",
"397 228 CURVE SMOOTH",
"388 164 OFFCURVE",
"350 145 OFFCURVE",
"288 145 CURVE SMOOTH"
);
}
);
};
guideLines = (
{
angle = -99;
position = "{77, 231}";
},
{
angle = -99;
position = "{277, 231}";
}
);
layerId = "129A7785-7554-4D5E-BACA-9472471CEBC2";
name = "Jun 28 17, 17:31";
paths = (
{
closed = 1;
nodes = (
"525 363 OFFCURVE",
"626 420 OFFCURVE",
"626 568 CURVE SMOOTH",
"626 671 OFFCURVE",
"535 711 OFFCURVE",
"412 711 CURVE SMOOTH",
"340 711 LINE",
"94 705 LINE",
"78 605 LINE",
"160 569 LINE",
"137 610 LINE",
"55 95 LINE",
"86 134 LINE",
"-2 100 LINE",
"-17 0 LINE",
"294 0 LINE SMOOTH",
"473 0 OFFCURVE",
"597 73 OFFCURVE",
"597 238 CURVE SMOOTH",
"597 334 OFFCURVE",
"512 378 OFFCURVE",
"380 373 CURVE",
"373 355 LINE"
);
},
{
closed = 1;
nodes = (
"409 566 OFFCURVE",
"428 551 OFFCURVE",
"428 519 CURVE SMOOTH",
"428 450 OFFCURVE",
"387 433 OFFCURVE",
"319 433 CURVE SMOOTH",
"278 433 LINE",
"304 403 LINE",
"335 596 LINE",
"296 566 LINE",
"368 566 LINE SMOOTH"
);
},
{
closed = 1;
nodes = (
"233 145 LINE",
"258 113 LINE",
"293 334 LINE",
"254 303 LINE",
"345 303 LINE SMOOTH",
"384 303 OFFCURVE",
"398 280 OFFCURVE",
"398 247 CURVE SMOOTH",
"398 175 OFFCURVE",
"361 145 OFFCURVE",
"288 145 CURVE SMOOTH"
);
}
);
width = 622;
},
{
anchors = (
{
name = bottom;
position = "{265, 0}";
},
{
name = top;
position = "{374, 691}";
}
);
associatedMasterId = "075BA79B-D813-4287-A9DD-CCAF2D535ED3";
background = {
anchors = (
{
name = bottom;
position = "{265, 0}";
},
{
name = top;
position = "{374, 691}";
}
);
paths = (
{
closed = 1;
nodes = (
"488 377 OFFCURVE",
"539 442 OFFCURVE",
"552 525 CURVE SMOOTH",
"568 622 OFFCURVE",
"520 692 OFFCURVE",
"383 692 CURVE SMOOTH",
"254 692 LINE",
"137 687 LINE",
"135 672 LINE",
"236 662 LINE",
"231 670 LINE",
"128 21 LINE",
"136 29 LINE",
"31 15 LINE",
"29 0 LINE",
"268 0 LINE SMOOTH",
"435 0 OFFCURVE",
"508 83 OFFCURVE",
"524 183 CURVE SMOOTH",
"539 276 OFFCURVE",
"497 354 OFFCURVE",
"370 358 CURVE",
"367 354 LINE"
);
},
{
closed = 1;
nodes = (
"501 673 OFFCURVE",
"545 612 OFFCURVE",
"531 523 CURVE SMOOTH",
"517 432 OFFCURVE",
"449 364 OFFCURVE",
"299 364 CURVE SMOOTH",
"195 364 LINE",
"200 357 LINE",
"252 680 LINE",
"244 673 LINE",
"375 673 LINE SMOOTH"
);
},
{
closed = 1;
nodes = (
"140 19 LINE",
"146 12 LINE",
"200 352 LINE",
"192 345 LINE",
"349 345 LINE SMOOTH",
"475 345 OFFCURVE",
"517 271 OFFCURVE",
"503 181 CURVE SMOOTH",
"488 91 OFFCURVE",
"422 19 OFFCURVE",
"271 19 CURVE SMOOTH"
);
}
);
};
guideLines = (
{
angle = 90;
position = "{405, 425}";
}
);
layerId = "8DAF7985-2BE6-432C-AD75-D2E587CF8DED";
name = "Jul 3 17, 15:15";
paths = (
{
closed = 1;
nodes = (
"488 377 OFFCURVE",
"539 441 OFFCURVE",
"552 524 CURVE SMOOTH",
"568 621 OFFCURVE",
"520 692 OFFCURVE",
"382 692 CURVE SMOOTH",
"254 692 LINE",
"137 687 LINE",
"135 672 LINE",
"236 662 LINE",
"231 670 LINE",
"128 21 LINE",
"136 29 LINE",
"31 15 LINE",
"29 0 LINE",
"268 0 LINE SMOOTH",
"435 0 OFFCURVE",
"508 82 OFFCURVE",
"524 182 CURVE SMOOTH",
"539 275 OFFCURVE",
"496 354 OFFCURVE",
"370 358 CURVE",
"367 354 LINE"
);
},
{
closed = 1;
nodes = (
"502 673 OFFCURVE",
"545 613 OFFCURVE",
"531 524 CURVE SMOOTH",
"517 433 OFFCURVE",
"449 364 OFFCURVE",
"299 364 CURVE SMOOTH",
"195 364 LINE",
"201 357 LINE",
"251 680 LINE",
"243 673 LINE",
"376 673 LINE SMOOTH"
);
},
{
closed = 1;
nodes = (
"140 19 LINE",
"146 12 LINE",
"199 352 LINE",
"192 345 LINE",
"350 345 LINE SMOOTH",
"475 345 OFFCURVE",
"517 272 OFFCURVE",
"503 182 CURVE SMOOTH",
"489 92 OFFCURVE",
"422 19 OFFCURVE",
"270 19 CURVE SMOOTH"
);
}
);
width = 633;
}
);
leftKerningGroup = H;
leftMetricsKey = H;
rightKerningGroup = B;
unicode = 0042;
},
{
glyphname = C;
layers = (
{
anchors = (
{
name = bottom;
position = "{311, 0}";
},
{
name = top;
position = "{452, 692}";
}
);
background = {
paths = (
{
closed = 1;
nodes = (
"175 -6 OFFCURVE",
"297 -6 CURVE SMOOTH",
"371 -6 OFFCURVE",
"456 26 OFFCURVE",
"541 93 CURVE",
"530 109 LINE",
"450 45 OFFCURVE",
"369 14 OFFCURVE",
"301 14 CURVE SMOOTH",
"189 14 OFFCURVE",
"107 96 OFFCURVE",
"107 262 CURVE SMOOTH",
"107 467 OFFCURVE",
"231 678 OFFCURVE",
"423 678 CURVE SMOOTH",
"475 678 OFFCURVE",
"542 662 OFFCURVE",
"596 638 CURVE",
"590 646 LINE",
"579 516 LINE",
"594 516 LINE",
"619 650 LINE",
"553 683 OFFCURVE",
"483 698 OFFCURVE",
"429 698 CURVE SMOOTH",
"222 698 OFFCURVE",
"86 484 OFFCURVE",
"86 260 CURVE SMOOTH",
"86 80 OFFCURVE"
);
}
);
};
layerId = "075BA79B-D813-4287-A9DD-CCAF2D535ED3";
paths = (
{
closed = 1;
nodes = (
"187 -6 OFFCURVE",
"310 -6 CURVE SMOOTH",
"385 -6 OFFCURVE",
"467 27 OFFCURVE",
"541 93 CURVE",
"530 109 LINE",
"462 45 OFFCURVE",
"384 14 OFFCURVE",
"314 14 CURVE SMOOTH",
"201 14 OFFCURVE",
"107 95 OFFCURVE",
"107 267 CURVE SMOOTH",
"107 465 OFFCURVE",
"231 678 OFFCURVE",
"423 678 CURVE SMOOTH",
"475 678 OFFCURVE",
"542 662 OFFCURVE",
"596 638 CURVE",
"590 646 LINE",
"579 516 LINE",
"594 516 LINE",
"619 650 LINE",
"553 683 OFFCURVE",
"483 698 OFFCURVE",
"429 698 CURVE SMOOTH",
"222 698 OFFCURVE",
"86 481 OFFCURVE",
"86 267 CURVE SMOOTH",
"86 82 OFFCURVE"
);
}
);
width = 631;
},
{
anchors = (
{
name = bottom;
position = "{290, 0}";
},
{
name = top;
position = "{430, 710}";
}
);
background = {
paths = (
{
closed = 1;
nodes = (
"148 -15 OFFCURVE",
"292 -15 CURVE SMOOTH",
"375 -15 OFFCURVE",
"468 17 OFFCURVE",
"559 82 CURVE",
"497 205 LINE",
"437 168 OFFCURVE",
"383 147 OFFCURVE",
"340 147 CURVE SMOOTH",
"280 147 OFFCURVE",
"245 188 OFFCURVE",
"245 295 CURVE SMOOTH",
"245 423 OFFCURVE",
"295 570 OFFCURVE",
"413 570 CURVE SMOOTH",
"435 570 OFFCURVE",
"463 565 OFFCURVE",
"498 551 CURVE",
"465 579 LINE",
"479 472 LINE",
"594 472 LINE",
"634 669 LINE",
"555 705 OFFCURVE",
"486 725 OFFCURVE",
"413 725 CURVE SMOOTH",
"181 725 OFFCURVE",
"37 524 OFFCURVE",
"37 288 CURVE SMOOTH",
"37 80 OFFCURVE"
);
}
);
};
layerId = "927AED37-E9E6-4F96-A08E-421C3785EFC6";
paths = (
{
closed = 1;
nodes = (
"158 -15 OFFCURVE",
"304 -15 CURVE SMOOTH",
"387 -15 OFFCURVE",
"477 17 OFFCURVE",
"559 82 CURVE",
"497 205 LINE",
"447 169 OFFCURVE",
"396 148 OFFCURVE",
"352 148 CURVE SMOOTH",
"290 148 OFFCURVE",
"245 189 OFFCURVE",
"245 302 CURVE SMOOTH",
"245 421 OFFCURVE",
"295 570 OFFCURVE",
"413 570 CURVE SMOOTH",
"435 570 OFFCURVE",
"463 565 OFFCURVE",
"498 551 CURVE",
"465 579 LINE",
"479 472 LINE",
"594 472 LINE",
"634 669 LINE",
"555 705 OFFCURVE",
"486 725 OFFCURVE",
"413 725 CURVE SMOOTH",
"181 725 OFFCURVE",
"37 522 OFFCURVE",
"37 293 CURVE SMOOTH",
"37 84 OFFCURVE"
);
}
);
width = 607;
},
{
anchors = (
{
name = bottom;
position = "{284, 0}";
},
{
name = top;
position = "{403, 710}";
}
);
associatedMasterId = "927AED37-E9E6-4F96-A08E-421C3785EFC6";
background = {
anchors = (
{
name = bottom;
position = "{284, 0}";
},
{
name = top;
position = "{403, 710}";
}
);
paths = (
{
closed = 1;
nodes = (
"361 -15 OFFCURVE",
"461 14 OFFCURVE",
"564 86 CURVE",
"509 202 LINE",
"444 165 OFFCURVE",
"391 147 OFFCURVE",
"348 147 CURVE SMOOTH",
"259 147 OFFCURVE",
"220 225 OFFCURVE",
"244 376 CURVE SMOOTH",
"263 501 OFFCURVE",
"311 570 OFFCURVE",
"404 570 CURVE SMOOTH",
"434 570 OFFCURVE",
"464 563 OFFCURVE",
"501 549 CURVE",
"473 579 LINE",
"486 472 LINE",
"602 472 LINE",
"645 671 LINE",
"563 707 OFFCURVE",
"494 725 OFFCURVE",
"421 725 CURVE SMOOTH",
"225 725 OFFCURVE",
"67 597 OFFCURVE",
"30 358 CURVE SMOOTH",
"-8 120 OFFCURVE",
"104 -15 OFFCURVE",
"280 -15 CURVE SMOOTH"
);
}
);
};
layerId = "AF4718EB-36BF-4063-8E61-6C037834A009";
name = "Jun 27 17, 18:22";
paths = (
{
closed = 1;
nodes = (
"366 -15 OFFCURVE",
"464 10 OFFCURVE",
"567 82 CURVE",
"504 205 LINE",
"441 168 OFFCURVE",
"386 147 OFFCURVE",
"339 147 CURVE SMOOTH",
"255 147 OFFCURVE",
"219 219 OFFCURVE",
"242 363 CURVE SMOOTH",
"262 495 OFFCURVE",
"315 570 OFFCURVE",
"413 570 CURVE SMOOTH",
"438 570 OFFCURVE",
"469 565 OFFCURVE",
"506 551 CURVE",
"473 579 LINE",
"487 472 LINE",
"602 472 LINE",
"642 669 LINE",
"560 705 OFFCURVE",
"489 725 OFFCURVE",
"412 725 CURVE SMOOTH",
"220 725 OFFCURVE",
"68 603 OFFCURVE",
"32 371 CURVE SMOOTH",
"-7 126 OFFCURVE",
"108 -15 OFFCURVE",
"289 -15 CURVE SMOOTH"
);
}
);
width = 604;
},
{
anchors = (
{
name = bottom;
position = "{325, 0}";
},
{
name = top;
position = "{435, 692}";
}
);
associatedMasterId = "075BA79B-D813-4287-A9DD-CCAF2D535ED3";
background = {
paths = (
{
closed = 1;
nodes = (
"396 -6 OFFCURVE",
"485 26 OFFCURVE",
"575 93 CURVE",
"564 109 LINE",
"480 45 OFFCURVE",
"399 15 OFFCURVE",
"327 15 CURVE SMOOTH",
"185 15 OFFCURVE",
"88 136 OFFCURVE",
"120 344 CURVE SMOOTH",
"153 550 OFFCURVE",
"285 678 OFFCURVE",
"444 678 CURVE SMOOTH",
"502 678 OFFCURVE",
"570 661 OFFCURVE",
"627 637 CURVE",
"623 646 LINE",
"613 516 LINE",
"628 516 LINE",
"653 650 LINE",
"584 683 OFFCURVE",
"515 698 OFFCURVE",
"454 698 CURVE SMOOTH",
"277 698 OFFCURVE",
"135 567 OFFCURVE",
"99 344 CURVE SMOOTH",
"64 123 OFFCURVE",
"166 -6 OFFCURVE",
"321 -6 CURVE SMOOTH"
);
}
);
};
layerId = "E9A76839-7688-4F9E-A98B-4B18546F1EA0";
name = "Jul 3 17, 17:54";
paths = (
{
closed = 1;
nodes = (
"396 -6 OFFCURVE",
"485 26 OFFCURVE",
"575 93 CURVE",
"564 109 LINE",
"480 45 OFFCURVE",
"399 15 OFFCURVE",
"327 15 CURVE SMOOTH",
"203 15 OFFCURVE",
"114 107 OFFCURVE",
"114 268 CURVE SMOOTH",
"114 476 OFFCURVE",
"242 678 OFFCURVE",
"444 678 CURVE SMOOTH",
"502 678 OFFCURVE",
"570 661 OFFCURVE",
"627 637 CURVE",
"623 646 LINE",
"613 516 LINE",
"628 516 LINE",
"653 650 LINE",
"584 683 OFFCURVE",
"515 698 OFFCURVE",
"454 698 CURVE SMOOTH",
"232 698 OFFCURVE",
"92 492 OFFCURVE",
"92 261 CURVE SMOOTH",
"92 91 OFFCURVE",
"187 -6 OFFCURVE",
"321 -6 CURVE SMOOTH"
);
}
);
width = 669;
},
{
anchors = (
{
name = bottom;
position = "{315, 0}";
},
{
name = top;
position = "{425, 692}";
}
);
associatedMasterId = "075BA79B-D813-4287-A9DD-CCAF2D535ED3";
background = {
paths = (
{
closed = 1;
nodes = (
"533 -6 OFFCURVE",
"674 213 OFFCURVE",
"674 436 CURVE SMOOTH",
"674 613 OFFCURVE",
"567 698 OFFCURVE",
"437 698 CURVE SMOOTH",
"226 698 OFFCURVE",
"82 487 OFFCURVE",
"82 257 CURVE SMOOTH",
"82 77 OFFCURVE",
"190 -6 OFFCURVE",
"317 -6 CURVE SMOOTH"
);
},
{
closed = 1;
nodes = (
"199 14 OFFCURVE",
"103 96 OFFCURVE",
"103 261 CURVE SMOOTH",
"103 473 OFFCURVE",
"237 678 OFFCURVE",
"435 678 CURVE SMOOTH",
"555 678 OFFCURVE",
"653 596 OFFCURVE",
"653 431 CURVE SMOOTH",
"653 219 OFFCURVE",
"517 14 OFFCURVE",
"319 14 CURVE SMOOTH"
);
}
);
};
layerId = "C8446BC9-D6DF-488F-A056-C09AB75F1B39";
name = "Jul 4 17, 11:56";
paths = (
{
closed = 1;
nodes = (
"388 -6 OFFCURVE",
"475 26 OFFCURVE",
"565 93 CURVE",
"554 109 LINE",
"470 45 OFFCURVE",
"389 14 OFFCURVE",
"317 14 CURVE SMOOTH",
"203 14 OFFCURVE",
"113 101 OFFCURVE",
"113 262 CURVE SMOOTH",
"113 470 OFFCURVE",
"242 678 OFFCURVE",
"434 678 CURVE SMOOTH",
"492 678 OFFCURVE",
"560 661 OFFCURVE",
"617 637 CURVE",
"613 646 LINE",
"603 516 LINE",
"618 516 LINE",
"643 650 LINE",
"574 683 OFFCURVE",
"503 698 OFFCURVE",
"442 698 CURVE SMOOTH",
"230 698 OFFCURVE",
"92 487 OFFCURVE",
"92 256 CURVE SMOOTH",
"92 90 OFFCURVE",
"190 -6 OFFCURVE",
"313 -6 CURVE SMOOTH"
);
}
);
width = 659;
}
);
leftKerningGroup = O;
leftMetricsKey = O;
rightKerningGroup = C;
unicode = 0043;
},
{
glyphname = Ccedilla;
layers = (
{
anchors = (
{
name = top;
position = "{452, 692}";
}
);
background = {
components = (
{
name = C;
},
{
name = cedillacomb.case;
transform = "{1, 0, 0, 1, 196, 0}";
}
);
};
layerId = "075BA79B-D813-4287-A9DD-CCAF2D535ED3";
paths = (
{
closed = 1;
nodes = (
"347 -212 OFFCURVE",
"391 -180 OFFCURVE",
"391 -129 CURVE SMOOTH",
"391 -95 OFFCURVE",
"372 -74 OFFCURVE",
"309 -68 CURVE",
"322 11 LINE",
"304 11 LINE",
"285 -87 LINE",
"342 -88 OFFCURVE",
"370 -102 OFFCURVE",
"370 -135 CURVE SMOOTH",
"370 -172 OFFCURVE",
"335 -192 OFFCURVE",
"293 -192 CURVE SMOOTH",
"274 -192 OFFCURVE",
"254 -188 OFFCURVE",
"234 -179 CURVE",
"224 -196 LINE",
"247 -207 OFFCURVE",
"270 -212 OFFCURVE",
"292 -212 CURVE SMOOTH"
);
},
{
closed = 1;
nodes = (
"86 82 OFFCURVE",
"187 -6 OFFCURVE",
"310 -6 CURVE SMOOTH",
"385 -6 OFFCURVE",
"467 27 OFFCURVE",
"541 93 CURVE",
"530 109 LINE",
"462 45 OFFCURVE",
"384 14 OFFCURVE",
"314 14 CURVE SMOOTH",
"201 14 OFFCURVE",
"107 95 OFFCURVE",
"107 267 CURVE SMOOTH",
"107 465 OFFCURVE",
"231 678 OFFCURVE",
"423 678 CURVE SMOOTH",
"475 678 OFFCURVE",
"542 662 OFFCURVE",
"596 638 CURVE",
"590 646 LINE",
"579 516 LINE",
"594 516 LINE",
"619 650 LINE",
"553 683 OFFCURVE",
"483 698 OFFCURVE",
"429 698 CURVE SMOOTH",
"222 698 OFFCURVE",
"86 481 OFFCURVE",
"86 267 CURVE SMOOTH"
);
}
);
width = 631;
},
{
anchors = (
{
name = top;
position = "{430, 710}";
}
);
background = {
components = (
{
name = C;
},
{
name = cedillacomb.case;
transform = "{1, 0, 0, 1, 183, 0}";
}
);
};
layerId = "927AED37-E9E6-4F96-A08E-421C3785EFC6";
paths = (
{
closed = 1;
nodes = (
"353 -275 OFFCURVE",
"436 -221 OFFCURVE",
"436 -136 CURVE SMOOTH",
"436 -83 OFFCURVE",
"403 -49 OFFCURVE",
"335 -39 CURVE",
"364 110 LINE",
"255 110 LINE",
"207 -117 LINE",
"253 -119 OFFCURVE",
"301 -127 OFFCURVE",
"301 -151 CURVE SMOOTH",
"301 -166 OFFCURVE",
"283 -172 OFFCURVE",
"260 -172 CURVE SMOOTH",
"235 -172 OFFCURVE",
"202 -165 OFFCURVE",
"177 -154 CURVE",
"131 -246 LINE",
"171 -266 OFFCURVE",
"214 -275 OFFCURVE",
"254 -275 CURVE SMOOTH"
);
},
{
closed = 1;
nodes = (
"37 84 OFFCURVE",
"158 -15 OFFCURVE",
"304 -15 CURVE SMOOTH",
"387 -15 OFFCURVE",
"477 17 OFFCURVE",
"559 82 CURVE",
"497 205 LINE",
"447 169 OFFCURVE",
"396 148 OFFCURVE",
"352 148 CURVE SMOOTH",
"290 148 OFFCURVE",
"245 189 OFFCURVE",
"245 302 CURVE SMOOTH",
"245 421 OFFCURVE",
"295 570 OFFCURVE",
"413 570 CURVE SMOOTH",
"435 570 OFFCURVE",
"463 565 OFFCURVE",
"498 551 CURVE",
"465 579 LINE",
"479 472 LINE",
"594 472 LINE",
"634 669 LINE",
"555 705 OFFCURVE",
"486 725 OFFCURVE",
"413 725 CURVE SMOOTH",
"181 725 OFFCURVE",
"37 522 OFFCURVE",
"37 293 CURVE SMOOTH"
);
}
);
width = 607;
}
);
leftKerningGroup = O;
rightKerningGroup = C;
unicode = 00C7;
},
{
glyphname = D;
layers = (
{
anchors = (
{
name = bottom;
position = "{297, 0}";
},
{
name = center;
position = "{230, 355}";
},
{
name = top;
position = "{386, 691}";
}
);
background = {
paths = (
{
closed = 1;
nodes = (
"505 0 OFFCURVE",
"646 213 OFFCURVE",
"646 436 CURVE SMOOTH",
"646 613 OFFCURVE",
"539 692 OFFCURVE",
"409 692 CURVE SMOOTH",
"198 692 OFFCURVE",
"54 487 OFFCURVE",
"54 257 CURVE SMOOTH",
"54 77 OFFCURVE",
"162 0 OFFCURVE",
"289 0 CURVE SMOOTH"
);
},
{
closed = 1;
nodes = (
"171 20 OFFCURVE",
"75 96 OFFCURVE",
"75 261 CURVE SMOOTH",
"75 473 OFFCURVE",
"209 672 OFFCURVE",
"407 672 CURVE SMOOTH",
"527 672 OFFCURVE",
"625 596 OFFCURVE",
"625 431 CURVE SMOOTH",
"625 219 OFFCURVE",
"489 20 OFFCURVE",
"291 20 CURVE SMOOTH"
);
}
);
};
guideLines = (
{
angle = 261.0141;
position = "{786, 346}";
}
);
layerId = "075BA79B-D813-4287-A9DD-CCAF2D535ED3";
paths = (
{
closed = 1;
nodes = (
"275 692 LINE",
"130 687 LINE",
"128 672 LINE",
"229 663 LINE",
"224 671 LINE",
"121 21 LINE",
"129 29 LINE",
"24 15 LINE",
"22 0 LINE",
"295 0 LINE SMOOTH",
"517 0 OFFCURVE",
"659 210 OFFCURVE",
"659 429 CURVE SMOOTH",
"659 616 OFFCURVE",
"555 692 OFFCURVE",
"393 692 CURVE SMOOTH"
);
},
{
closed = 1;
nodes = (
"133 19 LINE",
"139 14 LINE",
"244 678 LINE",
"236 673 LINE",
"387 673 LINE SMOOTH",
"543 673 OFFCURVE",
"638 598 OFFCURVE",
"638 426 CURVE SMOOTH",
"638 220 OFFCURVE",
"502 19 OFFCURVE",
"297 19 CURVE SMOOTH"
);
}
);
width = 718;
},
{
anchors = (
{
name = bottom;
position = "{272, 0}";
},
{
name = center;
position = "{213, 356}";
},
{
name = top;
position = "{364, 710}";
}
);
background = {
paths = (
{
closed = 1;
nodes = (
"354 710 LINE",
"100 705 LINE",
"84 605 LINE",
"158 571 LINE",
"139 600 LINE",
"60 105 LINE",
"84 131 LINE",
"4 100 LINE",
"-12 0 LINE",
"285 0 LINE SMOOTH",
"502 0 OFFCURVE",
"642 124 OFFCURVE",
"679 356 CURVE SMOOTH",
"715 584 OFFCURVE",
"620 710 OFFCURVE",
"412 710 CURVE SMOOTH"
);
},
{
closed = 1;
nodes = (
"238 145 LINE",
"257 105 LINE",
"336 600 LINE",
"301 565 LINE",
"394 565 LINE SMOOTH",
"471 565 OFFCURVE",
"494 523 OFFCURVE",
"470 373 CURVE SMOOTH",
"440 185 OFFCURVE",
"385 145 OFFCURVE",
"308 145 CURVE SMOOTH"
);
}
);
};
guideLines = (
{
angle = -99;
position = "{24, 231}";
},
{
angle = -99;
position = "{282, 231}";
},
{
angle = -99;
position = "{82, 231}";
}
);
layerId = "927AED37-E9E6-4F96-A08E-421C3785EFC6";
paths = (
{
closed = 1;
nodes = (
"354 710 LINE",
"100 705 LINE",
"84 605 LINE",
"158 571 LINE",
"139 600 LINE",
"60 105 LINE",
"84 131 LINE",
"4 100 LINE",
"-12 0 LINE",
"277 0 LINE SMOOTH",
"548 0 OFFCURVE",
"686 195 OFFCURVE",
"686 430 CURVE SMOOTH",
"686 617 OFFCURVE",
"598 710 OFFCURVE",
"412 710 CURVE SMOOTH"
);
},
{
closed = 1;
nodes = (
"238 145 LINE",
"257 105 LINE",
"336 600 LINE",
"301 565 LINE",
"383 565 LINE SMOOTH",
"463 565 OFFCURVE",
"478 515 OFFCURVE",
"478 448 CURVE SMOOTH",
"478 360 OFFCURVE",
"452 145 OFFCURVE",
"313 145 CURVE SMOOTH"
);
}
);
width = 695;
},
{
anchors = (
{
name = bottom;
position = "{275, 0}";
},
{
name = center;
position = "{360, 356}";
},
{
name = top;
position = "{369, 710}";
}
);
associatedMasterId = "927AED37-E9E6-4F96-A08E-421C3785EFC6";
background = {
anchors = (
{
name = bottom;
position = "{275, 0}";
},
{
name = center;
position = "{360, 356}";
},
{
name = top;
position = "{369, 710}";
}
);
paths = (
{
closed = 1;
nodes = (
"349 710 LINE",
"94 705 LINE",
"78 605 LINE",
"157 570 LINE",
"137 610 LINE",
"55 95 LINE",
"86 134 LINE",
"-2 100 LINE",
"-17 0 LINE",
"275 0 LINE SMOOTH",
"492 0 OFFCURVE",
"638 130 OFFCURVE",
"676 369 CURVE SMOOTH",
"711 590 OFFCURVE",
"619 710 OFFCURVE",
"412 710 CURVE SMOOTH"
);
},
{
closed = 1;
nodes = (
"231 145 LINE",
"255 115 LINE",
"331 595 LINE",
"298 565 LINE",
"384 565 LINE SMOOTH",
"462 565 OFFCURVE",
"488 517 OFFCURVE",
"463 360 CURVE SMOOTH",
"434 179 OFFCURVE",
"385 145 OFFCURVE",
"308 145 CURVE SMOOTH"
);
}
);
};
guideLines = (
{
angle = -99;
position = "{19, 231}";
},
{
angle = -99;
position = "{277, 231}";
},
{
angle = -99;
position = "{77, 231}";
}
);
layerId = "04D56E0B-7657-498A-966B-61A304C282D0";
name = "Jun 27 17, 18:23";
paths = (
{
closed = 1;
nodes = (
"349 710 LINE",
"94 705 LINE",
"78 605 LINE",
"156 570 LINE",
"137 610 LINE",
"55 95 LINE",
"87 134 LINE",
"-2 100 LINE",
"-18 0 LINE",
"280 0 LINE SMOOTH",
"497 0 OFFCURVE",
"637 124 OFFCURVE",
"674 356 CURVE SMOOTH",
"710 584 OFFCURVE",
"615 710 OFFCURVE",
"407 710 CURVE SMOOTH"
);
},
{
closed = 1;
nodes = (
"233 145 LINE",
"258 115 LINE",
"335 595 LINE",
"296 565 LINE",
"389 565 LINE SMOOTH",
"466 565 OFFCURVE",
"489 523 OFFCURVE",
"465 373 CURVE SMOOTH",
"435 185 OFFCURVE",
"380 145 OFFCURVE",
"303 145 CURVE SMOOTH"
);
}
);
width = 676;
},
{
anchors = (
{
name = bottom;
position = "{275, 0}";
},
{
name = center;
position = "{360, 356}";
},
{
name = top;
position = "{369, 710}";
}
);
associatedMasterId = "927AED37-E9E6-4F96-A08E-421C3785EFC6";
background = {
anchors = (
{
name = bottom;
position = "{275, 0}";
},
{
name = center;
position = "{360, 356}";
},
{
name = top;
position = "{369, 710}";
}
);
};
guideLines = (
{
angle = -99;
position = "{19, 231}";
},
{
angle = -99;
position = "{277, 231}";
},
{
angle = -99;
position = "{77, 231}";
}
);
layerId = "6EED9467-230C-4374-8CDA-4FE014C3087D";
name = "Jun 28 17, 17:33";
paths = (
{
closed = 1;
nodes = (
"349 710 LINE",
"94 705 LINE",
"78 605 LINE",
"156 570 LINE",
"137 610 LINE",
"55 95 LINE",
"87 134 LINE",
"-2 100 LINE",
"-18 0 LINE",
"280 0 LINE SMOOTH",
"497 0 OFFCURVE",
"637 124 OFFCURVE",
"674 356 CURVE SMOOTH",
"710 584 OFFCURVE",
"615 710 OFFCURVE",
"407 710 CURVE SMOOTH"
);
},
{
closed = 1;
nodes = (
"233 145 LINE",
"258 115 LINE",
"335 595 LINE",
"296 565 LINE",
"389 565 LINE SMOOTH",
"466 565 OFFCURVE",
"489 523 OFFCURVE",
"465 373 CURVE SMOOTH",
"435 185 OFFCURVE",
"380 145 OFFCURVE",
"303 145 CURVE SMOOTH"
);
}
);
width = 676;
},
{
anchors = (
{
name = bottom;
position = "{314, 0}";
},
{
name = center;
position = "{381, 345}";
},
{
name = top;
position = "{403, 691}";
}
);
associatedMasterId = "075BA79B-D813-4287-A9DD-CCAF2D535ED3";
background = {
paths = (
{
closed = 1;
nodes = (
"282 692 LINE",
"137 687 LINE",
"135 672 LINE",
"236 663 LINE",
"231 671 LINE",
"128 21 LINE",
"136 29 LINE",
"31 15 LINE",
"29 0 LINE",
"289 0 LINE SMOOTH",
"453 0 OFFCURVE",
"609 119 OFFCURVE",
"646 354 CURVE SMOOTH",
"684 590 OFFCURVE",
"560 692 OFFCURVE",
"409 692 CURVE SMOOTH"
);
},
{
closed = 1;
nodes = (
"140 19 LINE",
"146 14 LINE",
"251 678 LINE",
"243 673 LINE",
"406 673 LINE SMOOTH",
"551 673 OFFCURVE",
"659 571 OFFCURVE",
"625 352 CURVE SMOOTH",
"589 127 OFFCURVE",
"440 19 OFFCURVE",
"291 19 CURVE SMOOTH"
);
}
);
};
layerId = "DC82266B-48F5-4D3B-AA36-2F6700E6677F";
name = "Jul 3 17, 17:57";
paths = (
{
closed = 1;
nodes = (
"282 692 LINE",
"137 687 LINE",
"135 672 LINE",
"236 663 LINE",
"231 671 LINE",
"128 21 LINE",
"136 29 LINE",
"31 15 LINE",
"29 0 LINE",
"289 0 LINE SMOOTH",
"511 0 OFFCURVE",
"653 207 OFFCURVE",
"653 435 CURVE SMOOTH",
"653 614 OFFCURVE",
"541 692 OFFCURVE",
"409 692 CURVE SMOOTH"
);
},
{
closed = 1;
nodes = (
"140 19 LINE",
"146 14 LINE",
"251 678 LINE",
"243 673 LINE",
"406 673 LINE SMOOTH",
"533 673 OFFCURVE",
"631 595 OFFCURVE",
"631 429 CURVE SMOOTH",
"631 212 OFFCURVE",
"498 19 OFFCURVE",
"291 19 CURVE SMOOTH"
);
}
);
width = 715;
}
);
leftKerningGroup = H;
leftMetricsKey = H;
rightKerningGroup = O;
rightMetricsKey = O;
unicode = 0044;
},
{
glyphname = Eth;
layers = (
{
anchors = (
{
name = bottom;
position = "{297, 0}";
},
{
name = center;
position = "{230, 355}";
},
{
name = top;
position = "{386, 691}";
}
);
background = {
components = (
{
name = D;
},
{
name = strokeshortcomb;
transform = "{1.03226, 0, 0, 1, -12, 55}";
}
);
};
guideLines = (
{
angle = -99;
position = "{371, 231}";
},
{
angle = -99;
position = "{58, 231}";
},
{
position = "{490, 378}";
}
);
layerId = "075BA79B-D813-4287-A9DD-CCAF2D535ED3";
paths = (
{
closed = 1;
nodes = (
"275 692 LINE",
"130 687 LINE",
"128 672 LINE",
"229 663 LINE",
"224 671 LINE",
"121 21 LINE",
"129 29 LINE",
"24 15 LINE",
"22 0 LINE",
"295 0 LINE SMOOTH",
"517 0 OFFCURVE",
"659 210 OFFCURVE",
"659 429 CURVE SMOOTH",
"659 616 OFFCURVE",
"555 692 OFFCURVE",
"393 692 CURVE SMOOTH"
);
},
{
closed = 1;
nodes = (
"133 19 LINE",
"139 14 LINE",
"244 678 LINE",
"236 673 LINE",
"387 673 LINE SMOOTH",
"543 673 OFFCURVE",
"638 598 OFFCURVE",
"638 426 CURVE SMOOTH",
"638 220 OFFCURVE",
"502 19 OFFCURVE",
"297 19 CURVE SMOOTH"
);
},
{
closed = 1;
nodes = (
"378.194 345 LINE",
"381.291 364 LINE",
"79 364 LINE",
"76 345 LINE"
);
}
);
width = 718;
},
{
anchors = (
{
name = bottom;
position = "{272, 0}";
},
{
name = center;
position = "{213, 356}";
},
{
name = top;
position = "{364, 710}";
}
);
background = {
components = (
{
alignment = -1;
name = D;
},
{
alignment = -1;
name = strokeshortcomb;
transform = "{0.8, 0, 0, 1.2, 23, 2}";
}
);
};
guideLines = (
{
angle = 90;
position = "{-290, 241}";
},
{
angle = -99;
position = "{25, 233}";
},
{
angle = -99;
position = "{378, 231}";
},
{
position = "{490, 430}";
}
);
layerId = "927AED37-E9E6-4F96-A08E-421C3785EFC6";
paths = (
{
closed = 1;
nodes = (
"354 710 LINE",
"100 705 LINE",
"84 605 LINE",
"158 571 LINE",
"139 600 LINE",
"60 105 LINE",
"84 131 LINE",
"4 100 LINE",
"-12 0 LINE",
"277 0 LINE SMOOTH",
"548 0 OFFCURVE",
"686 195 OFFCURVE",
"686 430 CURVE SMOOTH",
"686 617 OFFCURVE",
"598 710 OFFCURVE",
"412 710 CURVE SMOOTH"
);
},
{
closed = 1;
nodes = (
"238 145 LINE",
"257 105 LINE",
"336 600 LINE",
"301 565 LINE",
"383 565 LINE SMOOTH",
"463 565 OFFCURVE",
"478 515 OFFCURVE",
"478 448 CURVE SMOOTH",
"478 360 OFFCURVE",
"452 145 OFFCURVE",
"313 145 CURVE SMOOTH"
);
},
{
closed = 1;
nodes = (
"367 294 LINE",
"387 426 LINE",
"55 426 LINE",
"35 294 LINE"
);
}
);
width = 695;
}
);
leftKerningGroup = H;
rightKerningGroup = O;
rightMetricsKey = D;
unicode = 00D0;
},
{
glyphname = E;
layers = (
{
anchors = (
{
name = bottom;
position = "{269, 0}";
},
{
name = ogonek;
position = "{491, 0}";
},
{
name = top;
position = "{388, 692}";
},
{
name = topleft;
position = "{106, 692}";
}
);
background = {
paths = (
{
closed = 1;
nodes = (
"464 12 LINE",
"473 19 LINE",
"133 19 LINE",
"139 16 LINE",
"195 368 LINE",
"187 359 LINE",
"470 359 LINE",
"473 378 LINE",
"190 378 LINE",
"195 369 LINE",
"244 678 LINE",
"236 673 LINE",
"564 673 LINE",
"557 680 LINE",
"552 556 LINE",
"567 556 LINE",
"588 692 LINE",
"247 692 LINE",
"130 687 LINE",
"128 672 LINE",
"229 663 LINE",
"223 671 LINE",
"120 21 LINE",
"129 29 LINE",
"24 15 LINE",
"22 0 LINE",
"491 0 LINE",
"513 141 LINE",
"499 141 LINE"
);
}
);
};
guideLines = (
{
angle = 90;
position = "{725, 116}";
},
{
angle = -99;
position = "{173, 231}";
},
{
angle = -99;
position = "{154, 231}";
}
);
layerId = "075BA79B-D813-4287-A9DD-CCAF2D535ED3";
paths = (
{
closed = 1;
nodes = (
"464 12 LINE",
"473 19 LINE",
"133 19 LINE",
"139 16 LINE",
"193 355 LINE",
"185 346 LINE",
"468 346 LINE",
"471 365 LINE",
"188 365 LINE",
"193 356 LINE",
"244 678 LINE",
"236 673 LINE",
"564 673 LINE",
"557 680 LINE",
"552 556 LINE",
"567 556 LINE",
"588 692 LINE",
"247 692 LINE",
"130 687 LINE",
"128 672 LINE",
"229 663 LINE",
"223 671 LINE",
"120 21 LINE",
"129 29 LINE",
"24 15 LINE",
"22 0 LINE",
"491 0 LINE",
"513 141 LINE",
"499 141 LINE"
);
}
);
width = 617;
},
{
anchors = (
{
name = bottom;
position = "{254, 0}";
},
{
name = ogonek;
position = "{503, 0}";
},
{
name = top;
position = "{366, 710}";
},
{
name = topleft;
position = "{86, 710}";
}
);
background = {
paths = (
{
closed = 1;
nodes = (
"413 710 LINE",
"100 705 LINE",
"84 605 LINE",
"158 571 LINE",
"139 600 LINE",
"60 105 LINE",
"84 131 LINE",
"4 100 LINE",
"-12 0 LINE",
"300 0 LINE",
"316 100 LINE",
"247 132 LINE",
"257 105 LINE",
"336 600 LINE",
"314 572 LINE",
"397 610 LINE"
);
}
);
};
guideLines = (
{
angle = -99;
position = "{369, 726}";
}
);
layerId = "927AED37-E9E6-4F96-A08E-421C3785EFC6";
paths = (
{
closed = 1;
nodes = (
"385 115 LINE",
"427 145 LINE",
"238 145 LINE",
"257 105 LINE",
"292 325 LINE",
"258 290 LINE",
"459 290 LINE",
"482 430 LINE",
"283 430 LINE",
"304 400 LINE",
"335 595 LINE",
"301 565 LINE",
"479 565 LINE",
"450 591 LINE",
"460 508 LINE",
"574 508 LINE",
"606 710 LINE",
"350 710 LINE",
"100 705 LINE",
"84 605 LINE",
"158 571 LINE",
"139 600 LINE",
"60 106 LINE",
"84 131 LINE",
"4 100 LINE",
"-12 0 LINE",
"503 0 LINE",
"538 211 LINE",
"422 211 LINE"
);
}
);
width = 585;
}
);
leftKerningGroup = H;
leftMetricsKey = H;
rightKerningGroup = E;
unicode = 0045;
},
{
glyphname = Ecedillabreve;
layers = (
{
background = {
components = (
{
name = brevecomb.case;
transform = "{1, 0, 0, 1, 119, 0}";
}
);
paths = (
{
closed = 1;
nodes = (
"468 12 LINE",
"477 19 LINE",
"140 19 LINE",
"145 12 LINE",
"201 366 LINE",
"194 359 LINE",
"475 359 LINE",
"478 378 LINE",
"197 378 LINE",
"202 371 LINE",
"251 680 LINE",
"243 673 LINE",
"568 673 LINE",
"562 680 LINE",
"556 556 LINE",
"571 556 LINE",
"592 692 LINE",
"254 692 LINE",
"138 687 LINE",
"136 672 LINE",
"236 662 LINE",
"230 670 LINE",
"128 21 LINE",
"136 29 LINE",
"31 15 LINE",
"29 0 LINE",
"495 0 LINE",
"517 141 LINE",
"503 141 LINE"
);
},
{
closed = 1;
nodes = (
"458 756 OFFCURVE",
"516 787 OFFCURVE",
"526 850 CURVE",
"511 849 LINE",
"500 801 OFFCURVE",
"453 777 OFFCURVE",
"409 777 CURVE SMOOTH",
"366 777 OFFCURVE",
"325 801 OFFCURVE",
"327 850 CURVE",
"312 848 LINE",
"304 787 OFFCURVE",
"353 756 OFFCURVE",
"405 756 CURVE SMOOTH"
);
},
{
closed = 1;
nodes = (
"305 -212 OFFCURVE",
"347 -188 OFFCURVE",
"355 -138 CURVE SMOOTH",
"361 -102 OFFCURVE",
"345 -74 OFFCURVE",
"275 -68 CURVE",
"285 0 LINE",
"267 0 LINE",
"250 -87 LINE",
"313 -88 OFFCURVE",
"340 -106 OFFCURVE",
"334 -141 CURVE SMOOTH",
"329 -175 OFFCURVE",
"297 -192 OFFCURVE",
"260 -192 CURVE SMOOTH",
"240 -192 OFFCURVE",
"218 -187 OFFCURVE",
"200 -179 CURVE",
"190 -196 LINE",
"211 -207 OFFCURVE",
"235 -212 OFFCURVE",
"256 -212 CURVE SMOOTH"
);
}
);
};
components = (
{
name = E;
},
{
name = cedillacomb.case;
transform = "{1, 0, 0, 1, 154, 0}";
},
{
name = brevecomb.case;
transform = "{1, 0, 0, 1, 113, 0}";
}
);
layerId = "075BA79B-D813-4287-A9DD-CCAF2D535ED3";
width = 617;
},
{
background = {
components = (
{
name = brevecomb.case;
transform = "{1, 0, 0, 1, 89, 0}";
}
);
paths = (
{
closed = 1;
nodes = (
"377 115 LINE",
"417 145 LINE",
"229 145 LINE",
"253 115 LINE",
"286 325 LINE",
"253 295 LINE",
"452 295 LINE",
"473 430 LINE",
"274 430 LINE",
"298 400 LINE",
"329 595 LINE",
"296 565 LINE",
"472 565 LINE",
"442 591 LINE",
"450 508 LINE",
"565 508 LINE",
"597 710 LINE",
"342 710 LINE",
"94 705 LINE",
"78 605 LINE",
"153 572 LINE",
"136 610 LINE",
"55 95 LINE",
"85 134 LINE",
"-2 100 LINE",
"-18 0 LINE",
"494 0 LINE",
"529 211 LINE",
"415 211 LINE"
);
},
{
closed = 1;
nodes = (
"289 -275 OFFCURVE",
"376 -232 OFFCURVE",
"390 -146 CURVE SMOOTH",
"399 -89 OFFCURVE",
"361 -49 OFFCURVE",
"290 -39 CURVE",
"296 0 LINE",
"186 0 LINE",
"160 -117 LINE",
"208 -119 OFFCURVE",
"259 -129 OFFCURVE",
"256 -151 CURVE SMOOTH",
"254 -166 OFFCURVE",
"238 -172 OFFCURVE",
"217 -172 CURVE SMOOTH",
"192 -172 OFFCURVE",
"159 -164 OFFCURVE",
"134 -154 CURVE",
"85 -246 LINE",
"119 -266 OFFCURVE",
"161 -275 OFFCURVE",
"202 -275 CURVE SMOOTH"
);
}
);
};
components = (
{
name = E;
},
{
name = cedillacomb.case;
transform = "{1, 0, 0, 1, 147, 0}";
},
{
name = brevecomb.case;
transform = "{1, 0, 0, 1, 86, 0}";
}
);
layerId = "927AED37-E9E6-4F96-A08E-421C3785EFC6";
width = 585;
}
);
leftKerningGroup = H;
rightKerningGroup = E;
unicode = 1E1C;
},
{
glyphname = F;
layers = (
{
anchors = (
{
name = bottom;
position = "{128, 0}";
},
{
name = top;
position = "{388, 692}";
}
);
background = {
paths = (
{
closed = 1;
nodes = (
"256 0 LINE",
"258 15 LINE",
"135 29 LINE",
"140 21 LINE",
"195 368 LINE",
"186 356 LINE",
"455 356 LINE",
"458 375 LINE",
"190 375 LINE",
"195 368 LINE",
"244 678 LINE",
"236 673 LINE",
"553 673 LINE",
"547 680 LINE",
"542 556 LINE",
"557 556 LINE",
"578 692 LINE",
"247 692 LINE",
"130 687 LINE",
"128 672 LINE",
"229 663 LINE",
"223 671 LINE",
"120 21 LINE",
"129 29 LINE",
"24 15 LINE",
"22 0 LINE"
);
}
);
};
guideLines = (
{
angle = -99;
position = "{173, 231}";
},
{
angle = -99;
position = "{154, 231}";
}
);
layerId = "075BA79B-D813-4287-A9DD-CCAF2D535ED3";
paths = (
{
closed = 1;
nodes = (
"256 0 LINE",
"258 15 LINE",
"135 29 LINE",
"140 21 LINE",
"190 339 LINE",
"181 334 LINE",
"450 334 LINE",
"453 353 LINE",
"185 353 LINE",
"190 339 LINE",
"244 678 LINE",
"236 673 LINE",
"553 673 LINE",
"547 680 LINE",
"542 556 LINE",
"557 556 LINE",
"578 692 LINE",
"247 692 LINE",
"130 687 LINE",
"128 672 LINE",
"229 663 LINE",
"223 672 LINE",
"120 22 LINE",
"129 29 LINE",
"24 15 LINE",
"22 0 LINE"
);
}
);
width = 551;
},
{
anchors = (
{
name = bottom;
position = "{147, 0}";
},
{
name = top;
position = "{366, 710}";
}
);
background = {
paths = (
{
closed = 1;
nodes = (
"413 710 LINE",
"100 705 LINE",
"84 605 LINE",
"158 571 LINE",
"139 600 LINE",
"60 105 LINE",
"84 131 LINE",
"4 100 LINE",
"-12 0 LINE",
"300 0 LINE",
"316 100 LINE",
"247 132 LINE",
"257 105 LINE",
"336 600 LINE",
"314 572 LINE",
"397 610 LINE"
);
}
);
};
guideLines = (
{
angle = -99;
position = "{80, 231}";
},
{
angle = -99;
position = "{278, 231}";
}
);
layerId = "927AED37-E9E6-4F96-A08E-421C3785EFC6";
paths = (
{
closed = 1;
nodes = (
"314 0 LINE",
"329 100 LINE",
"242 132 LINE",
"257 105 LINE",
"291 320 LINE",
"257 285 LINE",
"461 285 LINE",
"482 430 LINE",
"282 430 LINE",
"304 397 LINE",
"335 595 LINE",
"301 565 LINE",
"477 565 LINE",
"448 584 LINE",
"457 505 LINE",
"571 505 LINE",
"603 710 LINE",
"350 710 LINE",
"100 705 LINE",
"84 605 LINE",
"158 571 LINE",
"139 600 LINE",
"60 105 LINE",
"84 131 LINE",
"4 100 LINE",
"-12 0 LINE"
);
}
);
width = 550;
}
);
leftKerningGroup = H;
leftMetricsKey = H;
rightKerningGroup = F;
unicode = 0046;
},
{
glyphname = G;
layers = (
{
anchors = (
{
name = bottom;
position = "{341, 0}";
},
{
name = top;
position = "{459, 691}";
}
);
background = {
paths = (
{
closed = 1;
nodes = (
"387 -6 OFFCURVE",
"477 11 OFFCURVE",
"566 45 CURVE",
"605 294 LINE",
"597 286 LINE",
"697 300 LINE",
"699 315 LINE",
"492 310 LINE",
"490 295 LINE",
"591 287 LINE",
"585 294 LINE",
"547 51 LINE",
"553 60 LINE",
"470 30 OFFCURVE",
"386 14 OFFCURVE",
"325 14 CURVE SMOOTH",
"194 14 OFFCURVE",
"108 104 OFFCURVE",
"108 262 CURVE SMOOTH",
"108 469 OFFCURVE",
"234 678 OFFCURVE",
"439 678 CURVE SMOOTH",
"513 678 OFFCURVE",
"578 661 OFFCURVE",
"636 637 CURVE",
"632 646 LINE",
"622 516 LINE",
"637 516 LINE",
"662 650 LINE",
"593 683 OFFCURVE",
"522 698 OFFCURVE",
"448 698 CURVE SMOOTH",
"223 698 OFFCURVE",
"87 485 OFFCURVE",
"87 256 CURVE SMOOTH",
"87 94 OFFCURVE",
"179 -6 OFFCURVE",
"321 -6 CURVE SMOOTH"
);
}
);
};
guideLines = (
{
angle = -99;
position = "{406, 433}";
},
{
angle = -99;
position = "{594, 231}";
},
{
angle = -99;
position = "{575, 231}";
}
);
layerId = "075BA79B-D813-4287-A9DD-CCAF2D535ED3";
paths = (
{
closed = 1;
nodes = (
"402 -6 OFFCURVE",
"480 12 OFFCURVE",
"565 45 CURVE",
"604 294 LINE",
"597 286 LINE",
"697 300 LINE",
"699 315 LINE",
"492 310 LINE",
"490 295 LINE",
"591 287 LINE",
"585 294 LINE",
"547 51 LINE",
"553 60 LINE",
"473 30 OFFCURVE",
"401 14 OFFCURVE",
"336 14 CURVE SMOOTH",
"198 14 OFFCURVE",
"108 87 OFFCURVE",
"108 270 CURVE SMOOTH",
"108 504 OFFCURVE",
"257 678 OFFCURVE",
"458 678 CURVE SMOOTH",
"513 678 OFFCURVE",
"574 665 OFFCURVE",
"636 637 CURVE",
"631 646 LINE",
"622 516 LINE",
"637 516 LINE",
"662 650 LINE",
"590 682 OFFCURVE",
"521 698 OFFCURVE",
"457 698 CURVE SMOOTH",
"243 698 OFFCURVE",
"87 516 OFFCURVE",
"87 268 CURVE SMOOTH",
"87 72 OFFCURVE",
"184 -6 OFFCURVE",
"331 -6 CURVE SMOOTH"
);
}
);
width = 738;
},
{
anchors = (
{
name = bottom;
position = "{312, 0}";
},
{
name = top;
position = "{429, 710}";
}
);
background = {
anchors = (
{
name = bottom;
position = "{312, 0}";
},
{
name = top;
position = "{419, 710}";
}
);
components = (
{
name = C;
transform = "{1, 0, 0, 1, 3, 0}";
}
);
};
layerId = "927AED37-E9E6-4F96-A08E-421C3785EFC6";
paths = (
{
closed = 1;
nodes = (
"386 -15 OFFCURVE",
"478 5 OFFCURVE",
"580 52 CURVE",
"610 277 LINE",
"588 244 LINE",
"669 272 LINE",
"685 377 LINE",
"386 372 LINE",
"370 268 LINE",
"452 244 LINE",
"427 277 LINE",
"405 117 LINE",
"430 161 LINE",
"395 150 OFFCURVE",
"365 143 OFFCURVE",
"337 143 CURVE SMOOTH",
"274 143 OFFCURVE",
"244 179 OFFCURVE",
"244 283 CURVE SMOOTH",
"244 435 OFFCURVE",
"306 570 OFFCURVE",
"434 570 CURVE SMOOTH",
"458 570 OFFCURVE",
"487 565 OFFCURVE",
"519 552 CURVE",
"489 577 LINE",
"503 468 LINE",
"617 468 LINE",
"656 667 LINE",
"576 704 OFFCURVE",
"497 725 OFFCURVE",
"419 725 CURVE SMOOTH",
"176 725 OFFCURVE",
"36 518 OFFCURVE",
"36 285 CURVE SMOOTH",
"36 80 OFFCURVE",
"144 -15 OFFCURVE",
"310 -15 CURVE SMOOTH"
);
}
);
width = 681;
},
{
anchors = (
{
name = bottom;
position = "{345, 0}";
},
{
name = top;
position = "{453, 691}";
}
);
associatedMasterId = "075BA79B-D813-4287-A9DD-CCAF2D535ED3";
background = {
anchors = (
{
name = bottom;
position = "{345, 0}";
},
{
name = top;
position = "{453, 691}";
}
);
paths = (
{
closed = 1;
nodes = (
"401 -5 OFFCURVE",
"481 11 OFFCURVE",
"569 45 CURVE",
"609 294 LINE",
"601 286 LINE",
"701 300 LINE",
"703 315 LINE",
"496 310 LINE",
"494 295 LINE",
"595 287 LINE",
"590 294 LINE",
"551 51 LINE",
"557 60 LINE",
"475 30 OFFCURVE",
"401 15 OFFCURVE",
"341 15 CURVE SMOOTH",
"173 15 OFFCURVE",
"86 127 OFFCURVE",
"119 335 CURVE SMOOTH",
"154 554 OFFCURVE",
"289 678 OFFCURVE",
"451 678 CURVE SMOOTH",
"510 678 OFFCURVE",
"582 661 OFFCURVE",
"639 637 CURVE",
"637 646 LINE",
"626 516 LINE",
"640 516 LINE",
"666 650 LINE",
"598 683 OFFCURVE",
"525 698 OFFCURVE",
"463 698 CURVE SMOOTH",
"284 698 OFFCURVE",
"136 575 OFFCURVE",
"98 335 CURVE SMOOTH",
"63 112 OFFCURVE",
"155 -5 OFFCURVE",
"335 -5 CURVE SMOOTH"
);
}
);
};
guideLines = (
{
angle = 90;
position = "{480, 433}";
}
);
layerId = "2F6643E2-7CB6-4E4D-9DA0-198E2659CFDB";
name = "Jul 3 17, 18:00";
paths = (
{
closed = 1;
nodes = (
"402 -5 OFFCURVE",
"481 11 OFFCURVE",
"570 45 CURVE",
"609 294 LINE",
"601 286 LINE",
"701 300 LINE",
"703 315 LINE",
"496 310 LINE",
"494 295 LINE",
"595 287 LINE",
"589 294 LINE",
"551 51 LINE",
"557 60 LINE",
"474 30 OFFCURVE",
"401 15 OFFCURVE",
"340 15 CURVE SMOOTH",
"172 15 OFFCURVE",
"86 126 OFFCURVE",
"119 334 CURVE SMOOTH",
"154 553 OFFCURVE",
"289 678 OFFCURVE",
"452 678 CURVE SMOOTH",
"511 678 OFFCURVE",
"582 661 OFFCURVE",
"640 637 CURVE",
"637 646 LINE",
"626 516 LINE",
"640 516 LINE",
"666 650 LINE",
"597 683 OFFCURVE",
"524 698 OFFCURVE",
"461 698 CURVE SMOOTH",
"284 698 OFFCURVE",
"136 576 OFFCURVE",
"98 336 CURVE SMOOTH",
"63 113 OFFCURVE",
"156 -5 OFFCURVE",
"336 -5 CURVE SMOOTH"
);
}
);
width = 750;
}
);
leftKerningGroup = O;
leftMetricsKey = O;
rightKerningGroup = G;
unicode = 0047;
},
{
glyphname = H;
layers = (
{
anchors = (
{
name = bottom;
position = "{351, 0}";
},
{
name = center;
position = "{406, 350}";
},
{
name = top;
position = "{461, 692}";
},
{
name = topleft;
position = "{108, 692}";
}
);
background = {
paths = (
{
closed = 1;
nodes = (
"343 692 LINE",
"131 687 LINE",
"129 672 LINE",
"230 663 LINE",
"225 671 LINE",
"122 21 LINE",
"130 29 LINE",
"25 15 LINE",
"23 0 LINE",
"234 0 LINE",
"236 15 LINE",
"136 29 LINE",
"141 21 LINE",
"244 671 LINE",
"236 663 LINE",
"341 677 LINE"
);
},
{
closed = 1;
nodes = (
"778 692 LINE",
"566 687 LINE",
"564 672 LINE",
"665 663 LINE",
"660 671 LINE",
"557 21 LINE",
"565 29 LINE",
"460 15 LINE",
"458 0 LINE",
"669 0 LINE",
"671 15 LINE",
"571 29 LINE",
"576 21 LINE",
"679 671 LINE",
"671 663 LINE",
"776 677 LINE"
);
}
);
};
guideLines = (
{
angle = -99;
position = "{174, 231}";
},
{
angle = -99;
position = "{154, 231}";
},
{
angle = -99;
position = "{590, 231}";
},
{
angle = -99;
position = "{610, 231}";
}
);
layerId = "075BA79B-D813-4287-A9DD-CCAF2D535ED3";
paths = (
{
closed = 1;
nodes = (
"234 0 LINE",
"236 15 LINE",
"136 29 LINE",
"141 21 LINE",
"193 349 LINE",
"185 342 LINE",
"615 342 LINE",
"609 349 LINE",
"557 21 LINE",
"565 29 LINE",
"460 15 LINE",
"458 0 LINE",
"670 0 LINE",
"672 15 LINE",
"571 29 LINE",
"577 21 LINE",
"680 671 LINE",
"671 663 LINE",
"778 677 LINE",
"780 692 LINE",
"566 687 LINE",
"564 672 LINE",
"665 663 LINE",
"660 671 LINE",
"609 352 LINE",
"618 361 LINE",
"188 361 LINE",
"193 352 LINE",
"244 671 LINE",
"236 663 LINE",
"341 677 LINE",
"343 692 LINE",
"130 687 LINE",
"128 672 LINE",
"230 663 LINE",
"224 671 LINE",
"121 21 LINE",
"130 29 LINE",
"24 15 LINE",
"22 0 LINE"
);
}
);
width = 774;
},
{
anchors = (
{
name = bottom;
position = "{337, 0}";
},
{
name = center;
position = "{393, 355}";
},
{
name = top;
position = "{449, 710}";
},
{
name = topleft;
position = "{98, 710}";
}
);
background = {
anchors = (
{
name = bottom;
position = "{337, 0}";
},
{
name = center;
position = "{393, 355}";
},
{
name = top;
position = "{449, 710}";
},
{
name = topleft;
position = "{61, 710}";
}
);
guideLines = (
{
angle = -99;
position = "{465, 231}";
},
{
angle = -99;
position = "{665, 231}";
}
);
paths = (
{
closed = 1;
nodes = (
"413 710 LINE",
"100 705 LINE",
"84 605 LINE",
"158 571 LINE",
"139 600 LINE",
"60 105 LINE",
"84 131 LINE",
"4 100 LINE",
"-12 0 LINE",
"300 0 LINE",
"316 100 LINE",
"247 132 LINE",
"257 105 LINE",
"336 600 LINE",
"314 572 LINE",
"397 610 LINE"
);
},
{
closed = 1;
nodes = (
"801 710 LINE",
"488 705 LINE",
"472 605 LINE",
"546 571 LINE",
"527 600 LINE",
"448 105 LINE",
"472 131 LINE",
"392 100 LINE",
"376 0 LINE",
"688 0 LINE",
"704 100 LINE",
"635 132 LINE",
"645 105 LINE",
"724 600 LINE",
"702 572 LINE",
"785 610 LINE"
);
}
);
};
guideLines = (
{
angle = -99;
position = "{465, 231}";
},
{
angle = -99;
position = "{665, 231}";
},
{
angle = -99;
position = "{725, 231}";
},
{
angle = -99;
position = "{25, 231}";
},
{
angle = -99;
position = "{80, 231}";
}
);
layerId = "927AED37-E9E6-4F96-A08E-421C3785EFC6";
paths = (
{
closed = 1;
nodes = (
"300 0 LINE",
"316 100 LINE",
"247 132 LINE",
"257 105 LINE",
"291 318 LINE",
"259 290 LINE",
"504 290 LINE",
"482 319 LINE",
"448 105 LINE",
"472 131 LINE",
"392 100 LINE",
"376 0 LINE",
"688 0 LINE",
"704 100 LINE",
"635 132 LINE",
"645 105 LINE",
"724 600 LINE",
"702 572 LINE",
"785 610 LINE",
"801 710 LINE",
"488 705 LINE",
"472 605 LINE",
"546 571 LINE",
"527 600 LINE",
"497 411 LINE",
"531 435 LINE",
"285 435 LINE",
"306 411 LINE",
"336 600 LINE",
"314 572 LINE",
"397 610 LINE",
"413 710 LINE",
"100 705 LINE",
"84 605 LINE",
"158 571 LINE",
"139 600 LINE",
"60 105 LINE",
"84 131 LINE",
"4 100 LINE",
"-12 0 LINE"
);
}
);
width = 760;
}
);
leftKerningGroup = H;
rightKerningGroup = H;
unicode = 0048;
},
{
glyphname = Hbar;
layers = (
{
background = {
anchors = (
{
name = bottom;
position = "{326, 0}";
},
{
name = center;
position = "{381, 345}";
},
{
name = top;
position = "{390, 700}";
},
{
name = topleft;
position = "{76, 700}";
}
);
paths = (
{
closed = 1;
nodes = (
"758 510 LINE",
"761 529 LINE",
"105 529 LINE",
"102 510 LINE"
);
},
{
closed = 1;
nodes = (
"233 0 LINE",
"235 15 LINE",
"135 29 LINE",
"140 21 LINE",
"192 349 LINE",
"184 342 LINE",
"623 342 LINE",
"617 349 LINE",
"565 21 LINE",
"573 29 LINE",
"468 15 LINE",
"466 0 LINE",
"677 0 LINE",
"680 15 LINE",
"579 29 LINE",
"585 21 LINE",
"688 671 LINE",
"680 663 LINE",
"785 677 LINE",
"787 692 LINE",
"575 687 LINE",
"573 672 LINE",
"674 664 LINE",
"668 671 LINE",
"618 354 LINE",
"626 361 LINE",
"187 361 LINE",
"193 354 LINE",
"243 671 LINE",
"235 663 LINE",
"340 677 LINE",
"342 692 LINE",
"130 687 LINE",
"128 672 LINE",
"229 663 LINE",
"224 671 LINE",
"121 21 LINE",
"129 29 LINE",
"24 15 LINE",
"22 0 LINE"
);
}
);
};
guideLines = (
{
angle = -99;
position = "{119, 614}";
},
{
angle = -99;
position = "{768, 614}";
}
);
layerId = "075BA79B-D813-4287-A9DD-CCAF2D535ED3";
paths = (
{
closed = 1;
nodes = (
"234 0 LINE",
"236 15 LINE",
"136 29 LINE",
"141 21 LINE",
"193 349 LINE",
"185 342 LINE",
"615 342 LINE",
"609 349 LINE",
"557 21 LINE",
"565 29 LINE",
"460 15 LINE",
"458 0 LINE",
"670 0 LINE",
"672 15 LINE",
"571 29 LINE",
"577 21 LINE",
"680 671 LINE",
"671 663 LINE",
"778 677 LINE",
"780 692 LINE",
"566 687 LINE",
"564 672 LINE",
"665 663 LINE",
"660 671 LINE",
"609 352 LINE",
"618 361 LINE",
"188 361 LINE",
"193 352 LINE",
"244 671 LINE",
"236 663 LINE",
"341 677 LINE",
"343 692 LINE",
"130 687 LINE",
"128 672 LINE",
"230 663 LINE",
"224 671 LINE",
"121 21 LINE",
"130 29 LINE",
"24 15 LINE",
"22 0 LINE"
);
},
{
closed = 1;
nodes = (
"751 509 LINE",
"754 528 LINE",
"105 528 LINE",
"102 509 LINE"
);
}
);
width = 774;
},
{
background = {
paths = (
{
closed = 1;
nodes = (
"762 467 LINE",
"776 557 LINE",
"77 557 LINE",
"63 467 LINE"
);
},
{
closed = 1;
nodes = (
"300 0 LINE",
"316 100 LINE",
"247 132 LINE",
"257 105 LINE",
"291 318 LINE",
"259 280 LINE",
"504 280 LINE",
"482 319 LINE",
"448 105 LINE",
"472 131 LINE",
"392 100 LINE",
"376 0 LINE",
"688 0 LINE",
"704 100 LINE",
"635 132 LINE",
"645 105 LINE",
"724 600 LINE",
"702 572 LINE",
"785 610 LINE",
"801 710 LINE",
"488 705 LINE",
"472 605 LINE",
"546 571 LINE",
"527 600 LINE",
"497 411 LINE",
"531 420 LINE",
"285 420 LINE",
"306 411 LINE",
"336 600 LINE",
"314 572 LINE",
"397 610 LINE",
"413 710 LINE",
"100 705 LINE",
"84 605 LINE",
"158 571 LINE",
"139 600 LINE",
"60 105 LINE",
"84 131 LINE",
"4 100 LINE",
"-12 0 LINE"
);
}
);
};
guideLines = (
{
angle = -99;
position = "{74, 540}";
},
{
angle = -99;
position = "{774, 540}";
}
);
layerId = "927AED37-E9E6-4F96-A08E-421C3785EFC6";
paths = (
{
closed = 1;
nodes = (
"300 0 LINE",
"316 100 LINE",
"247 132 LINE",
"257 105 LINE",
"291 318 LINE",
"259 275 LINE",
"504 275 LINE",
"482 319 LINE",
"448 105 LINE",
"472 131 LINE",
"392 100 LINE",
"376 0 LINE",
"688 0 LINE",
"704 100 LINE",
"635 132 LINE",
"645 105 LINE",
"724 600 LINE",
"702 572 LINE",
"785 610 LINE",
"801 710 LINE",
"488 705 LINE",
"472 605 LINE",
"546 571 LINE",
"527 600 LINE",
"492 383 LINE",
"531 415 LINE",
"285 415 LINE",
"303 390 LINE",
"336 600 LINE",
"314 572 LINE",
"397 610 LINE",
"413 710 LINE",
"100 705 LINE",
"84 605 LINE",
"158 571 LINE",
"139 600 LINE",
"60 105 LINE",
"84 131 LINE",
"4 100 LINE",
"-12 0 LINE"
);
},
{
closed = 1;
nodes = (
"761 459 LINE",
"776 554 LINE",
"77 554 LINE",
"62 459 LINE"
);
}
);
width = 760;
}
);
leftKerningGroup = H;
leftMetricsKey = H;
rightKerningGroup = H;
rightMetricsKey = H;
unicode = 0126;
},
{
glyphname = I;
layers = (
{
anchors = (
{
name = bottom;
position = "{128, 0}";
},
{
name = ogonek;
position = "{204, 0}";
},
{
name = top;
position = "{237, 692}";
},
{
name = topleft;
position = "{103, 692}";
}
);
background = {
anchors = (
{
name = bottom;
position = "{128, 0}";
},
{
name = ogonek;
position = "{145, 0}";
},
{
name = top;
position = "{238, 691}";
},
{
name = topleft;
position = "{103, 691}";
}
);
paths = (
{
closed = 1;
nodes = (
"343 692 LINE",
"131 687 LINE",
"129 672 LINE",
"230 663 LINE",
"225 671 LINE",
"122 21 LINE",
"130 29 LINE",
"25 15 LINE",
"23 0 LINE",
"234 0 LINE",
"236 15 LINE",
"136 29 LINE",
"141 21 LINE",
"244 671 LINE",
"236 663 LINE",
"341 677 LINE"
);
}
);
};
guideLines = (
{
angle = -99;
position = "{174, 231}";
},
{
angle = -99;
position = "{155, 231}";
}
);
layerId = "075BA79B-D813-4287-A9DD-CCAF2D535ED3";
paths = (
{
closed = 1;
nodes = (
"343 692 LINE",
"130 687 LINE",
"128 672 LINE",
"230 663 LINE",
"224 671 LINE",
"121 21 LINE",
"130 29 LINE",
"24 15 LINE",
"22 0 LINE",
"234 0 LINE",
"236 15 LINE",
"136 29 LINE",
"141 21 LINE",
"244 671 LINE",
"236 663 LINE",
"341 677 LINE"
);
}
);
width = 337;
},
{
anchors = (
{
name = bottom;
position = "{141, 0}";
},
{
name = ogonek;
position = "{245, 0}";
},
{
name = top;
position = "{254, 710}";
},
{
name = topleft;
position = "{87, 710}";
}
);
background = {
anchors = (
{
name = bottom;
position = "{146, 0}";
},
{
name = ogonek;
position = "{218, 0}";
},
{
name = top;
position = "{256, 710}";
},
{
name = topleft;
position = "{87, 710}";
}
);
paths = (
{
closed = 1;
nodes = (
"413 710 LINE",
"100 705 LINE",
"84 605 LINE",
"160 571 LINE",
"141 600 LINE",
"63 105 LINE",
"83 131 LINE",
"4 100 LINE",
"-11 0 LINE",
"301 0 LINE",
"316 100 LINE",
"246 132 LINE",
"260 105 LINE",
"338 600 LINE",
"315 572 LINE",
"397 610 LINE"
);
}
);
};
guideLines = (
{
angle = -99;
position = "{337, 231}";
},
{
angle = -99;
position = "{25, 231}";
},
{
angle = -99;
position = "{178, 231}";
}
);
layerId = "927AED37-E9E6-4F96-A08E-421C3785EFC6";
paths = (
{
closed = 1;
nodes = (
"413 710 LINE",
"100 705 LINE",
"84 605 LINE",
"158 571 LINE",
"138 597 LINE",
"60 105 LINE",
"84 131 LINE",
"4 100 LINE",
"-12 0 LINE",
"300 0 LINE",
"316 100 LINE",
"247 132 LINE",
"257 105 LINE",
"335 598 LINE",
"314 572 LINE",
"397 610 LINE"
);
}
);
width = 371;
}
);
leftKerningGroup = H;
rightKerningGroup = H;
unicode = 0049;
},
{
glyphname = J;
layers = (
{
anchors = (
{
name = bottom;
position = "{125, 0}";
},
{
name = top;
position = "{234, 692}";
}
);
background = {
paths = (
{
closed = 1;
nodes = (
"111 672 LINE",
"221 664 LINE",
"216 671 LINE",
"115 3 LINE SMOOTH",
"103 -73 OFFCURVE",
"65 -105 OFFCURVE",
"-8 -105 CURVE SMOOTH",
"-21 -105 OFFCURVE",
"-31 -104 OFFCURVE",
"-42 -103 CURVE",
"-47 -122 LINE",
"-35 -123 OFFCURVE",
"-23 -124 OFFCURVE",
"-10 -124 CURVE SMOOTH",
"68 -124 OFFCURVE",
"120 -90 OFFCURVE",
"134 3 CURVE SMOOTH",
"235 671 LINE",
"227 663 LINE",
"331 677 LINE",
"333 692 LINE",
"113 687 LINE"
);
}
);
};
guideLines = (
{
angle = -99;
position = "{185, 382}";
}
);
layerId = "075BA79B-D813-4287-A9DD-CCAF2D535ED3";
paths = (
{
closed = 1;
nodes = (
"117 672 LINE",
"228 663 LINE",
"221 671 LINE",
"116 8 LINE SMOOTH",
"110 -32 OFFCURVE",
"94 -105 OFFCURVE",
"-9 -105 CURVE SMOOTH",
"-22 -105 OFFCURVE",
"-32 -104 OFFCURVE",
"-43 -103 CURVE",
"-46 -121 LINE",
"-32 -123 OFFCURVE",
"-19 -124 OFFCURVE",
"-7 -124 CURVE SMOOTH",
"111 -124 OFFCURVE",
"130 -32 OFFCURVE",
"136 9 CURVE SMOOTH",
"241 671 LINE",
"233 663 LINE",
"338 677 LINE",
"340 692 LINE",
"119 687 LINE"
);
}
);
width = 324;
},
{
anchors = (
{
name = bottom;
position = "{131, 0}";
},
{
name = top;
position = "{243, 710}";
}
);
background = {
paths = (
{
closed = 1;
nodes = (
"64 605 LINE",
"142 573 LINE",
"126 610 LINE",
"43 57 LINE SMOOTH",
"38 26 OFFCURVE",
"28 -38 OFFCURVE",
"-58 -38 CURVE SMOOTH",
"-69 -38 OFFCURVE",
"-83 -37 OFFCURVE",
"-99 -34 CURVE",
"-136 -177 LINE",
"-101 -183 OFFCURVE",
"-68 -186 OFFCURVE",
"-41 -186 CURVE SMOOTH",
"201 -186 OFFCURVE",
"235 36 OFFCURVE",
"253 158 CURVE SMOOTH",
"321 610 LINE",
"296 570 LINE",
"379 612 LINE",
"394 710 LINE",
"79 705 LINE"
);
}
);
};
guideLines = (
{
angle = -99;
position = "{192, 382}";
}
);
layerId = "927AED37-E9E6-4F96-A08E-421C3785EFC6";
paths = (
{
closed = 1;
nodes = (
"73 605 LINE",
"146 571 LINE",
"128 600 LINE",
"42 63 LINE SMOOTH",
"36 25 OFFCURVE",
"26 -38 OFFCURVE",
"-58 -38 CURVE SMOOTH",
"-69 -38 OFFCURVE",
"-81 -37 OFFCURVE",
"-92 -34 CURVE",
"-125 -177 LINE",
"-96 -183 OFFCURVE",
"-67 -186 OFFCURVE",
"-38 -186 CURVE SMOOTH",
"125 -186 OFFCURVE",
"216 -87 OFFCURVE",
"247 108 CURVE SMOOTH",
"325 600 LINE",
"303 572 LINE",
"386 610 LINE",
"402 710 LINE",
"89 705 LINE"
);
}
);
width = 348;
},
{
anchors = (
{
name = bottom;
position = "{122, 0}";
},
{
name = top;
position = "{229, 691}";
}
);
associatedMasterId = "075BA79B-D813-4287-A9DD-CCAF2D535ED3";
background = {
paths = (
{
closed = 1;
nodes = (
"340 692 LINE",
"128 687 LINE",
"126 672 LINE",
"227 663 LINE",
"222 671 LINE",
"119 21 LINE",
"139 21 LINE",
"242 671 LINE",
"233 663 LINE",
"338 677 LINE"
);
},
{
closed = 0;
nodes = (
"121 36 LINE SMOOTH",
"104 -69 OFFCURVE",
"69 -105 OFFCURVE",
"-14 -105 CURVE SMOOTH",
"-22 -105 OFFCURVE",
"-32 -105 OFFCURVE",
"-42 -104 CURVE",
"-45 -122 LINE",
"-33 -123 OFFCURVE",
"-23 -124 OFFCURVE",
"-10 -124 CURVE SMOOTH",
"81 -124 OFFCURVE",
"123 -74 OFFCURVE",
"141 38 CURVE SMOOTH"
);
}
);
};
layerId = "24C54765-D6BF-40CD-99DC-CEF862384CC2";
name = "Aug 6 17, 14:50";
paths = (
{
closed = 1;
nodes = (
"118 672 LINE",
"229 663 LINE",
"222 671 LINE",
"116 4 LINE SMOOTH",
"103 -78 OFFCURVE",
"60 -105 OFFCURVE",
"-14 -105 CURVE SMOOTH",
"-42 -105 LINE",
"-46 -122 LINE",
"-34 -123 OFFCURVE",
"-23 -124 OFFCURVE",
"-10 -124 CURVE SMOOTH",
"52 -124 OFFCURVE",
"119 -105 OFFCURVE",
"136 2 CURVE SMOOTH",
"242 671 LINE",
"234 663 LINE",
"339 677 LINE",
"341 692 LINE",
"120 687 LINE"
);
}
);
width = 332;
},
{
anchors = (
{
name = bottom;
position = "{123, 0}";
},
{
name = top;
position = "{237, 710}";
}
);
associatedMasterId = "927AED37-E9E6-4F96-A08E-421C3785EFC6";
background = {
paths = (
{
closed = 1;
nodes = (
"70 605 LINE",
"143 571 LINE",
"125 600 LINE",
"39 63 LINE SMOOTH",
"27 -13 OFFCURVE",
"-9 -40 OFFCURVE",
"-62 -40 CURVE SMOOTH",
"-103 -40 LINE",
"-135 -175 LINE",
"-124 -177 OFFCURVE",
"-96 -185 OFFCURVE",
"-36 -185 CURVE SMOOTH",
"172 -185 OFFCURVE",
"216 -67 OFFCURVE",
"251 152 CURVE SMOOTH",
"322 600 LINE",
"300 572 LINE",
"383 610 LINE",
"399 710 LINE",
"86 705 LINE"
);
}
);
};
layerId = "2558582E-099D-4C8A-84CC-6E1E2576CF60";
name = "Aug 6 17, 14:54";
paths = (
{
closed = 1;
nodes = (
"70 605 LINE",
"143 571 LINE",
"125 600 LINE",
"39 63 LINE SMOOTH",
"27 -13 OFFCURVE",
"-9 -40 OFFCURVE",
"-62 -40 CURVE SMOOTH",
"-103 -40 LINE",
"-135 -175 LINE",
"-94 -182 OFFCURVE",
"-58 -185 OFFCURVE",
"-26 -185 CURVE SMOOTH",
"156 -185 OFFCURVE",
"214 -79 OFFCURVE",
"248 132 CURVE SMOOTH",
"322 600 LINE",
"300 572 LINE",
"383 610 LINE",
"399 710 LINE",
"86 705 LINE"
);
}
);
width = 341;
}
);
leftKerningGroup = J;
rightKerningGroup = U;
unicode = 004A;
},
{
glyphname = K;
layers = (
{
anchors = (
{
name = bottom;
position = "{318, 0}";
},
{
name = top;
position = "{412, 692}";
}
);
background = {
anchors = (
{
name = bottom;
position = "{318, 0}";
},
{
name = top;
position = "{412, 692}";
}
);
paths = (
{
closed = 1;
nodes = (
"339 364 LINE",
"339 353 LINE",
"592 671 LINE",
"580 664 LINE",
"681 678 LINE",
"683 693 LINE",
"475 688 LINE",
"473 673 LINE",
"574 665 LINE",
"570 671 LINE",
"321 358 LINE",
"334 364 LINE",
"189 364 LINE",
"194 356 LINE",
"244 672 LINE",
"236 663 LINE",
"341 677 LINE",
"343 692 LINE",
"130 687 LINE",
"128 672 LINE",
"230 663 LINE",
"224 672 LINE",
"121 21 LINE",
"130 29 LINE",
"24 15 LINE",
"22 0 LINE",
"234 0 LINE",
"236 15 LINE",
"136 29 LINE",
"141 21 LINE",
"194 355 LINE",
"186 345 LINE",
"336 345 LINE",
"325 350 LINE",
"513 0 LINE",
"608 0 LINE",
"610 15 LINE",
"514 29 LINE",
"523 23 LINE"
);
}
);
};
layerId = "075BA79B-D813-4287-A9DD-CCAF2D535ED3";
paths = (
{
closed = 1;
nodes = (
"339 364 LINE",
"339 353 LINE",
"592 670 LINE",
"580 663 LINE",
"681 677 LINE",
"683 692 LINE",
"475 687 LINE",
"473 672 LINE",
"574 664 LINE",
"570 670 LINE",
"321 358 LINE",
"334 364 LINE",
"189 364 LINE",
"194 356 LINE",
"244 672 LINE",
"236 663 LINE",
"341 677 LINE",
"343 692 LINE",
"130 686 LINE",
"128 671 LINE",
"230 663 LINE",
"224 672 LINE",
"121 21 LINE",
"130 29 LINE",
"24 15 LINE",
"22 0 LINE",
"234 0 LINE",
"236 15 LINE",
"136 29 LINE",
"141 21 LINE",
"194 355 LINE",
"186 345 LINE",
"336 345 LINE",
"325 350 LINE",
"513 0 LINE",
"616 0 LINE",
"618 15 LINE",
"514 28 LINE",
"523 23 LINE"
);
}
);
width = 676;
},
{
anchors = (
{
name = bottom;
position = "{332, 0}";
},
{
name = top;
position = "{434, 710}";
}
);
background = {
anchors = (
{
name = bottom;
position = "{332, 0}";
},
{
name = top;
position = "{424, 710}";
}
);
paths = (
{
closed = 1;
nodes = (
"491 395 LINE",
"487 346 LINE",
"687 607 LINE",
"641 574 LINE",
"727 610 LINE",
"742 710 LINE",
"456 705 LINE",
"441 605 LINE",
"505 580 LINE",
"494 609 LINE",
"346 404 LINE",
"401 435 LINE",
"284 435 LINE",
"305 404 LINE",
"339 616 LINE",
"311 573 LINE",
"393 612 LINE",
"409 710 LINE",
"100 705 LINE",
"84 605 LINE",
"158 571 LINE",
"139 600 LINE",
"60 105 LINE",
"85 132 LINE",
"4 100 LINE",
"-12 0 LINE",
"296 0 LINE",
"312 100 LINE",
"243 134 LINE",
"257 105 LINE",
"293 329 LINE",
"260 290 LINE",
"361 290 LINE",
"319 329 LINE",
"459 0 LINE",
"652 0 LINE",
"667 100 LINE",
"596 133 LINE",
"639 91 LINE"
);
}
);
};
layerId = "927AED37-E9E6-4F96-A08E-421C3785EFC6";
paths = (
{
closed = 1;
nodes = (
"491 395 LINE",
"492 344 LINE",
"687 607 LINE",
"641 574 LINE",
"727 610 LINE",
"742 710 LINE",
"456 705 LINE",
"441 605 LINE",
"505 580 LINE",
"489 609 LINE",
"346 404 LINE",
"401 435 LINE",
"284 435 LINE",
"305 404 LINE",
"339 616 LINE",
"311 573 LINE",
"393 612 LINE",
"409 710 LINE",
"100 705 LINE",
"84 605 LINE",
"158 571 LINE",
"139 600 LINE",
"60 105 LINE",
"85 132 LINE",
"4 100 LINE",
"-12 0 LINE",
"296 0 LINE",
"312 100 LINE",
"243 134 LINE",
"257 105 LINE",
"293 329 LINE",
"260 290 LINE",
"361 290 LINE",
"319 329 LINE",
"459 0 LINE",
"652 0 LINE",
"667 100 LINE",
"596 133 LINE",
"639 91 LINE"
);
}
);
width = 710;
}
);
leftKerningGroup = H;
leftMetricsKey = H;
rightKerningGroup = X;
unicode = 004B;
},
{
glyphname = L;
layers = (
{
anchors = (
{
name = bottom;
position = "{275, 0}";
},
{
name = center;
position = "{394, 357}";
},
{
name = top;
position = "{238, 692}";
},
{
name = topright;
position = "{448, 692}";
}
);
background = {
anchors = (
{
name = bottom;
position = "{271, 0}";
},
{
name = center;
position = "{394, 357}";
},
{
name = top;
position = "{267, 692}";
},
{
name = topright;
position = "{515, 692}";
}
);
paths = (
{
closed = 1;
nodes = (
"431 12 LINE",
"440 19 LINE",
"137 19 LINE",
"143 12 LINE",
"242 670 LINE",
"234 662 LINE",
"352 677 LINE",
"355 692 LINE",
"130 687 LINE",
"128 672 LINE",
"228 662 LINE",
"223 670 LINE",
"125 21 LINE",
"133 29 LINE",
"29 15 LINE",
"27 0 LINE",
"458 0 LINE",
"480 145 LINE",
"466 145 LINE"
);
}
);
};
guideLines = (
{
angle = -99;
position = "{494, 231}";
},
{
angle = -99;
position = "{165, 231}";
}
);
layerId = "075BA79B-D813-4287-A9DD-CCAF2D535ED3";
paths = (
{
closed = 1;
nodes = (
"423 12 LINE",
"432 19 LINE",
"134 19 LINE",
"139 9 LINE",
"244 671 LINE",
"236 663 LINE",
"355 677 LINE",
"357 692 LINE",
"130 687 LINE",
"128 672 LINE",
"230 663 LINE",
"224 670 LINE",
"121 21 LINE",
"130 29 LINE",
"24 15 LINE",
"22 0 LINE",
"449 0 LINE",
"472 145 LINE",
"458 145 LINE"
);
}
);
width = 523;
},
{
anchors = (
{
name = bottom;
position = "{252, 0}";
},
{
name = center;
position = "{435, 384}";
},
{
name = top;
position = "{255, 710}";
},
{
name = topright;
position = "{459, 710}";
}
);
background = {
anchors = (
{
name = bottom;
position = "{252, 0}";
},
{
name = center;
position = "{438, 384}";
},
{
name = top;
position = "{303, 710}";
},
{
name = topright;
position = "{588, 710}";
}
);
components = (
{
name = I;
transform = "{1, 0, 0, 1, -2, 0}";
}
);
};
guideLines = (
{
angle = -99;
position = "{24, 231}";
},
{
angle = -99;
position = "{529, 231}";
},
{
angle = -99;
position = "{179, 231}";
}
);
layerId = "927AED37-E9E6-4F96-A08E-421C3785EFC6";
paths = (
{
closed = 1;
nodes = (
"369 114 LINE",
"400 145 LINE",
"238 145 LINE",
"257 105 LINE",
"336 600 LINE",
"314 572 LINE",
"397 610 LINE",
"413 710 LINE",
"100 705 LINE",
"84 605 LINE",
"158 571 LINE",
"139 600 LINE",
"60 105 LINE",
"84 131 LINE",
"4 100 LINE",
"-12 0 LINE",
"492 0 LINE",
"530 245 LINE",
"414 245 LINE"
);
}
);
width = 555;
}
);
leftKerningGroup = H;
leftMetricsKey = H;
rightKerningGroup = L;
unicode = 004C;
},
{
glyphname = Lcaron;
layers = (
{
background = {
paths = (
{
closed = 1;
nodes = (
"361 532 LINE",
"412 590 OFFCURVE",
"441 645 OFFCURVE",
"449 695 CURVE",
"418 690 LINE",
"410 640 OFFCURVE",
"392 597 OFFCURVE",
"347 536 CURVE"
);
},
{
closed = 1;
nodes = (
"422 12 LINE",
"430 19 LINE",
"127 19 LINE",
"133 12 LINE",
"237 670 LINE",
"229 662 LINE",
"348 677 LINE",
"350 692 LINE",
"126 687 LINE",
"123 672 LINE",
"224 662 LINE",
"218 670 LINE",
"115 21 LINE",
"123 29 LINE",
"19 15 LINE",
"17 0 LINE",
"448 0 LINE",
"471 145 LINE",
"457 145 LINE"
);
}
);
};
components = (
{
name = L;
},
{
name = caroncomb.alt;
transform = "{1, 0, 0, 1, 267, -70}";
}
);
layerId = "075BA79B-D813-4287-A9DD-CCAF2D535ED3";
width = 523;
},
{
background = {
paths = (
{
closed = 1;
nodes = (
"485 483 LINE",
"558 561 OFFCURVE",
"601 641 OFFCURVE",
"614 714 CURVE",
"479 704 LINE",
"473 647 OFFCURVE",
"466 598 OFFCURVE",
"412 518 CURVE"
);
},
{
closed = 1;
nodes = (
"366 114 LINE",
"396 145 LINE",
"235 145 LINE",
"259 115 LINE",
"337 610 LINE",
"313 573 LINE",
"394 610 LINE",
"410 710 LINE",
"100 705 LINE",
"84 605 LINE",
"156 573 LINE",
"142 610 LINE",
"60 95 LINE",
"86 132 LINE",
"4 100 LINE",
"-12 0 LINE",
"488 0 LINE",
"525 235 LINE",
"411 235 LINE"
);
}
);
};
components = (
{
name = L;
},
{
name = caroncomb.alt;
transform = "{1, 0, 0, 1, 347, -70}";
}
);
guideLines = (
{
angle = 90;
position = "{438, 569}";
}
);
layerId = "927AED37-E9E6-4F96-A08E-421C3785EFC6";
width = 555;
}
);
leftKerningGroup = H;
leftMetricsKey = L;
rightKerningGroup = Lcaron;
unicode = 013D;
},
{
glyphname = Lslash;
layers = (
{
background = {
components = (
{
name = L;
transform = "{1, 0, 0, 1, 20, 0}";
}
);
paths = (
{
closed = 1;
nodes = (
"82 245 LINE",
"415 448 LINE",
"409 465 LINE",
"76 262 LINE"
);
}
);
};
guideLines = (
{
angle = -99;
position = "{113, 484}";
}
);
layerId = "075BA79B-D813-4287-A9DD-CCAF2D535ED3";
paths = (
{
closed = 1;
nodes = (
"82 245 LINE",
"415 448 LINE",
"409 465 LINE",
"76 262 LINE"
);
},
{
closed = 1;
nodes = (
"438 12 LINE",
"447 19 LINE",
"149 19 LINE",
"154 9 LINE",
"259 671 LINE",
"251 663 LINE",
"370 677 LINE",
"372 692 LINE",
"145 687 LINE",
"143 672 LINE",
"245 663 LINE",
"239 670 LINE",
"136 21 LINE",
"145 29 LINE",
"39 15 LINE",
"37 0 LINE",
"464 0 LINE",
"487 145 LINE",
"473 145 LINE"
);
}
);
width = 538;
},
{
background = {
paths = (
{
closed = 1;
nodes = (
"50 220 LINE",
"488 414 LINE",
"461 515 LINE",
"23 321 LINE"
);
},
{
closed = 1;
nodes = (
"411 114 LINE",
"442 145 LINE",
"273 145 LINE",
"298 115 LINE",
"376 610 LINE",
"352 573 LINE",
"439 610 LINE",
"455 710 LINE",
"126 705 LINE",
"111 605 LINE",
"187 573 LINE",
"171 610 LINE",
"90 95 LINE",
"117 132 LINE",
"31 100 LINE",
"15 0 LINE",
"540 0 LINE",
"579 245 LINE",
"459 245 LINE"
);
}
);
};
guideLines = (
{
angle = -0.7948;
position = "{62, 542}";
},
{
angle = -99;
position = "{89, 484}";
}
);
layerId = "927AED37-E9E6-4F96-A08E-421C3785EFC6";
paths = (
{
closed = 1;
nodes = (
"52 223 LINE",
"490 417 LINE",
"457 515 LINE",
"19 321 LINE"
);
},
{
closed = 1;
nodes = (
"400 114 LINE",
"431 145 LINE",
"269 145 LINE",
"288 105 LINE",
"367 600 LINE",
"345 572 LINE",
"428 610 LINE",
"444 710 LINE",
"127 705 LINE",
"111 605 LINE",
"189 571 LINE",
"170 600 LINE",
"91 105 LINE",
"115 131 LINE",
"31 100 LINE",
"15 0 LINE",
"523 0 LINE",
"565 245 LINE",
"449 245 LINE"
);
}
);
width = 589;
}
);
leftKerningGroup = H;
rightKerningGroup = L;
rightMetricsKey = L;
unicode = 0141;
},
{
glyphname = M;
layers = (
{
anchors = (
{
name = bottom;
position = "{401, 0}";
},
{
name = top;
position = "{510, 692}";
}
);
background = {
paths = (
{
closed = 1;
nodes = (
"889 692 LINE",
"677 687 LINE",
"675 672 LINE",
"776 663 LINE",
"771 671 LINE",
"668 21 LINE",
"676 29 LINE",
"571 15 LINE",
"569 0 LINE",
"780 0 LINE",
"782 15 LINE",
"682 29 LINE",
"687 21 LINE",
"790 671 LINE",
"782 663 LINE",
"887 677 LINE"
);
}
);
};
guideLines = (
{
angle = -99;
position = "{720, 231}";
},
{
angle = -99;
position = "{701, 231}";
}
);
layerId = "075BA79B-D813-4287-A9DD-CCAF2D535ED3";
paths = (
{
closed = 1;
nodes = (
"890 692 LINE",
"767 687 LINE",
"425 197 LINE",
"431 197 LINE",
"251 692 LINE",
"130 687 LINE",
"128 672 LINE",
"230 663 LINE",
"224 671 LINE",
"121 21 LINE",
"130 29 LINE",
"24 15 LINE",
"22 0 LINE",
"234 0 LINE",
"236 15 LINE",
"135 29 LINE",
"140 21 LINE",
"242 665 LINE",
"239 664 LINE",
"416 178 LINE",
"436 182 LINE",
"772 661 LINE",
"770 664 LINE",
"668 21 LINE",
"676 29 LINE",
"571 15 LINE",
"569 0 LINE",
"781 0 LINE",
"783 15 LINE",
"682 29 LINE",
"688 21 LINE",
"791 671 LINE",
"781 663 LINE",
"888 677 LINE"
);
}
);
width = 884;
},
{
anchors = (
{
name = bottom;
position = "{372, 0}";
},
{
name = top;
position = "{488, 710}";
}
);
background = {
anchors = (
{
name = bottom;
position = "{375, 0}";
},
{
name = top;
position = "{488, 710}";
}
);
components = (
{
name = I;
transform = "{1, 0, 0, 1, -39, 0}";
}
);
};
guideLines = (
{
angle = -99;
position = "{24, 231}";
},
{
angle = -99;
position = "{416, 264}";
}
);
layerId = "927AED37-E9E6-4F96-A08E-421C3785EFC6";
paths = (
{
closed = 1;
nodes = (
"872 710 LINE",
"596 705 LINE",
"426 383 LINE",
"455 383 LINE",
"383 710 LINE",
"100 705 LINE",
"84 605 LINE",
"159 571 LINE",
"139 600 LINE",
"60 105 LINE",
"92 134 LINE",
"4 100 LINE",
"-12 0 LINE",
"261 0 LINE",
"277 100 LINE",
"208 132 LINE",
"218 105 LINE",
"281 497 LINE",
"244 496 LINE",
"329 178 LINE",
"449 183 LINE",
"631 495 LINE",
"598 496 LINE",
"534 95 LINE",
"572 135 LINE",
"480 100 LINE",
"464 0 LINE",
"759 0 LINE",
"775 100 LINE",
"706 132 LINE",
"716 105 LINE",
"795 605 LINE",
"773 572 LINE",
"856 610 LINE"
);
}
);
width = 830;
}
);
leftKerningGroup = H;
rightKerningGroup = H;
unicode = 004D;
},
{
glyphname = N;
layers = (
{
anchors = (
{
name = bottom;
position = "{357, 0}";
},
{
name = top;
position = "{466, 692}";
}
);
background = {
paths = (
{
closed = 1;
nodes = (
"342 692 LINE",
"130 687 LINE",
"128 672 LINE",
"229 663 LINE",
"224 671 LINE",
"121 21 LINE",
"129 29 LINE",
"24 15 LINE",
"22 0 LINE",
"233 0 LINE",
"235 15 LINE",
"135 29 LINE",
"140 21 LINE",
"243 671 LINE",
"235 663 LINE",
"340 677 LINE"
);
},
{
closed = 1;
nodes = (
"806 692 LINE",
"594 687 LINE",
"592 672 LINE",
"693 663 LINE",
"688 671 LINE",
"585 21 LINE",
"593 29 LINE",
"488 15 LINE",
"486 0 LINE",
"697 0 LINE",
"699 15 LINE",
"599 29 LINE",
"604 21 LINE",
"707 671 LINE",
"699 663 LINE",
"804 677 LINE"
);
}
);
};
guideLines = (
{
angle = 81.023;
position = "{410, 336}";
}
);
layerId = "075BA79B-D813-4287-A9DD-CCAF2D535ED3";
paths = (
{
closed = 1;
nodes = (
"584 672 LINE",
"685 663 LINE",
"680 672 LINE",
"579 30 LINE",
"582 31 LINE",
"250 692 LINE",
"130 687 LINE",
"128 672 LINE",
"229 663 LINE",
"224 671 LINE",
"121 21 LINE",
"129 29 LINE",
"24 15 LINE",
"22 0 LINE",
"233 0 LINE",
"235 15 LINE",
"135 29 LINE",
"140 21 LINE",
"243 670 LINE",
"239 669 LINE",
"575 0 LINE",
"593 0 LINE",
"699 671 LINE",
"691 663 LINE",
"796 677 LINE",
"798 692 LINE",
"586 687 LINE"
);
}
);
width = 781;
},
{
anchors = (
{
name = bottom;
position = "{329, 0}";
},
{
name = top;
position = "{442, 710}";
}
);
background = {
anchors = (
{
name = bottom;
position = "{328, 0}";
},
{
name = top;
position = "{445, 710}";
}
);
paths = (
{
closed = 1;
nodes = (
"376 710 LINE",
"100 705 LINE",
"84 605 LINE",
"158 571 LINE",
"139 600 LINE",
"60 105 LINE",
"84 131 LINE",
"4 100 LINE",
"-12 0 LINE",
"263 0 LINE",
"279 100 LINE",
"210 132 LINE",
"220 105 LINE",
"299 600 LINE",
"277 572 LINE",
"360 610 LINE"
);
},
{
closed = 1;
nodes = (
"784 710 LINE",
"508 705 LINE",
"492 605 LINE",
"566 571 LINE",
"547 600 LINE",
"468 105 LINE",
"492 131 LINE",
"412 100 LINE",
"396 0 LINE",
"671 0 LINE",
"687 100 LINE",
"618 132 LINE",
"628 105 LINE",
"707 600 LINE",
"685 572 LINE",
"768 610 LINE"
);
}
);
};
guideLines = (
{
angle = 81.023;
position = "{382, 336}";
}
);
layerId = "927AED37-E9E6-4F96-A08E-421C3785EFC6";
paths = (
{
closed = 1;
nodes = (
"492 605 LINE",
"566 571 LINE",
"547 600 LINE",
"488 228 LINE",
"512 228 LINE",
"383 710 LINE",
"100 705 LINE",
"84 605 LINE",
"158 571 LINE",
"139 600 LINE",
"60 105 LINE",
"84 131 LINE",
"4 100 LINE",
"-12 0 LINE",
"260 0 LINE",
"276 100 LINE",
"210 132 LINE",
"220 105 LINE",
"282 495 LINE",
"260 495 LINE",
"397 0 LINE",
"611 0 LINE",
"707 600 LINE",
"685 572 LINE",
"763 610 LINE",
"779 710 LINE",
"508 705 LINE"
);
}
);
width = 730;
}
);
leftKerningGroup = H;
rightKerningGroup = H;
unicode = 004E;
},
{
glyphname = Eng;
layers = (
{
background = {
components = (
{
name = j;
transform = "{1, 0, 0, 1, 497, 0}";
}
);
};
layerId = "075BA79B-D813-4287-A9DD-CCAF2D535ED3";
paths = (
{
closed = 1;
nodes = (
"561 -77 LINE SMOOTH",
"544 -182 OFFCURVE",
"513 -217 OFFCURVE",
"430 -217 CURVE SMOOTH",
"422 -217 OFFCURVE",
"412 -217 OFFCURVE",
"402 -216 CURVE",
"399 -234 LINE",
"411 -235 OFFCURVE",
"421 -236 OFFCURVE",
"434 -236 CURVE SMOOTH",
"525 -236 OFFCURVE",
"563 -187 OFFCURVE",
"581 -75 CURVE SMOOTH",
"699 671 LINE",
"691 663 LINE",
"796 677 LINE",
"798 692 LINE",
"586 687 LINE",
"584 672 LINE",
"685 663 LINE",
"680 672 LINE",
"579 30 LINE",
"582 31 LINE",
"250 692 LINE",
"130 687 LINE",
"128 672 LINE",
"229 663 LINE",
"224 671 LINE",
"121 21 LINE",
"129 29 LINE",
"24 15 LINE",
"22 0 LINE",
"233 0 LINE",
"235 15 LINE",
"135 29 LINE",
"140 21 LINE",
"243 670 LINE",
"239 669 LINE",
"577 -4 LINE",
"578 26 LINE"
);
}
);
width = 782;
},
{
background = {
components = (
{
name = j;
transform = "{1, 0, 0, 1, 391, 0}";
}
);
};
layerId = "927AED37-E9E6-4F96-A08E-421C3785EFC6";
paths = (
{
closed = 1;
nodes = (
"424 -13 LINE SMOOTH",
"415 -76 OFFCURVE",
"375 -105 OFFCURVE",
"320 -105 CURVE SMOOTH",
"308 -105 OFFCURVE",
"295 -104 OFFCURVE",
"281 -101 CURVE",
"250 -235 LINE",
"282 -242 OFFCURVE",
"312 -245 OFFCURVE",
"340 -245 CURVE SMOOTH",
"489 -245 OFFCURVE",
"587 -153 OFFCURVE",
"616 30 CURVE SMOOTH",
"707 600 LINE",
"685 572 LINE",
"763 610 LINE",
"779 710 LINE",
"508 705 LINE",
"492 605 LINE",
"566 571 LINE",
"547 600 LINE",
"488 228 LINE",
"525 228 LINE",
"380 710 LINE",
"100 705 LINE",
"84 605 LINE",
"158 571 LINE",
"139 600 LINE",
"60 105 LINE",
"84 131 LINE",
"4 100 LINE",
"-12 0 LINE",
"260 0 LINE",
"276 100 LINE",
"210 132 LINE",
"220 105 LINE",
"282 495 LINE",
"258 495 LINE",
"436 -53 LINE",
"429 22 LINE"
);
}
);
width = 725;
},
{
associatedMasterId = "927AED37-E9E6-4F96-A08E-421C3785EFC6";
background = {
paths = (
{
closed = 1;
nodes = (
"506 -244 OFFCURVE",
"581 -158 OFFCURVE",
"606 0 CURVE SMOOTH",
"701 611 LINE",
"669 570 LINE",
"770 610 LINE",
"785 710 LINE",
"492 705 LINE",
"477 605 LINE",
"564 570 LINE",
"542 610 LINE",
"488 258 LINE",
"511 258 LINE",
"368 710 LINE",
"78 705 LINE",
"63 605 LINE",
"141 574 LINE",
"129 610 LINE",
"51 95 LINE",
"84 135 LINE",
"-18 100 LINE",
"-33 0 LINE",
"259 0 LINE",
"275 100 LINE",
"187 135 LINE",
"209 95 LINE",
"266 465 LINE",
"244 465 LINE",
"421 -21 LINE",
"418 35 LINE",
"412 -5 LINE SMOOTH",
"402 -69 OFFCURVE",
"358 -99 OFFCURVE",
"306 -99 CURVE SMOOTH",
"265 -99 LINE",
"233 -234 LINE",
"245 -236 OFFCURVE",
"272 -244 OFFCURVE",
"332 -244 CURVE SMOOTH"
);
},
{
closed = 0;
nodes = (
"411 -17 LINE SMOOTH",
"403 -69 OFFCURVE",
"376 -105 OFFCURVE",
"317 -105 CURVE SMOOTH"
);
}
);
};
layerId = "355B9817-8392-47E4-A4FA-850018B6D69A";
name = "Aug 4 17, 20:03";
paths = (
{
closed = 1;
nodes = (
"412 -69 OFFCURVE",
"376 -105 OFFCURVE",
"317 -105 CURVE SMOOTH",
"302 -105 OFFCURVE",
"290 -103 OFFCURVE",
"276 -101 CURVE",
"245 -235 LINE",
"274 -241 OFFCURVE",
"297 -245 OFFCURVE",
"330 -245 CURVE SMOOTH",
"457 -245 OFFCURVE",
"577 -183 OFFCURVE",
"611 30 CURVE SMOOTH",
"702 600 LINE",
"680 572 LINE",
"758 610 LINE",
"774 710 LINE",
"503 705 LINE",
"487 605 LINE",
"561 571 LINE",
"542 600 LINE",
"483 228 LINE",
"511 228 LINE",
"378 710 LINE",
"95 705 LINE",
"79 605 LINE",
"153 571 LINE",
"134 600 LINE",
"55 105 LINE",
"79 131 LINE",
"-1 100 LINE",
"-17 0 LINE",
"255 0 LINE",
"271 100 LINE",
"205 132 LINE",
"215 105 LINE",
"277 495 LINE",
"255 495 LINE",
"420 -53 LINE",
"414 14 LINE"
);
}
);
width = 716;
}
);
leftKerningGroup = H;
leftMetricsKey = N;
rightKerningGroup = U;
rightMetricsKey = J;
unicode = 014A;
},
{
glyphname = O;
layers = (
{
anchors = (
{
name = bottom;
position = "{322, 0}";
},
{
name = center;
position = "{382, 346}";
},
{
name = ogonek;
position = "{381, 0}";
},
{
name = top;
position = "{459, 692}";
},
{
name = topleft;
position = "{85, 692}";
},
{
name = topright;
position = "{619, 692}";
}
);
background = {
paths = (
{
closed = 1;
nodes = (
"227 698 OFFCURVE",
"86 479 OFFCURVE",
"86 256 CURVE SMOOTH",
"86 79 OFFCURVE",
"193 -6 OFFCURVE",
"323 -6 CURVE SMOOTH",
"534 -6 OFFCURVE",
"678 205 OFFCURVE",
"678 435 CURVE SMOOTH",
"678 615 OFFCURVE",
"570 698 OFFCURVE",
"443 698 CURVE SMOOTH"
);
},
{
closed = 1;
nodes = (
"561 678 OFFCURVE",
"656 596 OFFCURVE",
"656 431 CURVE SMOOTH",
"656 219 OFFCURVE",
"523 14 OFFCURVE",
"325 14 CURVE SMOOTH",
"205 14 OFFCURVE",
"108 96 OFFCURVE",
"108 261 CURVE SMOOTH",
"108 473 OFFCURVE",
"243 678 OFFCURVE",
"441 678 CURVE SMOOTH"
);
}
);
};
guideLines = (
{
angle = 90;
position = "{846, 854}";
},
{
angle = -99;
position = "{432, 661}";
}
);
layerId = "075BA79B-D813-4287-A9DD-CCAF2D535ED3";
paths = (
{
closed = 1;
nodes = (
"537 -6 OFFCURVE",
"678 216 OFFCURVE",
"678 430 CURVE SMOOTH",
"678 616 OFFCURVE",
"571 698 OFFCURVE",
"441 698 CURVE SMOOTH",
"230 698 OFFCURVE",
"86 484 OFFCURVE",
"86 264 CURVE SMOOTH",
"86 73 OFFCURVE",
"194 -6 OFFCURVE",
"322 -6 CURVE SMOOTH"
);
},
{
closed = 1;
nodes = (
"203 14 OFFCURVE",
"107 93 OFFCURVE",
"107 266 CURVE SMOOTH",
"107 470 OFFCURVE",
"241 678 OFFCURVE",
"438 678 CURVE SMOOTH",
"559 678 OFFCURVE",
"657 599 OFFCURVE",
"657 426 CURVE SMOOTH",
"657 222 OFFCURVE",
"521 14 OFFCURVE",
"324 14 CURVE SMOOTH"
);
}
);
width = 736;
},
{
anchors = (
{
name = bottom;
position = "{310, 0}";
},
{
name = center;
position = "{367, 355}";
},
{
name = ogonek;
position = "{426, 0}";
},
{
name = top;
position = "{436, 710}";
},
{
name = topleft;
position = "{101, 710}";
},
{
name = topright;
position = "{608, 710}";
}
);
background = {
paths = (
{
closed = 1;
nodes = (
"562 -15 OFFCURVE",
"699 188 OFFCURVE",
"699 450 CURVE SMOOTH",
"699 624 OFFCURVE",
"601 725 OFFCURVE",
"421 725 CURVE SMOOTH",
"171 725 OFFCURVE",
"35 522 OFFCURVE",
"35 260 CURVE SMOOTH",
"35 84 OFFCURVE",
"128 -15 OFFCURVE",
"312 -15 CURVE SMOOTH"
);
},
{
closed = 1;
nodes = (
"271 140 OFFCURVE",
"241 171 OFFCURVE",
"241 246 CURVE SMOOTH",
"241 391 OFFCURVE",
"282 570 OFFCURVE",
"409 570 CURVE SMOOTH",
"464 570 OFFCURVE",
"493 539 OFFCURVE",
"493 464 CURVE SMOOTH",
"493 309 OFFCURVE",
"453 140 OFFCURVE",
"326 140 CURVE SMOOTH"
);
}
);
};
guideLines = (
{
angle = -99;
position = "{415, 661}";
}
);
layerId = "927AED37-E9E6-4F96-A08E-421C3785EFC6";
paths = (
{
closed = 1;
nodes = (
"604 -15 OFFCURVE",
"700 241 OFFCURVE",
"700 434 CURVE SMOOTH",
"700 616 OFFCURVE",
"615 725 OFFCURVE",
"424 725 CURVE SMOOTH",
"133 725 OFFCURVE",
"36 471 OFFCURVE",
"36 277 CURVE SMOOTH",
"36 96 OFFCURVE",
"120 -15 OFFCURVE",
"312 -15 CURVE SMOOTH"
);
},
{
closed = 1;
nodes = (
"275 140 OFFCURVE",
"244 176 OFFCURVE",
"244 272 CURVE SMOOTH",
"244 364 OFFCURVE",
"272 570 OFFCURVE",
"407 570 CURVE SMOOTH",
"462 570 OFFCURVE",
"492 536 OFFCURVE",
"492 442 CURVE SMOOTH",
"492 350 OFFCURVE",
"463 140 OFFCURVE",
"330 140 CURVE SMOOTH"
);
}
);
width = 708;
},
{
anchors = (
{
name = bottom;
position = "{299, 0}";
},
{
name = center;
position = "{356, 355}";
},
{
name = ogonek;
position = "{393, 0}";
},
{
name = top;
position = "{412, 710}";
},
{
name = topleft;
position = "{90, 710}";
},
{
name = topright;
position = "{617, 679}";
}
);
associatedMasterId = "927AED37-E9E6-4F96-A08E-421C3785EFC6";
background = {
anchors = (
{
name = bottom;
position = "{299, 0}";
},
{
name = center;
position = "{356, 355}";
},
{
name = ogonek;
position = "{393, 0}";
},
{
name = top;
position = "{412, 710}";
},
{
name = topleft;
position = "{90, 710}";
},
{
name = topright;
position = "{617, 679}";
}
);
paths = (
{
closed = 1;
nodes = (
"495 -15 OFFCURVE",
"645 133 OFFCURVE",
"682 370 CURVE SMOOTH",
"718 594 OFFCURVE",
"628 725 OFFCURVE",
"422 725 CURVE SMOOTH",
"215 725 OFFCURVE",
"70 595 OFFCURVE",
"30 344 CURVE SMOOTH",
"-6 113 OFFCURVE",
"81 -15 OFFCURVE",
"281 -15 CURVE SMOOTH"
);
},
{
closed = 1;
nodes = (
"239 140 OFFCURVE",
"218 193 OFFCURVE",
"243 351 CURVE SMOOTH",
"271 531 OFFCURVE",
"316 570 OFFCURVE",
"389 570 CURVE SMOOTH",
"469 570 OFFCURVE",
"496 524 OFFCURVE",
"470 362 CURVE SMOOTH",
"441 182 OFFCURVE",
"392 140 OFFCURVE",
"320 140 CURVE SMOOTH"
);
}
);
};
guideLines = (
{
angle = 90;
position = "{548, 764}";
}
);
layerId = "522D3B76-50CC-432F-9713-5836DC30231A";
name = "Jun 27 17, 18:24";
paths = (
{
closed = 1;
nodes = (
"499 -15 OFFCURVE",
"644 127 OFFCURVE",
"680 357 CURVE SMOOTH",
"717 588 OFFCURVE",
"624 725 OFFCURVE",
"413 725 CURVE SMOOTH",
"211 725 OFFCURVE",
"71 601 OFFCURVE",
"32 357 CURVE SMOOTH",
"-5 119 OFFCURVE",
"85 -15 OFFCURVE",
"290 -15 CURVE SMOOTH"
);
},
{
closed = 1;
nodes = (
"234 140 OFFCURVE",
"217 187 OFFCURVE",
"241 338 CURVE SMOOTH",
"270 525 OFFCURVE",
"320 570 OFFCURVE",
"398 570 CURVE SMOOTH",
"474 570 OFFCURVE",
"497 530 OFFCURVE",
"472 375 CURVE SMOOTH",
"442 188 OFFCURVE",
"387 140 OFFCURVE",
"311 140 CURVE SMOOTH"
);
}
);
width = 683;
},
{
anchors = (
{
name = bottom;
position = "{333, 0}";
},
{
name = center;
position = "{388, 346}";
},
{
name = ogonek;
position = "{384, 0}";
},
{
name = top;
position = "{442, 692}";
},
{
name = topleft;
position = "{91, 692}";
},
{
name = topright;
position = "{642, 650}";
}
);
associatedMasterId = "075BA79B-D813-4287-A9DD-CCAF2D535ED3";
guideLines = (
{
angle = 90;
position = "{353, 854}";
},
{
angle = 90;
position = "{852, 854}";
},
{
angle = 90;
position = "{461, 661}";
}
);
layerId = "5B75C816-DD6E-459D-B38C-6193724B8FFF";
name = "Jul 3 17, 17:50";
paths = (
{
closed = 1;
nodes = (
"487 -6 OFFCURVE",
"641 124 OFFCURVE",
"677 356 CURVE SMOOTH",
"713 587 OFFCURVE",
"595 698 OFFCURVE",
"447 698 CURVE SMOOTH",
"292 698 OFFCURVE",
"136 576 OFFCURVE",
"99 342 CURVE SMOOTH",
"61 103 OFFCURVE",
"181 -6 OFFCURVE",
"327 -6 CURVE SMOOTH"
);
},
{
closed = 1;
nodes = (
"191 14 OFFCURVE",
"85 123 OFFCURVE",
"120 341 CURVE SMOOTH",
"156 567 OFFCURVE",
"305 678 OFFCURVE",
"445 678 CURVE SMOOTH",
"583 678 OFFCURVE",
"690 570 OFFCURVE",
"656 354 CURVE SMOOTH",
"621 132 OFFCURVE",
"473 14 OFFCURVE",
"329 14 CURVE SMOOTH"
);
}
);
width = 747;
}
);
leftKerningGroup = O;
rightKerningGroup = O;
unicode = 004F;
},
{
glyphname = Ocircumflexacute;
layers = (
{
background = {
components = (
{
name = O;
},
{
name = circumflexcomb_acutecomb.case;
transform = "{1, 0, 0, 1, 143, 0}";
}
);
};
components = (
{
name = O;
},
{
name = circumflexcomb_acutecomb.case;
transform = "{1, 0, 0, 1, 156, 0}";
}
);
layerId = "075BA79B-D813-4287-A9DD-CCAF2D535ED3";
width = 736;
},
{
background = {
paths = (
{
closed = 1;
nodes = (
"500 -15 OFFCURVE",
"649 133 OFFCURVE",
"687 370 CURVE SMOOTH",
"723 594 OFFCURVE",
"634 725 OFFCURVE",
"429 725 CURVE SMOOTH",
"224 725 OFFCURVE",
"80 595 OFFCURVE",
"40 344 CURVE SMOOTH",
"3 113 OFFCURVE",
"90 -15 OFFCURVE",
"288 -15 CURVE SMOOTH"
);
},
{
closed = 1;
nodes = (
"247 140 OFFCURVE",
"226 193 OFFCURVE",
"251 351 CURVE SMOOTH",
"279 531 OFFCURVE",
"323 570 OFFCURVE",
"396 570 CURVE SMOOTH",
"476 570 OFFCURVE",
"502 524 OFFCURVE",
"476 362 CURVE SMOOTH",
"447 182 OFFCURVE",
"398 140 OFFCURVE",
"327 140 CURVE SMOOTH"
);
},
{
closed = 1;
nodes = (
"508 862 LINE",
"374 864 LINE",
"567 732 LINE",
"641 808 LINE",
"507 961 LINE",
"399 950 LINE",
"232 808 LINE",
"279 732 LINE"
);
},
{
closed = 1;
nodes = (
"841 994 LINE",
"770 1101 LINE",
"580 941 LINE",
"635 859 LINE"
);
}
);
};
components = (
{
name = O;
},
{
name = circumflexcomb_acutecomb.case;
transform = "{1, 0, 0, 1, 131, 0}";
}
);
layerId = "927AED37-E9E6-4F96-A08E-421C3785EFC6";
width = 708;
}
);
leftKerningGroup = O;
rightKerningGroup = O;
unicode = 1ED0;
},
{
glyphname = Ohorn;
layers = (
{
anchors = (
{
name = bottom;
position = "{321, 0}";
},
{
name = top;
position = "{462, 692}";
}
);
background = {
paths = (
{
closed = 1;
nodes = (
"479 -6 OFFCURVE",
"635 123 OFFCURVE",
"670 356 CURVE SMOOTH",
"705 591 OFFCURVE",
"583 698 OFFCURVE",
"440 698 CURVE SMOOTH",
"289 698 OFFCURVE",
"132 581 OFFCURVE",
"96 341 CURVE SMOOTH",
"61 107 OFFCURVE",
"175 -6 OFFCURVE",
"322 -6 CURVE SMOOTH"
);
},
{
closed = 1;
nodes = (
"190 14 OFFCURVE",
"84 121 OFFCURVE",
"117 342 CURVE SMOOTH",
"151 568 OFFCURVE",
"296 678 OFFCURVE",
"436 678 CURVE SMOOTH",
"574 678 OFFCURVE",
"681 570 OFFCURVE",
"649 353 CURVE SMOOTH",
"616 129 OFFCURVE",
"467 14 OFFCURVE",
"326 14 CURVE SMOOTH"
);
},
{
closed = 1;
nodes = (
"657 651 OFFCURVE",
"723 690 OFFCURVE",
"734 751 CURVE SMOOTH",
"737 768 OFFCURVE",
"737 793 OFFCURVE",
"732 821 CURVE",
"711 814 LINE",
"715 790 OFFCURVE",
"716 767 OFFCURVE",
"714 754 CURVE SMOOTH",
"705 698 OFFCURVE",
"639 668 OFFCURVE",
"544 667 CURVE",
"569 648 LINE"
);
}
);
};
layerId = "075BA79B-D813-4287-A9DD-CCAF2D535ED3";
paths = (
{
closed = 1;
nodes = (
"537 -6 OFFCURVE",
"678 216 OFFCURVE",
"678 430 CURVE SMOOTH",
"678 616 OFFCURVE",
"571 698 OFFCURVE",
"441 698 CURVE SMOOTH",
"230 698 OFFCURVE",
"86 484 OFFCURVE",
"86 264 CURVE SMOOTH",
"86 73 OFFCURVE",
"194 -6 OFFCURVE",
"322 -6 CURVE SMOOTH"
);
},
{
closed = 1;
nodes = (
"203 14 OFFCURVE",
"107 93 OFFCURVE",
"107 266 CURVE SMOOTH",
"107 470 OFFCURVE",
"241 678 OFFCURVE",
"438 678 CURVE SMOOTH",
"559 678 OFFCURVE",
"657 599 OFFCURVE",
"657 426 CURVE SMOOTH",
"657 222 OFFCURVE",
"521 14 OFFCURVE",
"324 14 CURVE SMOOTH"
);
},
{
closed = 1;
nodes = (
"668 651 OFFCURVE",
"737 694 OFFCURVE",
"737 778 CURVE SMOOTH",
"737 792 OFFCURVE",
"735 805 OFFCURVE",
"732 819 CURVE",
"712 814 LINE",
"715 800 OFFCURVE",
"716 787 OFFCURVE",
"716 778 CURVE SMOOTH",
"716 700 OFFCURVE",
"649 668 OFFCURVE",
"545 667 CURVE",
"570 648 LINE"
);
}
);
width = 740;
},
{
anchors = (
{
name = bottom;
position = "{310, 0}";
},
{
name = top;
position = "{423, 710}";
}
);
background = {
paths = (
{
closed = 1;
nodes = (
"508 -15 OFFCURVE",
"656 133 OFFCURVE",
"692 370 CURVE SMOOTH",
"726 594 OFFCURVE",
"636 725 OFFCURVE",
"431 725 CURVE SMOOTH",
"226 725 OFFCURVE",
"83 595 OFFCURVE",
"45 344 CURVE SMOOTH",
"10 113 OFFCURVE",
"97 -15 OFFCURVE",
"296 -15 CURVE SMOOTH"
);
},
{
closed = 1;
nodes = (
"253 140 OFFCURVE",
"232 193 OFFCURVE",
"256 351 CURVE SMOOTH",
"283 531 OFFCURVE",
"327 570 OFFCURVE",
"399 570 CURVE SMOOTH",
"479 570 OFFCURVE",
"505 524 OFFCURVE",
"481 362 CURVE SMOOTH",
"454 182 OFFCURVE",
"405 140 OFFCURVE",
"333 140 CURVE SMOOTH"
);
},
{
closed = 1;
nodes = (
"675 613 OFFCURVE",
"755 662 OFFCURVE",
"768 751 CURVE SMOOTH",
"773 785 OFFCURVE",
"769 823 OFFCURVE",
"754 867 CURVE",
"615 837 LINE",
"620 805 OFFCURVE",
"623 781 OFFCURVE",
"620 762 CURVE SMOOTH",
"614 722 OFFCURVE",
"586 707 OFFCURVE",
"527 707 CURVE",
"554 618 LINE"
);
}
);
};
layerId = "927AED37-E9E6-4F96-A08E-421C3785EFC6";
paths = (
{
closed = 1;
nodes = (
"604 -15 OFFCURVE",
"700 240 OFFCURVE",
"700 437 CURVE SMOOTH",
"700 614 OFFCURVE",
"623 725 OFFCURVE",
"428 725 CURVE SMOOTH",
"132 725 OFFCURVE",
"36 471 OFFCURVE",
"36 277 CURVE SMOOTH",
"36 96 OFFCURVE",
"120 -15 OFFCURVE",
"312 -15 CURVE SMOOTH"
);
},
{
closed = 1;
nodes = (
"275 140 OFFCURVE",
"244 176 OFFCURVE",
"244 272 CURVE SMOOTH",
"244 364 OFFCURVE",
"272 570 OFFCURVE",
"407 570 CURVE SMOOTH",
"462 570 OFFCURVE",
"492 536 OFFCURVE",
"492 442 CURVE SMOOTH",
"492 350 OFFCURVE",
"463 140 OFFCURVE",
"330 140 CURVE SMOOTH"
);
},
{
closed = 1;
nodes = (
"692 619 OFFCURVE",
"779 671 OFFCURVE",
"779 775 CURVE SMOOTH",
"779 802 OFFCURVE",
"773 833 OFFCURVE",
"762 867 CURVE",
"621 841 LINE",
"625 822 OFFCURVE",
"628 804 OFFCURVE",
"628 787 CURVE SMOOTH",
"628 742 OFFCURVE",
"613 710 OFFCURVE",
"525 709 CURVE",
"559 620 LINE"
);
}
);
width = 720;
}
);
leftKerningGroup = O;
leftMetricsKey = O;
rightKerningGroup = Ohorn;
unicode = 01A0;
},
{
glyphname = Oslash;
layers = (
{
anchors = (
{
name = top;
position = "{466, 692}";
}
);
background = {
components = (
{
name = O;
transform = "{1, 0, 0, 1, 12, 0}";
}
);
guideLines = (
{
angle = 90;
position = "{405, 592}";
}
);
paths = (
{
closed = 1;
nodes = (
"601 631 LINE",
"597 626 LINE",
"172 71 LINE",
"169 67 LINE",
"73 -59 LINE",
"88 -70 LINE",
"182 53 LINE",
"185 57 LINE",
"613 617 LINE",
"617 622 LINE",
"717 752 LINE",
"702 762 LINE"
);
}
);
};
guideLines = (
{
angle = -99;
position = "{433, 592}";
},
{
position = "{96, 346}";
}
);
layerId = "075BA79B-D813-4287-A9DD-CCAF2D535ED3";
paths = (
{
closed = 1;
nodes = (
"601 631 LINE",
"597 626 LINE",
"172 71 LINE",
"169 67 LINE",
"73 -59 LINE",
"88 -70 LINE",
"182 53 LINE",
"185 57 LINE",
"613 617 LINE",
"617 622 LINE",
"717 752 LINE",
"702 762 LINE"
);
},
{
closed = 1;
nodes = (
"544 -6 OFFCURVE",
"685 213 OFFCURVE",
"685 436 CURVE SMOOTH",
"685 613 OFFCURVE",
"578 698 OFFCURVE",
"448 698 CURVE SMOOTH",
"237 698 OFFCURVE",
"93 487 OFFCURVE",
"93 257 CURVE SMOOTH",
"93 77 OFFCURVE",
"201 -6 OFFCURVE",
"328 -6 CURVE SMOOTH"
);
},
{
closed = 1;
nodes = (
"210 14 OFFCURVE",
"114 96 OFFCURVE",
"114 261 CURVE SMOOTH",
"114 473 OFFCURVE",
"248 678 OFFCURVE",
"446 678 CURVE SMOOTH",
"566 678 OFFCURVE",
"664 596 OFFCURVE",
"664 431 CURVE SMOOTH",
"664 219 OFFCURVE",
"528 14 OFFCURVE",
"330 14 CURVE SMOOTH"
);
}
);
width = 752;
},
{
anchors = (
{
name = top;
position = "{439, 710}";
}
);
background = {
components = (
{
name = O;
transform = "{1, 0, 0, 1, 8, 0}";
}
);
paths = (
{
closed = 1;
nodes = (
"528 659 LINE",
"524 646 LINE",
"187 202 LINE",
"170 188 LINE",
"10 -22 LINE",
"103 -83 LINE",
"241 99 LINE",
"242 109 LINE",
"603 582 LINE",
"620 597 LINE",
"720 729 LINE",
"628 790 LINE"
);
}
);
};
guideLines = (
{
position = "{-74, 355}";
},
{
angle = -99;
position = "{407, 592}";
}
);
layerId = "927AED37-E9E6-4F96-A08E-421C3785EFC6";
paths = (
{
closed = 1;
nodes = (
"528 659 LINE",
"524 646 LINE",
"187 202 LINE",
"170 188 LINE",
"10 -22 LINE",
"103 -83 LINE",
"241 99 LINE",
"242 109 LINE",
"603 582 LINE",
"620 597 LINE",
"720 729 LINE",
"628 790 LINE"
);
},
{
closed = 1;
nodes = (
"607 -15 OFFCURVE",
"703 241 OFFCURVE",
"703 434 CURVE SMOOTH",
"703 616 OFFCURVE",
"618 725 OFFCURVE",
"427 725 CURVE SMOOTH",
"136 725 OFFCURVE",
"39 471 OFFCURVE",
"39 277 CURVE SMOOTH",
"39 96 OFFCURVE",
"123 -15 OFFCURVE",
"315 -15 CURVE SMOOTH"
);
},
{
closed = 1;
nodes = (
"278 140 OFFCURVE",
"247 176 OFFCURVE",
"247 270 CURVE SMOOTH",
"247 362 OFFCURVE",
"274 570 OFFCURVE",
"411 570 CURVE SMOOTH",
"465 570 OFFCURVE",
"495 536 OFFCURVE",
"495 442 CURVE SMOOTH",
"495 350 OFFCURVE",
"466 140 OFFCURVE",
"333 140 CURVE SMOOTH"
);
}
);
width = 713;
}
);
leftKerningGroup = O;
rightKerningGroup = O;
unicode = 00D8;
},
{
glyphname = OE;
layers = (
{
anchors = (
{
name = bottom;
position = "{420, 0}";
},
{
name = top;
position = "{530, 692}";
}
);
background = {
paths = (
{
closed = 1;
nodes = (
"363 -1 OFFCURVE",
"406 0 OFFCURVE",
"416 0 CURVE SMOOTH",
"785 0 LINE",
"807 141 LINE",
"793 141 LINE",
"758 12 LINE",
"767 19 LINE",
"426 19 LINE",
"433 15 LINE",
"489 367 LINE",
"480 359 LINE",
"764 359 LINE",
"767 378 LINE",
"483 378 LINE",
"489 370 LINE",
"538 680 LINE",
"530 673 LINE",
"858 673 LINE",
"851 680 LINE",
"846 556 LINE",
"861 556 LINE",
"882 692 LINE",
"541 692 LINE SMOOTH",
"523 692 OFFCURVE",
"462 693 OFFCURVE",
"441 693 CURVE SMOOTH",
"230 693 OFFCURVE",
"86 482 OFFCURVE",
"86 257 CURVE SMOOTH",
"86 80 OFFCURVE",
"194 -1 OFFCURVE",
"321 -1 CURVE SMOOTH"
);
},
{
closed = 1;
nodes = (
"416 21 LINE",
"399 19 OFFCURVE",
"346 19 OFFCURVE",
"323 19 CURVE SMOOTH",
"203 19 OFFCURVE",
"107 99 OFFCURVE",
"107 261 CURVE SMOOTH",
"107 469 OFFCURVE",
"241 673 OFFCURVE",
"439 673 CURVE SMOOTH",
"460 673 OFFCURVE",
"508 673 OFFCURVE",
"521 672 CURVE",
"518 679 LINE",
"413 14 LINE"
);
}
);
};
guideLines = (
{
angle = -99;
position = "{456, 226}";
}
);
layerId = "075BA79B-D813-4287-A9DD-CCAF2D535ED3";
paths = (
{
closed = 1;
nodes = (
"350 -1 OFFCURVE",
"412 0 OFFCURVE",
"416 0 CURVE SMOOTH",
"785 0 LINE",
"807 141 LINE",
"793 141 LINE",
"758 12 LINE",
"767 19 LINE",
"426 19 LINE",
"433 15 LINE",
"489 367 LINE",
"480 359 LINE",
"764 359 LINE",
"767 378 LINE",
"483 378 LINE",
"489 370 LINE",
"538 680 LINE",
"530 673 LINE",
"858 673 LINE",
"851 680 LINE",
"846 556 LINE",
"861 556 LINE",
"882 692 LINE",
"541 692 LINE SMOOTH",
"524 692 OFFCURVE",
"459 693 OFFCURVE",
"444 693 CURVE SMOOTH",
"230 693 OFFCURVE",
"86 482 OFFCURVE",
"86 263 CURVE SMOOTH",
"86 80 OFFCURVE",
"187 -1 OFFCURVE",
"334 -1 CURVE SMOOTH"
);
},
{
closed = 1;
nodes = (
"416 21 LINE",
"399 19 OFFCURVE",
"349 18 OFFCURVE",
"326 18 CURVE SMOOTH",
"206 18 OFFCURVE",
"107 97 OFFCURVE",
"107 267 CURVE SMOOTH",
"107 467 OFFCURVE",
"240 673 OFFCURVE",
"438 673 CURVE SMOOTH",
"459 673 OFFCURVE",
"508 673 OFFCURVE",
"521 672 CURVE",
"518 679 LINE",
"413 14 LINE"
);
}
);
width = 911;
},
{
anchors = (
{
name = bottom;
position = "{485, 0}";
},
{
name = top;
position = "{598, 710}";
}
);
background = {
anchors = (
{
name = bottom;
position = "{320, 0}";
},
{
name = center;
position = "{377, 355}";
},
{
name = ogonek;
position = "{414, 0}";
},
{
name = top;
position = "{433, 710}";
},
{
name = topleft;
position = "{111, 710}";
},
{
name = topright;
position = "{638, 679}";
}
);
components = (
{
name = E;
transform = "{1, 0, 0, 1, 347, 0}";
}
);
paths = (
{
closed = 1;
nodes = (
"606 -7 OFFCURVE",
"703 241 OFFCURVE",
"703 433 CURVE SMOOTH",
"703 607 OFFCURVE",
"615 716 OFFCURVE",
"426 716 CURVE SMOOTH",
"137 716 OFFCURVE",
"39 472 OFFCURVE",
"39 278 CURVE SMOOTH",
"39 104 OFFCURVE",
"126 -7 OFFCURVE",
"317 -7 CURVE SMOOTH"
);
},
{
closed = 1;
nodes = (
"278 148 OFFCURVE",
"247 183 OFFCURVE",
"247 270 CURVE SMOOTH",
"247 361 OFFCURVE",
"277 561 OFFCURVE",
"410 561 CURVE SMOOTH",
"465 561 OFFCURVE",
"495 527 OFFCURVE",
"495 442 CURVE SMOOTH",
"495 349 OFFCURVE",
"465 148 OFFCURVE",
"334 148 CURVE SMOOTH"
);
}
);
};
guideLines = (
{
position = "{742, 565}";
},
{
position = "{395, 145}";
},
{
angle = -99;
position = "{619, 231}";
},
{
angle = -99;
position = "{521, 231}";
}
);
layerId = "927AED37-E9E6-4F96-A08E-421C3785EFC6";
paths = (
{
closed = 1;
nodes = (
"365 -7 OFFCURVE",
"474 0 OFFCURVE",
"523 0 CURVE SMOOTH",
"845 0 LINE",
"880 211 LINE",
"764 211 LINE",
"727 115 LINE",
"768 145 LINE",
"580 145 LINE",
"599 106 LINE",
"634 325 LINE",
"599 290 LINE",
"801 290 LINE",
"824 430 LINE",
"625 430 LINE",
"646 401 LINE",
"677 595 LINE",
"643 565 LINE",
"812 565 LINE",
"792 591 LINE",
"802 508 LINE",
"916 508 LINE",
"948 710 LINE",
"688 710 LINE SMOOTH",
"654 710 OFFCURVE",
"503 716 OFFCURVE",
"450 716 CURVE SMOOTH",
"162 716 OFFCURVE",
"39 531 OFFCURVE",
"39 298 CURVE SMOOTH",
"39 88 OFFCURVE",
"133 -7 OFFCURVE",
"316 -7 CURVE SMOOTH"
);
},
{
closed = 1;
nodes = (
"442 160 LINE",
"403 152 OFFCURVE",
"370 147 OFFCURVE",
"344 147 CURVE SMOOTH",
"275 147 OFFCURVE",
"247 181 OFFCURVE",
"247 290 CURVE SMOOTH",
"247 452 OFFCURVE",
"308 564 OFFCURVE",
"427 564 CURVE SMOOTH",
"457 564 OFFCURVE",
"490 557 OFFCURVE",
"526 543 CURVE",
"482 606 LINE",
"401 102 LINE"
);
}
);
width = 927;
},
{
associatedMasterId = "927AED37-E9E6-4F96-A08E-421C3785EFC6";
background = {
paths = (
{
closed = 1;
nodes = (
"339 -7 OFFCURVE",
"460 0 OFFCURVE",
"503 0 CURVE SMOOTH",
"820 0 LINE",
"855 211 LINE",
"740 211 LINE",
"702 115 LINE",
"742 145 LINE",
"562 145 LINE",
"586 115 LINE",
"620 325 LINE",
"586 295 LINE",
"777 295 LINE",
"799 430 LINE",
"607 430 LINE",
"632 400 LINE",
"662 595 LINE",
"629 565 LINE",
"797 565 LINE",
"766 591 LINE",
"775 508 LINE",
"891 508 LINE",
"923 710 LINE",
"677 710 LINE SMOOTH",
"637 710 OFFCURVE",
"492 716 OFFCURVE",
"441 716 CURVE SMOOTH",
"214 716 OFFCURVE",
"73 601 OFFCURVE",
"33 346 CURVE SMOOTH",
"-4 112 OFFCURVE",
"80 -7 OFFCURVE",
"288 -7 CURVE SMOOTH"
);
},
{
closed = 1;
nodes = (
"428 159 LINE",
"421 157 OFFCURVE",
"370 147 OFFCURVE",
"328 147 CURVE SMOOTH",
"242 147 OFFCURVE",
"219 190 OFFCURVE",
"245 352 CURVE SMOOTH",
"274 534 OFFCURVE",
"315 561 OFFCURVE",
"397 561 CURVE SMOOTH",
"449 561 OFFCURVE",
"466 550 OFFCURVE",
"516 556 CURVE",
"467 606 LINE",
"388 103 LINE"
);
}
);
};
layerId = "FDC3AA23-EC05-4805-B7C7-510C803F412D";
name = "Aug 1 17, 19:50";
paths = (
{
closed = 1;
nodes = (
"343 -7 OFFCURVE",
"464 0 OFFCURVE",
"507 0 CURVE SMOOTH",
"820 0 LINE",
"855 211 LINE",
"739 211 LINE",
"702 115 LINE",
"743 145 LINE",
"564 145 LINE",
"588 115 LINE",
"618 325 LINE",
"584 295 LINE",
"777 295 LINE",
"799 430 LINE",
"609 430 LINE",
"633 400 LINE",
"661 595 LINE",
"627 565 LINE",
"796 565 LINE",
"766 591 LINE",
"776 508 LINE",
"891 508 LINE",
"923 710 LINE",
"672 710 LINE SMOOTH",
"633 710 OFFCURVE",
"488 716 OFFCURVE",
"432 716 CURVE SMOOTH",
"210 716 OFFCURVE",
"74 607 OFFCURVE",
"35 359 CURVE SMOOTH",
"-3 118 OFFCURVE",
"85 -7 OFFCURVE",
"297 -7 CURVE SMOOTH"
);
},
{
closed = 1;
nodes = (
"426 160 LINE",
"417 158 OFFCURVE",
"365 147 OFFCURVE",
"319 147 CURVE SMOOTH",
"238 147 OFFCURVE",
"218 184 OFFCURVE",
"243 339 CURVE SMOOTH",
"273 528 OFFCURVE",
"320 561 OFFCURVE",
"406 561 CURVE SMOOTH",
"453 561 OFFCURVE",
"471 549 OFFCURVE",
"520 555 CURVE",
"466 606 LINE",
"389 103 LINE"
);
}
);
width = 896;
},
{
associatedMasterId = "075BA79B-D813-4287-A9DD-CCAF2D535ED3";
background = {
paths = (
{
closed = 1;
nodes = (
"355 -2 OFFCURVE",
"404 0 OFFCURVE",
"420 0 CURVE SMOOTH",
"784 0 LINE",
"806 141 LINE",
"792 141 LINE",
"757 12 LINE",
"766 19 LINE",
"431 19 LINE",
"437 12 LINE",
"493 366 LINE",
"485 359 LINE",
"763 359 LINE",
"766 378 LINE",
"488 378 LINE",
"493 371 LINE",
"542 680 LINE",
"534 673 LINE",
"857 673 LINE",
"850 680 LINE",
"845 556 LINE",
"860 556 LINE",
"881 692 LINE",
"545 692 LINE SMOOTH",
"528 692 OFFCURVE",
"472 694 OFFCURVE",
"446 694 CURVE SMOOTH",
"287 694 OFFCURVE",
"136 580 OFFCURVE",
"98 340 CURVE SMOOTH",
"61 107 OFFCURVE",
"169 -2 OFFCURVE",
"320 -2 CURVE SMOOTH"
);
},
{
closed = 1;
nodes = (
"422 21 LINE",
"405 19 OFFCURVE",
"356 18 OFFCURVE",
"331 18 CURVE SMOOTH",
"180 18 OFFCURVE",
"84 120 OFFCURVE",
"119 340 CURVE SMOOTH",
"155 567 OFFCURVE",
"293 674 OFFCURVE",
"446 674 CURVE SMOOTH",
"467 674 OFFCURVE",
"512 673 OFFCURVE",
"526 672 CURVE",
"523 679 LINE",
"418 14 LINE"
);
}
);
};
layerId = "83DC6DE2-D907-4F00-8846-BDD8FC71EE94";
name = "Aug 1 17, 19:55";
paths = (
{
closed = 1;
nodes = (
"355 -2 OFFCURVE",
"404 0 OFFCURVE",
"421 0 CURVE SMOOTH",
"784 0 LINE",
"806 141 LINE",
"792 141 LINE",
"757 12 LINE",
"766 19 LINE",
"431 19 LINE",
"437 12 LINE",
"492 366 LINE",
"485 359 LINE",
"763 359 LINE",
"766 378 LINE",
"488 378 LINE",
"494 371 LINE",
"542 680 LINE",
"534 673 LINE",
"857 673 LINE",
"850 680 LINE",
"845 556 LINE",
"860 556 LINE",
"881 692 LINE",
"545 692 LINE SMOOTH",
"527 692 OFFCURVE",
"471 694 OFFCURVE",
"444 694 CURVE SMOOTH",
"287 694 OFFCURVE",
"136 581 OFFCURVE",
"98 341 CURVE SMOOTH",
"61 108 OFFCURVE",
"170 -2 OFFCURVE",
"321 -2 CURVE SMOOTH"
);
},
{
closed = 1;
nodes = (
"421 21 LINE",
"404 19 OFFCURVE",
"355 18 OFFCURVE",
"330 18 CURVE SMOOTH",
"180 18 OFFCURVE",
"84 119 OFFCURVE",
"119 339 CURVE SMOOTH",
"155 566 OFFCURVE",
"293 674 OFFCURVE",
"447 674 CURVE SMOOTH",
"468 674 OFFCURVE",
"513 673 OFFCURVE",
"526 672 CURVE",
"523 679 LINE",
"418 14 LINE"
);
}
);
width = 917;
},
{
anchors = (
{
name = bottom;
position = "{406, 0}";
},
{
name = top;
position = "{515, 692}";
}
);
associatedMasterId = "075BA79B-D813-4287-A9DD-CCAF2D535ED3";
background = {
components = (
{
name = E;
transform = "{1, 0, 0, 1, 293, 0}";
},
{
name = O;
transform = "{1, 0, 0, 0.9803, 1, 5}";
}
);
};
layerId = "5316F4BB-BFED-422C-8A61-940A8F38B7D6";
name = "Mar 1 18, 12:29";
paths = (
{
closed = 1;
nodes = (
"348 -2 OFFCURVE",
"396 0 OFFCURVE",
"410 0 CURVE SMOOTH",
"779 0 LINE",
"801 141 LINE",
"787 141 LINE",
"752 12 LINE",
"761 19 LINE",
"420 19 LINE",
"427 15 LINE",
"483 367 LINE",
"474 359 LINE",
"758 359 LINE",
"761 378 LINE",
"477 378 LINE",
"483 370 LINE",
"532 680 LINE",
"524 673 LINE",
"852 673 LINE",
"845 680 LINE",
"840 556 LINE",
"855 556 LINE",
"876 692 LINE",
"535 692 LINE SMOOTH",
"517 692 OFFCURVE",
"462 694 OFFCURVE",
"441 694 CURVE SMOOTH",
"211 694 OFFCURVE",
"80 482 OFFCURVE",
"80 263 CURVE SMOOTH",
"80 74 OFFCURVE",
"186 -2 OFFCURVE",
"325 -2 CURVE SMOOTH"
);
},
{
closed = 1;
nodes = (
"410 21 LINE",
"393 19 OFFCURVE",
"361 17 OFFCURVE",
"338 17 CURVE SMOOTH",
"192 17 OFFCURVE",
"101 96 OFFCURVE",
"101 265 CURVE SMOOTH",
"101 467 OFFCURVE",
"222 675 OFFCURVE",
"441 675 CURVE SMOOTH",
"462 675 OFFCURVE",
"502 673 OFFCURVE",
"515 672 CURVE",
"512 679 LINE",
"407 14 LINE"
);
}
);
width = 894;
}
);
leftKerningGroup = O;
leftMetricsKey = O;
rightKerningGroup = E;
rightMetricsKey = E;
unicode = 0152;
},
{
glyphname = P;
layers = (
{
anchors = (
{
name = bottom;
position = "{128, 0}";
},
{
name = top;
position = "{343, 692}";
}
);
background = {
paths = (
{
closed = 1;
nodes = (
"431 285 OFFCURVE",
"532 364 OFFCURVE",
"554 499 CURVE SMOOTH",
"573 618 OFFCURVE",
"513 692 OFFCURVE",
"377 692 CURVE SMOOTH",
"248 692 LINE",
"130 687 LINE",
"128 672 LINE",
"230 663 LINE",
"224 671 LINE",
"121 21 LINE",
"130 29 LINE",
"24 15 LINE",
"22 0 LINE",
"258 0 LINE",
"260 15 LINE",
"136 29 LINE",
"141 21 LINE",
"184 292 LINE",
"176 285 LINE",
"279 285 LINE SMOOTH"
);
},
{
closed = 1;
nodes = (
"496 673 OFFCURVE",
"550 608 OFFCURVE",
"533 500 CURVE SMOOTH",
"513 378 OFFCURVE",
"421 304 OFFCURVE",
"281 304 CURVE SMOOTH",
"179 304 LINE",
"185 297 LINE",
"245 680 LINE",
"237 673 LINE",
"374 673 LINE SMOOTH"
);
}
);
};
guideLines = (
{
angle = -99;
position = "{167, 248}";
}
);
layerId = "075BA79B-D813-4287-A9DD-CCAF2D535ED3";
paths = (
{
closed = 1;
nodes = (
"446 285 OFFCURVE",
"557 390 OFFCURVE",
"557 533 CURVE SMOOTH",
"557 637 OFFCURVE",
"499 692 OFFCURVE",
"377 692 CURVE SMOOTH",
"248 692 LINE",
"130 687 LINE",
"128 672 LINE",
"230 663 LINE",
"224 671 LINE",
"121 21 LINE",
"130 29 LINE",
"24 15 LINE",
"22 0 LINE",
"258 0 LINE",
"260 15 LINE",
"136 29 LINE",
"141 21 LINE",
"184 292 LINE",
"176 285 LINE",
"282 285 LINE SMOOTH"
);
},
{
closed = 1;
nodes = (
"481 673 OFFCURVE",
"536 626 OFFCURVE",
"536 531 CURVE SMOOTH",
"536 403 OFFCURVE",
"436 304 OFFCURVE",
"284 304 CURVE SMOOTH",
"179 304 LINE",
"185 297 LINE",
"245 680 LINE",
"237 673 LINE",
"374 673 LINE SMOOTH"
);
}
);
width = 566;
},
{
anchors = (
{
name = bottom;
position = "{146, 0}";
},
{
name = top;
position = "{375, 710}";
}
);
background = {
paths = (
{
closed = 1;
nodes = (
"413 710 LINE",
"100 705 LINE",
"84 605 LINE",
"158 571 LINE",
"139 600 LINE",
"60 105 LINE",
"84 131 LINE",
"4 100 LINE",
"-12 0 LINE",
"300 0 LINE",
"316 100 LINE",
"247 132 LINE",
"257 105 LINE",
"336 600 LINE",
"314 572 LINE",
"397 610 LINE"
);
}
);
};
guideLines = (
{
angle = -99;
position = "{24, 231}";
},
{
angle = -99;
position = "{183, 231}";
},
{
angle = -99;
position = "{355, 231}";
}
);
layerId = "927AED37-E9E6-4F96-A08E-421C3785EFC6";
paths = (
{
closed = 1;
nodes = (
"508 231 OFFCURVE",
"631 348 OFFCURVE",
"631 518 CURVE SMOOTH",
"631 637 OFFCURVE",
"570 710 OFFCURVE",
"416 710 CURVE SMOOTH",
"357 710 LINE",
"100 705 LINE",
"84 605 LINE",
"158 571 LINE",
"139 600 LINE",
"60 105 LINE",
"84 131 LINE",
"4 100 LINE",
"-12 0 LINE",
"315 0 LINE",
"331 100 LINE",
"247 132 LINE",
"257 105 LINE",
"283 266 LINE",
"238 231 LINE",
"307 231 LINE SMOOTH"
);
},
{
closed = 1;
nodes = (
"415 566 OFFCURVE",
"426 539 OFFCURVE",
"426 499 CURVE SMOOTH",
"426 434 OFFCURVE",
"398 376 OFFCURVE",
"312 376 CURVE SMOOTH",
"271 376 LINE",
"295 343 LINE",
"336 599 LINE",
"310 566 LINE",
"358 566 LINE SMOOTH"
);
}
);
width = 612;
},
{
associatedMasterId = "927AED37-E9E6-4F96-A08E-421C3785EFC6";
background = {
paths = (
{
closed = 1;
nodes = (
"502 231 OFFCURVE",
"604 346 OFFCURVE",
"625 479 CURVE SMOOTH",
"645 606 OFFCURVE",
"587 711 OFFCURVE",
"417 711 CURVE SMOOTH",
"353 711 LINE",
"94 705 LINE",
"78 605 LINE",
"164 570 LINE",
"137 612 LINE",
"55 95 LINE",
"90 135 LINE",
"-2 100 LINE",
"-17 0 LINE",
"314 0 LINE",
"330 100 LINE",
"232 132 LINE",
"252 95 LINE",
"278 261 LINE",
"235 231 LINE",
"298 231 LINE SMOOTH"
);
},
{
closed = 1;
nodes = (
"414 566 OFFCURVE",
"433 532 OFFCURVE",
"425 476 CURVE SMOOTH",
"415 417 OFFCURVE",
"380 376 OFFCURVE",
"321 376 CURVE SMOOTH",
"258 376 LINE",
"292 346 LINE",
"331 596 LINE",
"298 566 LINE",
"365 566 LINE SMOOTH"
);
}
);
};
guideLines = (
{
angle = -99;
position = "{19, 231}";
},
{
angle = -99;
position = "{350, 231}";
}
);
layerId = "89FD20AD-A4C8-4F1F-8A3D-BFC970A4B9D1";
name = "Jun 27 17, 19:55";
paths = (
{
closed = 1;
nodes = (
"494 231 OFFCURVE",
"627 348 OFFCURVE",
"627 518 CURVE SMOOTH",
"627 637 OFFCURVE",
"566 711 OFFCURVE",
"412 711 CURVE SMOOTH",
"353 711 LINE",
"94 705 LINE",
"78 605 LINE",
"163 570 LINE",
"138 614 LINE",
"55 95 LINE",
"92 135 LINE",
"-2 100 LINE",
"-18 0 LINE",
"313 0 LINE",
"329 100 LINE",
"233 132 LINE",
"255 93 LINE",
"282 263 LINE",
"234 231 LINE",
"303 231 LINE SMOOTH"
);
},
{
closed = 1;
nodes = (
"411 566 OFFCURVE",
"429 542 OFFCURVE",
"429 499 CURVE SMOOTH",
"429 437 OFFCURVE",
"392 376 OFFCURVE",
"317 376 CURVE SMOOTH",
"259 376 LINE",
"295 346 LINE",
"335 596 LINE",
"296 566 LINE",
"361 566 LINE SMOOTH"
);
}
);
width = 593;
},
{
associatedMasterId = "927AED37-E9E6-4F96-A08E-421C3785EFC6";
background = {
paths = (
{
closed = 1;
nodes = (
"317 115 LINE",
"259 145 LINE",
"273 230 LINE",
"296 230 LINE SMOOTH",
"501 230 OFFCURVE",
"630 341 OFFCURVE",
"630 528 CURVE SMOOTH",
"630 643 OFFCURVE",
"545 710 OFFCURVE",
"415 710 CURVE SMOOTH",
"349 710 LINE",
"89 705 LINE",
"72 595 LINE",
"128 555 LINE",
"63 145 LINE",
"-5 115 LINE",
"-23 0 LINE",
"299 0 LINE"
);
},
{
closed = 1;
nodes = (
"324 555 LINE",
"361 555 LINE SMOOTH",
"401 555 OFFCURVE",
"427 532 OFFCURVE",
"427 487 CURVE SMOOTH",
"427 422 OFFCURVE",
"385 385 OFFCURVE",
"320 385 CURVE SMOOTH",
"297 385 LINE"
);
}
);
};
guideLines = (
{
angle = -99;
position = "{19, 231}";
},
{
angle = -99;
position = "{350, 231}";
}
);
layerId = "35753A9D-0ECC-4FF6-BCDC-3611364150B5";
name = "Jul 3 17, 11:49";
paths = (
{
closed = 1;
nodes = (
"504 231 OFFCURVE",
"627 348 OFFCURVE",
"627 518 CURVE SMOOTH",
"627 637 OFFCURVE",
"566 711 OFFCURVE",
"412 711 CURVE SMOOTH",
"353 711 LINE",
"94 705 LINE",
"78 605 LINE",
"163 570 LINE",
"138 614 LINE",
"55 95 LINE",
"92 135 LINE",
"-2 100 LINE",
"-18 0 LINE",
"313 0 LINE",
"329 100 LINE",
"233 132 LINE",
"255 93 LINE",
"282 263 LINE",
"234 231 LINE",
"303 231 LINE SMOOTH"
);
},
{
closed = 1;
nodes = (
"408 566 OFFCURVE",
"419 539 OFFCURVE",
"419 499 CURVE SMOOTH",
"419 434 OFFCURVE",
"391 376 OFFCURVE",
"307 376 CURVE SMOOTH",
"259 376 LINE",
"295 346 LINE",
"335 596 LINE",
"296 566 LINE",
"351 566 LINE SMOOTH"
);
}
);
width = 593;
}
);
leftKerningGroup = H;
leftMetricsKey = H;
rightKerningGroup = P;
unicode = 0050;
},
{
glyphname = Thorn;
layers = (
{
anchors = (
{
name = bottom;
position = "{128, 0}";
},
{
name = top;
position = "{237, 692}";
}
);
background = {
components = (
{
name = P;
transform = "{1, 0, 0, 1, -17, -136}";
}
);
paths = (
{
closed = 1;
nodes = (
"234 0 LINE",
"236 15 LINE",
"136 29 LINE",
"141 21 LINE",
"244 671 LINE",
"236 663 LINE",
"341 677 LINE",
"343 692 LINE",
"130 687 LINE",
"128 672 LINE",
"230 663 LINE",
"224 671 LINE",
"121 21 LINE",
"130 29 LINE",
"24 15 LINE",
"22 0 LINE"
);
},
{
closed = 1;
nodes = (
"251 149 LINE SMOOTH",
"415 149 OFFCURVE",
"526 254 OFFCURVE",
"526 397 CURVE SMOOTH",
"526 501 OFFCURVE",
"468 556 OFFCURVE",
"346 556 CURVE SMOOTH",
"217 556 LINE",
"206 537 LINE",
"343 537 LINE SMOOTH",
"450 537 OFFCURVE",
"505 490 OFFCURVE",
"505 395 CURVE SMOOTH",
"505 267 OFFCURVE",
"405 168 OFFCURVE",
"253 168 CURVE SMOOTH",
"148 168 LINE",
"145 149 LINE"
);
}
);
};
layerId = "075BA79B-D813-4287-A9DD-CCAF2D535ED3";
paths = (
{
closed = 1;
nodes = (
"234 0 LINE",
"236 15 LINE",
"136 29 LINE",
"141 21 LINE",
"162 154 LINE",
"152 149 LINE",
"251 149 LINE SMOOTH",
"415 149 OFFCURVE",
"526 254 OFFCURVE",
"526 397 CURVE SMOOTH",
"526 501 OFFCURVE",
"468 556 OFFCURVE",
"346 556 CURVE SMOOTH",
"217 556 LINE",
"225 551 LINE",
"244 671 LINE",
"236 663 LINE",
"341 677 LINE",
"343 692 LINE",
"130 687 LINE",
"128 672 LINE",
"230 663 LINE",
"224 671 LINE",
"121 21 LINE",
"130 29 LINE",
"24 15 LINE",
"22 0 LINE"
);
},
{
closed = 1;
nodes = (
"224 545 LINE",
"214 537 LINE",
"343 537 LINE SMOOTH",
"450 537 OFFCURVE",
"505 490 OFFCURVE",
"505 395 CURVE SMOOTH",
"505 267 OFFCURVE",
"405 168 OFFCURVE",
"253 168 CURVE SMOOTH",
"155 168 LINE",
"163 160 LINE"
);
}
);
width = 557;
},
{
anchors = (
{
name = bottom;
position = "{146, 0}";
},
{
name = top;
position = "{259, 710}";
}
);
background = {
paths = (
{
closed = 1;
nodes = (
"314 0 LINE",
"330 100 LINE",
"247 132 LINE",
"257 105 LINE",
"336 600 LINE",
"314 572 LINE",
"397 610 LINE",
"413 710 LINE",
"100 705 LINE",
"84 605 LINE",
"158 571 LINE",
"139 600 LINE",
"60 105 LINE",
"84 131 LINE",
"4 100 LINE",
"-12 0 LINE"
);
},
{
closed = 1;
nodes = (
"289 156 LINE SMOOTH",
"480 156 OFFCURVE",
"600 246 OFFCURVE",
"600 399 CURVE SMOOTH",
"600 497 OFFCURVE",
"551 559 OFFCURVE",
"398 559 CURVE SMOOTH",
"318 559 LINE",
"292 419 LINE",
"340 419 LINE SMOOTH",
"393 419 OFFCURVE",
"403 399 OFFCURVE",
"403 372 CURVE SMOOTH",
"403 324 OFFCURVE",
"373 296 OFFCURVE",
"294 296 CURVE SMOOTH",
"253 296 LINE",
"220 156 LINE"
);
}
);
};
guideLines = (
{
angle = -99;
position = "{183, 231}";
}
);
layerId = "927AED37-E9E6-4F96-A08E-421C3785EFC6";
paths = (
{
closed = 1;
nodes = (
"314 0 LINE",
"330 100 LINE",
"247 132 LINE",
"257 105 LINE",
"268 178 LINE",
"250 156 LINE",
"289 156 LINE SMOOTH",
"480 156 OFFCURVE",
"600 246 OFFCURVE",
"600 399 CURVE SMOOTH",
"600 497 OFFCURVE",
"550 559 OFFCURVE",
"398 559 CURVE SMOOTH",
"318 559 LINE",
"327 544 LINE",
"336 603 LINE",
"314 572 LINE",
"397 610 LINE",
"413 710 LINE",
"100 705 LINE",
"84 605 LINE",
"158 571 LINE",
"139 600 LINE",
"60 105 LINE",
"84 131 LINE",
"4 100 LINE",
"-12 0 LINE"
);
},
{
closed = 1;
nodes = (
"309 434 LINE",
"292 419 LINE",
"340 419 LINE SMOOTH",
"393 419 OFFCURVE",
"403 399 OFFCURVE",
"403 372 CURVE SMOOTH",
"403 324 OFFCURVE",
"373 296 OFFCURVE",
"294 296 CURVE SMOOTH",
"273 296 LINE",
"285 283 LINE"
);
}
);
width = 599;
},
{
anchors = (
{
name = bottom;
position = "{251, 0}";
},
{
name = top;
position = "{364, 710}";
}
);
associatedMasterId = "927AED37-E9E6-4F96-A08E-421C3785EFC6";
background = {
paths = (
{
closed = 1;
nodes = (
"408 710 LINE",
"95 705 LINE",
"79 605 LINE",
"153 571 LINE",
"134 600 LINE",
"55 105 LINE",
"79 131 LINE",
"-1 100 LINE",
"-17 0 LINE",
"309 0 LINE",
"325 100 LINE",
"242 132 LINE",
"252 105 LINE",
"331 600 LINE",
"309 572 LINE",
"392 610 LINE"
);
},
{
closed = 1;
nodes = (
"272 165 LINE SMOOTH",
"483 165 OFFCURVE",
"595 250 OFFCURVE",
"595 392 CURVE SMOOTH",
"595 487 OFFCURVE",
"548 542 OFFCURVE",
"394 542 CURVE SMOOTH",
"302 542 LINE",
"285 407 LINE",
"346 407 LINE SMOOTH",
"396 407 OFFCURVE",
"408 394 OFFCURVE",
"408 370 CURVE SMOOTH",
"408 332 OFFCURVE",
"380 300 OFFCURVE",
"294 300 CURVE SMOOTH",
"246 300 LINE",
"213 165 LINE"
);
}
);
};
layerId = "046EA5BA-706C-46A8-9730-43B8679623A5";
name = "Aug 2 17, 15:23";
paths = (
{
closed = 1;
nodes = (
"309 0 LINE",
"325 100 LINE",
"242 132 LINE",
"252 105 LINE",
"331 600 LINE",
"309 572 LINE",
"392 610 LINE",
"408 710 LINE",
"95 705 LINE",
"79 605 LINE",
"153 571 LINE",
"134 600 LINE",
"55 105 LINE",
"79 131 LINE",
"-1 100 LINE",
"-17 0 LINE"
);
},
{
closed = 1;
nodes = (
"272 165 LINE SMOOTH",
"482 165 OFFCURVE",
"595 249 OFFCURVE",
"595 393 CURVE SMOOTH",
"595 487 OFFCURVE",
"547 542 OFFCURVE",
"394 542 CURVE SMOOTH",
"302 542 LINE",
"285 407 LINE",
"346 407 LINE SMOOTH",
"396 407 OFFCURVE",
"408 394 OFFCURVE",
"408 370 CURVE SMOOTH",
"408 332 OFFCURVE",
"380 300 OFFCURVE",
"294 300 CURVE SMOOTH",
"246 300 LINE",
"213 165 LINE"
);
}
);
width = 588;
},
{
anchors = (
{
name = bottom;
position = "{251, 0}";
},
{
name = top;
position = "{364, 710}";
}
);
associatedMasterId = "927AED37-E9E6-4F96-A08E-421C3785EFC6";
background = {
paths = (
{
closed = 1;
nodes = (
"466 156 OFFCURVE",
"571 222 OFFCURVE",
"594 373 CURVE SMOOTH",
"614 506 OFFCURVE",
"548 559 OFFCURVE",
"419 559 CURVE SMOOTH",
"293 559 LINE",
"317 524 LINE",
"329 606 LINE",
"303 568 LINE",
"387 610 LINE",
"402 710 LINE",
"91 705 LINE",
"76 605 LINE",
"151 571 LINE",
"134 610 LINE",
"57 95 LINE",
"85 133 LINE",
"0 100 LINE",
"-15 0 LINE",
"309 0 LINE",
"324 100 LINE",
"234 134 LINE",
"252 97 LINE",
"266 191 LINE",
"232 156 LINE",
"320 156 LINE SMOOTH"
);
},
{
closed = 1;
nodes = (
"386 419 OFFCURVE",
"403 406 OFFCURVE",
"397 361 CURVE SMOOTH",
"389 304 OFFCURVE",
"356 296 OFFCURVE",
"300 296 CURVE SMOOTH",
"254 296 LINE",
"278 266 LINE",
"305 449 LINE",
"272 419 LINE",
"330 419 LINE SMOOTH"
);
}
);
};
layerId = "C7E273D5-2FA0-4927-AF1F-554091D6099C";
name = "Aug 2 17, 15:26";
paths = (
{
closed = 1;
nodes = (
"309 0 LINE",
"325 100 LINE",
"242 132 LINE",
"252 105 LINE",
"331 600 LINE",
"309 572 LINE",
"392 610 LINE",
"408 710 LINE",
"95 705 LINE",
"79 605 LINE",
"153 571 LINE",
"134 600 LINE",
"55 105 LINE",
"79 131 LINE",
"-1 100 LINE",
"-17 0 LINE"
);
},
{
closed = 1;
nodes = (
"272 156 LINE SMOOTH",
"482 156 OFFCURVE",
"595 248 OFFCURVE",
"595 401 CURVE SMOOTH",
"595 512 OFFCURVE",
"547 559 OFFCURVE",
"394 559 CURVE SMOOTH",
"302 559 LINE",
"285 419 LINE",
"336 419 LINE SMOOTH",
"386 419 OFFCURVE",
"398 406 OFFCURVE",
"398 370 CURVE SMOOTH",
"398 328 OFFCURVE",
"370 296 OFFCURVE",
"294 296 CURVE SMOOTH",
"246 296 LINE",
"213 156 LINE"
);
}
);
width = 588;
}
);
leftKerningGroup = H;
rightKerningGroup = P;
rightMetricsKey = P;
unicode = 00DE;
},
{
glyphname = Q;
layers = (
{
anchors = (
{
name = bottom;
position = "{328, 0}";
},
{
name = top;
position = "{437, 692}";
}
);
background = {
paths = (
{
closed = 1;
nodes = (
"619 -156 OFFCURVE",
"663 -132 OFFCURVE",
"709 -110 CURVE",
"701 -94 LINE",
"658 -115 OFFCURVE",
"616 -135 OFFCURVE",
"589 -135 CURVE SMOOTH",
"542 -135 OFFCURVE",
"472 -77 OFFCURVE",
"347 -2 CURVE",
"343 -5 LINE",
"546 8 OFFCURVE",
"678 224 OFFCURVE",
"678 430 CURVE SMOOTH",
"678 616 OFFCURVE",
"571 698 OFFCURVE",
"441 698 CURVE SMOOTH",
"230 698 OFFCURVE",
"86 483 OFFCURVE",
"86 263 CURVE SMOOTH",
"86 73 OFFCURVE",
"194 -6 OFFCURVE",
"321 -6 CURVE",
"311 -2 LINE",
"477 -106 OFFCURVE",
"536 -156 OFFCURVE",
"584 -156 CURVE SMOOTH"
);
},
{
closed = 1;
nodes = (
"203 14 OFFCURVE",
"107 93 OFFCURVE",
"107 266 CURVE SMOOTH",
"107 470 OFFCURVE",
"241 678 OFFCURVE",
"438 678 CURVE SMOOTH",
"559 678 OFFCURVE",
"657 599 OFFCURVE",
"657 426 CURVE SMOOTH",
"657 222 OFFCURVE",
"521 14 OFFCURVE",
"324 14 CURVE SMOOTH"
);
}
);
};
layerId = "075BA79B-D813-4287-A9DD-CCAF2D535ED3";
paths = (
{
closed = 1;
nodes = (
"651 -121 OFFCURVE",
"618 -134 OFFCURVE",
"586 -134 CURVE SMOOTH",
"526 -134 OFFCURVE",
"472 -89 OFFCURVE",
"347 -2 CURVE",
"343 -5 LINE",
"546 8 OFFCURVE",
"678 224 OFFCURVE",
"678 430 CURVE SMOOTH",
"678 616 OFFCURVE",
"571 698 OFFCURVE",
"441 698 CURVE SMOOTH",
"230 698 OFFCURVE",
"86 483 OFFCURVE",
"86 263 CURVE SMOOTH",
"86 73 OFFCURVE",
"194 -6 OFFCURVE",
"321 -6 CURVE",
"311 -2 LINE",
"456 -103 OFFCURVE",
"520 -155 OFFCURVE",
"586 -155 CURVE SMOOTH",
"621 -155 OFFCURVE",
"658 -141 OFFCURVE",
"709 -110 CURVE",
"698 -94 LINE"
);
},
{
closed = 1;
nodes = (
"203 14 OFFCURVE",
"107 93 OFFCURVE",
"107 266 CURVE SMOOTH",
"107 470 OFFCURVE",
"241 678 OFFCURVE",
"438 678 CURVE SMOOTH",
"559 678 OFFCURVE",
"657 599 OFFCURVE",
"657 426 CURVE SMOOTH",
"657 222 OFFCURVE",
"521 14 OFFCURVE",
"324 14 CURVE SMOOTH"
);
}
);
width = 738;
},
{
anchors = (
{
name = bottom;
position = "{306, 0}";
},
{
name = top;
position = "{419, 710}";
}
);
background = {
paths = (
{
closed = 1;
nodes = (
"640 -40 OFFCURVE",
"610 -53 OFFCURVE",
"581 -53 CURVE SMOOTH",
"539 -53 OFFCURVE",
"501 -35 OFFCURVE",
"414 28 CURVE",
"421 -2 LINE",
"627 53 OFFCURVE",
"700 267 OFFCURVE",
"700 433 CURVE SMOOTH",
"700 616 OFFCURVE",
"612 725 OFFCURVE",
"423 725 CURVE SMOOTH",
"134 725 OFFCURVE",
"36 472 OFFCURVE",
"36 278 CURVE SMOOTH",
"36 106 OFFCURVE",
"113 -3 OFFCURVE",
"286 -14 CURVE",
"251 5 LINE",
"413 -148 OFFCURVE",
"490 -213 OFFCURVE",
"568 -213 CURVE SMOOTH",
"618 -213 OFFCURVE",
"670 -187 OFFCURVE",
"747 -141 CURVE",
"683 -16 LINE"
);
},
{
closed = 1;
nodes = (
"272 138 OFFCURVE",
"241 174 OFFCURVE",
"241 271 CURVE SMOOTH",
"241 361 OFFCURVE",
"268 570 OFFCURVE",
"407 570 CURVE SMOOTH",
"464 570 OFFCURVE",
"495 535 OFFCURVE",
"495 440 CURVE SMOOTH",
"495 349 OFFCURVE",
"467 138 OFFCURVE",
"329 138 CURVE SMOOTH"
);
}
);
};
layerId = "927AED37-E9E6-4F96-A08E-421C3785EFC6";
paths = (
{
closed = 1;
nodes = (
"639 -41 OFFCURVE",
"607 -53 OFFCURVE",
"576 -53 CURVE SMOOTH",
"530 -53 OFFCURVE",
"488 -26 OFFCURVE",
"414 28 CURVE",
"421 -2 LINE",
"627 53 OFFCURVE",
"700 267 OFFCURVE",
"700 433 CURVE SMOOTH",
"700 616 OFFCURVE",
"612 725 OFFCURVE",
"423 725 CURVE SMOOTH",
"134 725 OFFCURVE",
"36 472 OFFCURVE",
"36 278 CURVE SMOOTH",
"36 106 OFFCURVE",
"113 -3 OFFCURVE",
"286 -14 CURVE",
"251 5 LINE",
"398 -134 OFFCURVE",
"478 -213 OFFCURVE",
"571 -213 CURVE SMOOTH",
"622 -213 OFFCURVE",
"676 -190 OFFCURVE",
"747 -141 CURVE",
"683 -16 LINE"
);
},
{
closed = 1;
nodes = (
"272 138 OFFCURVE",
"241 174 OFFCURVE",
"241 271 CURVE SMOOTH",
"241 361 OFFCURVE",
"268 570 OFFCURVE",
"407 570 CURVE SMOOTH",
"464 570 OFFCURVE",
"495 535 OFFCURVE",
"495 440 CURVE SMOOTH",
"495 349 OFFCURVE",
"467 138 OFFCURVE",
"329 138 CURVE SMOOTH"
);
}
);
width = 710;
},
{
associatedMasterId = "075BA79B-D813-4287-A9DD-CCAF2D535ED3";
background = {
paths = (
{
closed = 1;
nodes = (
"708 -94 LINE",
"665 -116 OFFCURVE",
"623 -135 OFFCURVE",
"596 -135 CURVE SMOOTH",
"549 -135 OFFCURVE",
"478 -77 OFFCURVE",
"354 -2 CURVE",
"355 -5 LINE",
"511 8 OFFCURVE",
"654 135 OFFCURVE",
"689 356 CURVE SMOOTH",
"726 591 OFFCURVE",
"604 698 OFFCURVE",
"453 698 CURVE SMOOTH",
"296 698 OFFCURVE",
"137 581 OFFCURVE",
"99 341 CURVE SMOOTH",
"62 109 OFFCURVE",
"174 -4 OFFCURVE",
"326 -6 CURVE",
"316 -2 LINE",
"482 -106 OFFCURVE",
"541 -156 OFFCURVE",
"588 -156 CURVE SMOOTH",
"621 -156 OFFCURVE",
"667 -132 OFFCURVE",
"715 -109 CURVE"
);
},
{
closed = 1;
nodes = (
"156 568 OFFCURVE",
"302 678 OFFCURVE",
"449 678 CURVE SMOOTH",
"594 678 OFFCURVE",
"702 570 OFFCURVE",
"667 353 CURVE SMOOTH",
"632 129 OFFCURVE",
"482 14 OFFCURVE",
"334 14 CURVE SMOOTH",
"191 14 OFFCURVE",
"85 121 OFFCURVE",
"120 342 CURVE SMOOTH"
);
}
);
};
layerId = "281D70D7-E0AD-49FD-9C13-A89238B62ECC";
name = "Jul 3 17, 18:10";
paths = (
{
closed = 1;
nodes = (
"622 -156 OFFCURVE",
"668 -132 OFFCURVE",
"715 -109 CURVE",
"707 -94 LINE",
"664 -116 OFFCURVE",
"622 -135 OFFCURVE",
"595 -135 CURVE SMOOTH",
"548 -135 OFFCURVE",
"478 -77 OFFCURVE",
"353 -2 CURVE",
"356 -5 LINE",
"511 8 OFFCURVE",
"654 134 OFFCURVE",
"689 355 CURVE SMOOTH",
"726 590 OFFCURVE",
"603 698 OFFCURVE",
"452 698 CURVE SMOOTH",
"295 698 OFFCURVE",
"137 582 OFFCURVE",
"99 342 CURVE SMOOTH",
"62 110 OFFCURVE",
"174 -4 OFFCURVE",
"327 -6 CURVE",
"317 -2 LINE",
"483 -106 OFFCURVE",
"542 -156 OFFCURVE",
"590 -156 CURVE SMOOTH"
);
},
{
closed = 1;
nodes = (
"191 14 OFFCURVE",
"85 120 OFFCURVE",
"120 341 CURVE SMOOTH",
"156 567 OFFCURVE",
"303 678 OFFCURVE",
"450 678 CURVE SMOOTH",
"594 678 OFFCURVE",
"702 571 OFFCURVE",
"667 354 CURVE SMOOTH",
"632 130 OFFCURVE",
"481 14 OFFCURVE",
"333 14 CURVE SMOOTH"
);
}
);
width = 761;
},
{
anchors = (
{
name = bottom;
position = "{306, 0}";
},
{
name = top;
position = "{419, 710}";
}
);
associatedMasterId = "927AED37-E9E6-4F96-A08E-421C3785EFC6";
background = {
paths = (
{
closed = 1;
nodes = (
"605 -209 OFFCURVE",
"660 -186 OFFCURVE",
"747 -137 CURVE",
"689 -23 LINE",
"639 -49 OFFCURVE",
"607 -62 OFFCURVE",
"579 -62 CURVE SMOOTH",
"535 -62 OFFCURVE",
"500 -31 OFFCURVE",
"416 28 CURVE",
"421 -2 LINE",
"627 53 OFFCURVE",
"700 267 OFFCURVE",
"700 433 CURVE SMOOTH",
"700 616 OFFCURVE",
"612 725 OFFCURVE",
"423 725 CURVE SMOOTH",
"134 725 OFFCURVE",
"36 472 OFFCURVE",
"36 278 CURVE SMOOTH",
"36 106 OFFCURVE",
"113 -3 OFFCURVE",
"286 -14 CURVE",
"244 5 LINE",
"414 -130 OFFCURVE",
"472 -209 OFFCURVE",
"558 -209 CURVE SMOOTH"
);
},
{
closed = 1;
nodes = (
"272 138 OFFCURVE",
"241 174 OFFCURVE",
"241 271 CURVE SMOOTH",
"241 361 OFFCURVE",
"268 570 OFFCURVE",
"407 570 CURVE SMOOTH",
"464 570 OFFCURVE",
"495 535 OFFCURVE",
"495 440 CURVE SMOOTH",
"495 349 OFFCURVE",
"467 138 OFFCURVE",
"329 138 CURVE SMOOTH"
);
}
);
};
layerId = "F86BBBF1-B4B3-43BF-954E-4B84B5661B8F";
name = "Feb 13 20, 16:57";
paths = (
{
closed = 1;
nodes = (
"640 -40 OFFCURVE",
"610 -53 OFFCURVE",
"581 -53 CURVE SMOOTH",
"539 -53 OFFCURVE",
"501 -35 OFFCURVE",
"414 28 CURVE",
"421 -2 LINE",
"627 53 OFFCURVE",
"700 267 OFFCURVE",
"700 433 CURVE SMOOTH",
"700 616 OFFCURVE",
"612 725 OFFCURVE",
"423 725 CURVE SMOOTH",
"134 725 OFFCURVE",
"36 472 OFFCURVE",
"36 278 CURVE SMOOTH",
"36 106 OFFCURVE",
"113 -3 OFFCURVE",
"286 -14 CURVE",
"251 5 LINE",
"413 -148 OFFCURVE",
"490 -213 OFFCURVE",
"568 -213 CURVE SMOOTH",
"618 -213 OFFCURVE",
"670 -187 OFFCURVE",
"747 -141 CURVE",
"683 -16 LINE"
);
},
{
closed = 1;
nodes = (
"272 138 OFFCURVE",
"241 174 OFFCURVE",
"241 271 CURVE SMOOTH",
"241 361 OFFCURVE",
"268 570 OFFCURVE",
"407 570 CURVE SMOOTH",
"464 570 OFFCURVE",
"495 535 OFFCURVE",
"495 440 CURVE SMOOTH",
"495 349 OFFCURVE",
"467 138 OFFCURVE",
"329 138 CURVE SMOOTH"
);
}
);
width = 710;
}
);
leftKerningGroup = O;
leftMetricsKey = O;
rightKerningGroup = O;
unicode = 0051;
},
{
glyphname = R;
layers = (
{
anchors = (
{
name = bottom;
position = "{304, 0}";
},
{
name = top;
position = "{371, 691}";
}
);
background = {
paths = (
{
closed = 1;
nodes = (
"258 0 LINE",
"260 15 LINE",
"136 29 LINE",
"141 21 LINE",
"193 350 LINE",
"185 343 LINE",
"262 343 LINE SMOOTH",
"347 343 OFFCURVE",
"386 334 OFFCURVE",
"421 213 CURVE SMOOTH",
"484 0 LINE",
"563 0 LINE",
"565 15 LINE",
"493 29 LINE",
"501 22 LINE",
"440 217 LINE SMOOTH",
"415 296 OFFCURVE",
"401 341 OFFCURVE",
"329 352 CURVE",
"333 349 LINE",
"462 360 OFFCURVE",
"537 428 OFFCURVE",
"552 527 CURVE SMOOTH",
"569 631 OFFCURVE",
"507 692 OFFCURVE",
"372 692 CURVE SMOOTH",
"248 692 LINE",
"130 687 LINE",
"128 672 LINE",
"229 663 LINE",
"224 671 LINE",
"121 21 LINE",
"129 29 LINE",
"24 15 LINE",
"22 0 LINE"
);
},
{
closed = 1;
nodes = (
"245 680 LINE",
"237 673 LINE",
"368 673 LINE SMOOTH",
"491 673 OFFCURVE",
"546 621 OFFCURVE",
"532 528 CURVE SMOOTH",
"515 423 OFFCURVE",
"424 362 OFFCURVE",
"285 362 CURVE SMOOTH",
"189 362 LINE",
"194 355 LINE"
);
}
);
};
guideLines = (
{
angle = 80.9957;
position = "{173, 346}";
},
{
angle = 80.9957;
position = "{193, 346}";
}
);
layerId = "075BA79B-D813-4287-A9DD-CCAF2D535ED3";
paths = (
{
closed = 1;
nodes = (
"258 0 LINE",
"260 15 LINE",
"136 29 LINE",
"141 21 LINE",
"191 334 LINE",
"183 327 LINE",
"259 327 LINE SMOOTH",
"345 327 OFFCURVE",
"378 317 OFFCURVE",
"418 198 CURVE SMOOTH",
"484 0 LINE",
"563 0 LINE",
"565 15 LINE",
"493 29 LINE",
"500 22 LINE",
"437 202 LINE SMOOTH",
"410 280 OFFCURVE",
"388 331 OFFCURVE",
"322 336 CURVE",
"330 333 LINE",
"460 341 OFFCURVE",
"555 432 OFFCURVE",
"555 551 CURVE SMOOTH",
"555 646 OFFCURVE",
"495 692 OFFCURVE",
"372 692 CURVE SMOOTH",
"248 692 LINE",
"130 687 LINE",
"128 672 LINE",
"229 663 LINE",
"224 671 LINE",
"121 21 LINE",
"129 29 LINE",
"24 15 LINE",
"22 0 LINE"
);
},
{
closed = 1;
nodes = (
"245 680 LINE",
"237 673 LINE",
"368 673 LINE SMOOTH",
"415 673 OFFCURVE",
"534 673 OFFCURVE",
"534 546 CURVE SMOOTH",
"534 431 OFFCURVE",
"435 346 OFFCURVE",
"282 346 CURVE SMOOTH",
"187 346 LINE",
"192 339 LINE"
);
}
);
width = 627;
},
{
anchors = (
{
name = bottom;
position = "{300, 0}";
},
{
name = top;
position = "{378, 710}";
}
);
background = {
paths = (
{
closed = 1;
nodes = (
"413 710 LINE",
"100 705 LINE",
"84 605 LINE",
"158 571 LINE",
"139 600 LINE",
"60 105 LINE",
"84 131 LINE",
"4 100 LINE",
"-12 0 LINE",
"300 0 LINE",
"316 100 LINE",
"247 132 LINE",
"257 105 LINE",
"336 600 LINE",
"314 572 LINE",
"397 610 LINE"
);
}
);
};
guideLines = (
{
angle = -99;
position = "{24, 231}";
},
{
angle = -99;
position = "{636, 231}";
}
);
layerId = "927AED37-E9E6-4F96-A08E-421C3785EFC6";
paths = (
{
closed = 1;
nodes = (
"300 0 LINE",
"316 100 LINE",
"247 132 LINE",
"257 105 LINE",
"289 295 LINE",
"254 266 LINE",
"294 267 LINE SMOOTH",
"340 268 OFFCURVE",
"343 266 OFFCURVE",
"360 200 CURVE SMOOTH",
"410 0 LINE",
"600 0 LINE",
"616 100 LINE",
"534 139 LINE",
"581 104 LINE",
"535 242 LINE SMOOTH",
"520 286 OFFCURVE",
"487 325 OFFCURVE",
"412 323 CURVE",
"409 290 LINE",
"552 308 OFFCURVE",
"648 390 OFFCURVE",
"648 529 CURVE SMOOTH",
"648 651 OFFCURVE",
"573 710 OFFCURVE",
"429 710 CURVE SMOOTH",
"363 710 LINE",
"100 705 LINE",
"84 605 LINE",
"158 571 LINE",
"139 600 LINE",
"60 105 LINE",
"84 131 LINE",
"4 100 LINE",
"-12 0 LINE"
);
},
{
closed = 1;
nodes = (
"336 600 LINE",
"310 566 LINE",
"385 566 LINE SMOOTH",
"405 566 OFFCURVE",
"443 566 OFFCURVE",
"443 513 CURVE SMOOTH",
"443 459 OFFCURVE",
"405 406 OFFCURVE",
"334 406 CURVE SMOOTH",
"278 406 LINE",
"300 362 LINE"
);
}
);
width = 659;
},
{
anchors = (
{
name = bottom;
position = "{286, 0}";
},
{
name = top;
position = "{383, 710}";
}
);
associatedMasterId = "927AED37-E9E6-4F96-A08E-421C3785EFC6";
background = {
paths = (
{
closed = 1;
nodes = (
"294 0 LINE",
"310 100 LINE",
"235 134 LINE",
"255 94 LINE",
"289 305 LINE",
"248 276 LINE",
"288 277 LINE SMOOTH",
"334 278 OFFCURVE",
"335 275 OFFCURVE",
"351 210 CURVE SMOOTH",
"404 0 LINE",
"594 0 LINE",
"610 100 LINE",
"528 139 LINE",
"575 104 LINE",
"529 252 LINE SMOOTH",
"515 296 OFFCURVE",
"481 335 OFFCURVE",
"406 333 CURVE",
"403 300 LINE",
"553 320 OFFCURVE",
"623 395 OFFCURVE",
"639 497 CURVE SMOOTH",
"660 630 OFFCURVE",
"585 710 OFFCURVE",
"423 710 CURVE SMOOTH",
"357 710 LINE",
"94 705 LINE",
"79 605 LINE",
"163 568 LINE",
"137 609 LINE",
"56 94 LINE",
"85 133 LINE",
"-2 100 LINE",
"-18 0 LINE"
);
},
{
closed = 1;
nodes = (
"335 597 LINE",
"294 566 LINE",
"386 566 LINE SMOOTH",
"436 566 OFFCURVE",
"449 540 OFFCURVE",
"443 501 CURVE SMOOTH",
"434 442 OFFCURVE",
"396 406 OFFCURVE",
"331 406 CURVE SMOOTH",
"272 406 LINE",
"299 372 LINE"
);
}
);
};
guideLines = (
{
angle = -99;
position = "{19, 231}";
},
{
angle = -99;
position = "{631, 231}";
}
);
layerId = "F0DA5006-B641-4385-A4BB-E20B6E72F597";
name = "Jul 3 17, 11:51";
paths = (
{
closed = 1;
nodes = (
"294 0 LINE",
"310 100 LINE",
"235 134 LINE",
"255 94 LINE",
"289 305 LINE",
"248 276 LINE",
"288 277 LINE SMOOTH",
"334 278 OFFCURVE",
"338 276 OFFCURVE",
"354 210 CURVE SMOOTH",
"404 0 LINE",
"594 0 LINE",
"610 100 LINE",
"528 139 LINE",
"575 104 LINE",
"529 252 LINE SMOOTH",
"515 296 OFFCURVE",
"481 335 OFFCURVE",
"406 333 CURVE",
"403 300 LINE",
"546 318 OFFCURVE",
"642 399 OFFCURVE",
"642 532 CURVE SMOOTH",
"642 650 OFFCURVE",
"567 710 OFFCURVE",
"423 710 CURVE SMOOTH",
"357 710 LINE",
"94 705 LINE",
"79 605 LINE",
"163 568 LINE",
"137 609 LINE",
"56 94 LINE",
"85 133 LINE",
"-2 100 LINE",
"-18 0 LINE"
);
},
{
closed = 1;
nodes = (
"335 597 LINE",
"294 566 LINE",
"379 566 LINE SMOOTH",
"424 566 OFFCURVE",
"437 547 OFFCURVE",
"437 514 CURVE SMOOTH",
"437 454 OFFCURVE",
"395 406 OFFCURVE",
"324 406 CURVE SMOOTH",
"272 406 LINE",
"299 372 LINE"
);
}
);
width = 641;
}
);
leftKerningGroup = H;
leftMetricsKey = H;
rightKerningGroup = R;
unicode = 0052;
},
{
glyphname = S;
layers = (
{
anchors = (
{
name = bottom;
position = "{262, 0}";
},
{
name = top;
position = "{370, 692}";
}
);
background = {
paths = (
{
closed = 1;
nodes = (
"484 7 OFFCURVE",
"484 196 CURVE SMOOTH",
"484 407 OFFCURVE",
"162 328 OFFCURVE",
"162 514 CURVE SMOOTH",
"162 667 OFFCURVE",
"379 721 OFFCURVE",
"523 644 CURVE",
"515 653 LINE",
"503 522 LINE",
"517 522 LINE",
"544 659 LINE",
"376 744 OFFCURVE",
"141 686 OFFCURVE",
"141 513 CURVE SMOOTH",
"141 310 OFFCURVE",
"463 388 OFFCURVE",
"463 193 CURVE SMOOTH",
"463 31 OFFCURVE",
"241 -30 OFFCURVE",
"81 50 CURVE",
"84 41 LINE",
"93 175 LINE",
"79 175 LINE",
"52 36 LINE",
"229 -56 OFFCURVE"
);
}
);
};
guideLines = (
{
angle = -99;
position = "{322, 382}";
}
);
layerId = "075BA79B-D813-4287-A9DD-CCAF2D535ED3";
paths = (
{
closed = 1;
nodes = (
"354 -6 OFFCURVE",
"475 65 OFFCURVE",
"475 197 CURVE SMOOTH",
"475 407 OFFCURVE",
"161 328 OFFCURVE",
"161 514 CURVE SMOOTH",
"161 620 OFFCURVE",
"264 679 OFFCURVE",
"374 679 CURVE SMOOTH",
"422 679 OFFCURVE",
"471 668 OFFCURVE",
"514 644 CURVE",
"507 653 LINE",
"494 522 LINE",
"508 522 LINE",
"535 659 LINE",
"485 685 OFFCURVE",
"429 698 OFFCURVE",
"374 698 CURVE SMOOTH",
"251 698 OFFCURVE",
"140 633 OFFCURVE",
"140 512 CURVE SMOOTH",
"140 310 OFFCURVE",
"454 388 OFFCURVE",
"454 193 CURVE SMOOTH",
"454 79 OFFCURVE",
"346 15 OFFCURVE",
"227 15 CURVE SMOOTH",
"178 15 OFFCURVE",
"126 26 OFFCURVE",
"80 50 CURVE",
"83 41 LINE",
"92 175 LINE",
"78 175 LINE",
"51 36 LINE",
"104 8 OFFCURVE",
"164 -6 OFFCURVE",
"222 -6 CURVE SMOOTH"
);
}
);
width = 575;
},
{
anchors = (
{
name = bottom;
position = "{260, 0}";
},
{
name = top;
position = "{374, 710}";
}
);
background = {
paths = (
{
closed = 1;
nodes = (
"263 -67 OFFCURVE",
"558 -8 OFFCURVE",
"558 241 CURVE SMOOTH",
"558 473 OFFCURVE",
"270 433 OFFCURVE",
"270 524 CURVE SMOOTH",
"270 585 OFFCURVE",
"369 588 OFFCURVE",
"455 565 CURVE",
"434 582 LINE",
"446 486 LINE",
"560 486 LINE",
"599 677 LINE",
"349 777 OFFCURVE",
"76 719 OFFCURVE",
"76 480 CURVE SMOOTH",
"76 254 OFFCURVE",
"362 298 OFFCURVE",
"362 195 CURVE SMOOTH",
"362 124 OFFCURVE",
"237 118 OFFCURVE",
"149 156 CURVE",
"167 126 LINE",
"158 241 LINE",
"42 241 LINE",
"8 28 LINE"
);
}
);
};
guideLines = (
{
angle = -99;
position = "{42, 241}";
},
{
angle = -99;
position = "{548, 231}";
},
{
angle = -99;
position = "{321, 382}";
}
);
layerId = "927AED37-E9E6-4F96-A08E-421C3785EFC6";
paths = (
{
closed = 1;
nodes = (
"413 -15 OFFCURVE",
"558 68 OFFCURVE",
"558 238 CURVE SMOOTH",
"558 478 OFFCURVE",
"270 429 OFFCURVE",
"270 526 CURVE SMOOTH",
"270 562 OFFCURVE",
"310 578 OFFCURVE",
"362 578 CURVE SMOOTH",
"391 578 OFFCURVE",
"424 573 OFFCURVE",
"455 565 CURVE",
"434 582 LINE",
"446 486 LINE",
"560 486 LINE",
"599 677 LINE",
"522 708 OFFCURVE",
"442 724 OFFCURVE",
"369 724 CURVE SMOOTH",
"206 724 OFFCURVE",
"76 643 OFFCURVE",
"76 484 CURVE SMOOTH",
"76 249 OFFCURVE",
"362 301 OFFCURVE",
"362 195 CURVE SMOOTH",
"362 152 OFFCURVE",
"316 133 OFFCURVE",
"260 133 CURVE SMOOTH",
"224 133 OFFCURVE",
"184 141 OFFCURVE",
"149 156 CURVE",
"167 126 LINE",
"158 241 LINE",
"42 241 LINE",
"8 28 LINE",
"84 0 OFFCURVE",
"164 -15 OFFCURVE",
"238 -15 CURVE SMOOTH"
);
}
);
width = 593;
},
{
anchors = (
{
name = bottom;
position = "{249, 0}";
},
{
name = top;
position = "{367, 710}";
}
);
associatedMasterId = "927AED37-E9E6-4F96-A08E-421C3785EFC6";
background = {
anchors = (
{
name = bottom;
position = "{249, 0}";
},
{
name = top;
position = "{367, 710}";
}
);
paths = (
{
closed = 1;
nodes = (
"266 562 OFFCURVE",
"309 577 OFFCURVE",
"357 577 CURVE SMOOTH",
"386 577 OFFCURVE",
"415 572 OFFCURVE",
"440 563 CURVE",
"424 582 LINE",
"435 486 LINE",
"550 486 LINE",
"593 679 LINE",
"518 709 OFFCURVE",
"440 725 OFFCURVE",
"368 725 CURVE SMOOTH",
"217 725 OFFCURVE",
"92 655 OFFCURVE",
"67 496 CURVE SMOOTH",
"27 245 OFFCURVE",
"368 298 OFFCURVE",
"350 188 CURVE SMOOTH",
"344 149 OFFCURVE",
"299 132 OFFCURVE",
"248 132 CURVE SMOOTH",
"212 132 OFFCURVE",
"173 141 OFFCURVE",
"144 157 CURVE",
"156 126 LINE",
"149 241 LINE",
"32 241 LINE",
"-2 26 LINE",
"68 -2 OFFCURVE",
"143 -16 OFFCURVE",
"216 -16 CURVE SMOOTH",
"376 -16 OFFCURVE",
"521 55 OFFCURVE",
"546 215 CURVE SMOOTH",
"587 470 OFFCURVE",
"245 426 OFFCURVE",
"261 528 CURVE SMOOTH"
);
}
);
};
guideLines = (
{
angle = -99;
position = "{32, 241}";
},
{
angle = -99;
position = "{517, 231}";
}
);
layerId = "ADF12B8F-B310-46E3-938A-717189D5C827";
name = "Aug 18 17, 19:15";
paths = (
{
closed = 1;
nodes = (
"403 -14 OFFCURVE",
"548 71 OFFCURVE",
"548 244 CURVE SMOOTH",
"548 476 OFFCURVE",
"260 428 OFFCURVE",
"260 524 CURVE SMOOTH",
"260 561 OFFCURVE",
"302 579 OFFCURVE",
"353 579 CURVE SMOOTH",
"382 579 OFFCURVE",
"415 573 OFFCURVE",
"445 565 CURVE",
"424 582 LINE",
"436 486 LINE",
"550 486 LINE",
"589 677 LINE",
"511 708 OFFCURVE",
"433 724 OFFCURVE",
"363 724 CURVE SMOOTH",
"194 724 OFFCURVE",
"66 631 OFFCURVE",
"66 475 CURVE SMOOTH",
"66 244 OFFCURVE",
"352 302 OFFCURVE",
"352 195 CURVE SMOOTH",
"352 153 OFFCURVE",
"307 131 OFFCURVE",
"249 131 CURVE SMOOTH",
"214 131 OFFCURVE",
"174 139 OFFCURVE",
"139 154 CURVE",
"157 126 LINE",
"148 241 LINE",
"32 241 LINE",
"-2 28 LINE",
"74 0 OFFCURVE",
"152 -14 OFFCURVE",
"225 -14 CURVE SMOOTH"
);
}
);
width = 577;
}
);
leftKerningGroup = S;
rightKerningGroup = S;
unicode = 0053;
},
{
glyphname = Scedilla;
layers = (
{
background = {
guideLines = (
{
angle = -99;
position = "{75, -45}";
}
);
paths = (
{
closed = 1;
nodes = (
"520 426 OFFCURVE",
"134 312 OFFCURVE",
"168 527 CURVE SMOOTH",
"185 635 OFFCURVE",
"282 678 OFFCURVE",
"378 678 CURVE SMOOTH",
"427 678 OFFCURVE",
"477 666 OFFCURVE",
"515 647 CURVE",
"504 522 LINE",
"518 522 LINE",
"545 659 LINE",
"494 685 OFFCURVE",
"438 698 OFFCURVE",
"384 698 CURVE SMOOTH",
"265 698 OFFCURVE",
"165 640 OFFCURVE",
"147 523 CURVE SMOOTH",
"111 290 OFFCURVE",
"497 404 OFFCURVE",
"461 178 CURVE SMOOTH",
"444 71 OFFCURVE",
"342 15 OFFCURVE",
"234 15 CURVE SMOOTH",
"184 15 OFFCURVE",
"134 26 OFFCURVE",
"88 49 CURVE",
"97 175 LINE",
"83 175 LINE",
"55 36 LINE",
"109 8 OFFCURVE",
"169 -6 OFFCURVE",
"228 -6 CURVE SMOOTH",
"235 -6 OFFCURVE",
"242 -6 OFFCURVE",
"250 -5 CURVE",
"233 -87 LINE",
"297 -88 OFFCURVE",
"323 -106 OFFCURVE",
"318 -141 CURVE SMOOTH",
"313 -175 OFFCURVE",
"280 -192 OFFCURVE",
"243 -192 CURVE SMOOTH",
"223 -192 OFFCURVE",
"201 -187 OFFCURVE",
"183 -179 CURVE",
"173 -196 LINE",
"194 -207 OFFCURVE",
"218 -212 OFFCURVE",
"240 -212 CURVE SMOOTH",
"288 -212 OFFCURVE",
"330 -188 OFFCURVE",
"338 -138 CURVE SMOOTH",
"344 -102 OFFCURVE",
"328 -74 OFFCURVE",
"258 -68 CURVE",
"268 -4 LINE",
"374 9 OFFCURVE",
"465 70 OFFCURVE",
"482 181 CURVE SMOOTH"
);
}
);
};
components = (
{
name = S;
},
{
name = cedillacomb.case;
transform = "{1, 0, 0, 1, 147, 0}";
}
);
layerId = "075BA79B-D813-4287-A9DD-CCAF2D535ED3";
width = 575;
},
{
background = {
paths = (
{
closed = 1;
nodes = (
"588 470 OFFCURVE",
"248 426 OFFCURVE",
"266 528 CURVE SMOOTH",
"272 562 OFFCURVE",
"313 577 OFFCURVE",
"361 577 CURVE SMOOTH",
"384 577 OFFCURVE",
"407 574 OFFCURVE",
"429 568 CURVE",
"438 486 LINE",
"552 486 LINE",
"595 679 LINE",
"521 709 OFFCURVE",
"443 725 OFFCURVE",
"372 725 CURVE SMOOTH",
"223 725 OFFCURVE",
"98 655 OFFCURVE",
"73 496 CURVE SMOOTH",
"34 245 OFFCURVE",
"371 298 OFFCURVE",
"354 188 CURVE SMOOTH",
"348 149 OFFCURVE",
"303 132 OFFCURVE",
"252 132 CURVE SMOOTH",
"221 132 OFFCURVE",
"187 139 OFFCURVE",
"159 152 CURVE",
"154 241 LINE",
"38 241 LINE",
"4 26 LINE",
"62 3 OFFCURVE",
"123 -11 OFFCURVE",
"184 -15 CURVE",
"162 -117 LINE",
"210 -119 OFFCURVE",
"261 -129 OFFCURVE",
"257 -151 CURVE SMOOTH",
"254 -166 OFFCURVE",
"240 -172 OFFCURVE",
"219 -172 CURVE SMOOTH",
"194 -172 OFFCURVE",
"161 -164 OFFCURVE",
"136 -154 CURVE",
"87 -246 LINE",
"121 -266 OFFCURVE",
"162 -275 OFFCURVE",
"203 -275 CURVE SMOOTH",
"291 -275 OFFCURVE",
"377 -232 OFFCURVE",
"391 -146 CURVE SMOOTH",
"400 -89 OFFCURVE",
"363 -49 OFFCURVE",
"291 -39 CURVE",
"296 -10 LINE",
"422 9 OFFCURVE",
"527 81 OFFCURVE",
"548 215 CURVE SMOOTH"
);
}
);
};
components = (
{
name = S;
},
{
name = cedillacomb.case;
transform = "{1, 0, 0, 1, 153, 0}";
}
);
layerId = "927AED37-E9E6-4F96-A08E-421C3785EFC6";
width = 593;
}
);
leftKerningGroup = S;
rightKerningGroup = S;
unicode = 015E;
},
{
glyphname = Sdotbelowdotaccent;
layers = (
{
background = {
components = (
{
name = S;
},
{
name = dotaccentcomb.case;
transform = "{1, 0, 0, 1, 187, -1}";
},
{
name = dotbelowcomb.case;
transform = "{1, 0, 0, 1, 249, 0}";
}
);
};
components = (
{
name = S;
},
{
name = dotaccentcomb.case;
transform = "{1, 0, 0, 1, 176, 0}";
},
{
name = dotbelowcomb.case;
transform = "{1, 0, 0, 1, 178, 0}";
}
);
guideLines = (
{
angle = 90;
position = "{-153, 0}";
}
);
layerId = "075BA79B-D813-4287-A9DD-CCAF2D535ED3";
width = 575;
},
{
background = {
paths = (
{
closed = 1;
nodes = (
"268 562 OFFCURVE",
"311 577 OFFCURVE",
"359 577 CURVE SMOOTH",
"387 577 OFFCURVE",
"416 572 OFFCURVE",
"441 563 CURVE",
"425 582 LINE",
"436 486 LINE",
"550 486 LINE",
"593 679 LINE",
"519 709 OFFCURVE",
"441 725 OFFCURVE",
"370 725 CURVE SMOOTH",
"220 725 OFFCURVE",
"96 655 OFFCURVE",
"71 496 CURVE SMOOTH",
"32 245 OFFCURVE",
"368 298 OFFCURVE",
"351 188 CURVE SMOOTH",
"345 149 OFFCURVE",
"301 132 OFFCURVE",
"250 132 CURVE SMOOTH",
"214 132 OFFCURVE",
"175 141 OFFCURVE",
"146 157 CURVE",
"159 126 LINE",
"152 241 LINE",
"36 241 LINE",
"2 26 LINE",
"71 -2 OFFCURVE",
"146 -16 OFFCURVE",
"218 -16 CURVE SMOOTH",
"377 -16 OFFCURVE",
"521 55 OFFCURVE",
"546 215 CURVE SMOOTH",
"586 470 OFFCURVE",
"248 426 OFFCURVE",
"263 528 CURVE SMOOTH"
);
},
{
closed = 1;
nodes = (
"435 761 OFFCURVE",
"486 798 OFFCURVE",
"497 870 CURVE SMOOTH",
"508 943 OFFCURVE",
"471 978 OFFCURVE",
"411 978 CURVE SMOOTH",
"350 978 OFFCURVE",
"299 942 OFFCURVE",
"288 869 CURVE SMOOTH",
"277 799 OFFCURVE",
"313 761 OFFCURVE",
"375 761 CURVE SMOOTH"
);
},
{
closed = 1;
nodes = (
"269 -258 OFFCURVE",
"320 -221 OFFCURVE",
"331 -149 CURVE SMOOTH",
"342 -76 OFFCURVE",
"305 -41 OFFCURVE",
"245 -41 CURVE SMOOTH",
"184 -41 OFFCURVE",
"133 -77 OFFCURVE",
"122 -150 CURVE SMOOTH",
"111 -220 OFFCURVE",
"147 -258 OFFCURVE",
"209 -258 CURVE SMOOTH"
);
}
);
};
components = (
{
name = S;
},
{
name = dotaccentcomb.case;
transform = "{1, 0, 0, 1, 166, 0}";
},
{
name = dotbelowcomb.case;
transform = "{1, 0, 0, 1, 164, 0}";
}
);
layerId = "927AED37-E9E6-4F96-A08E-421C3785EFC6";
width = 593;
}
);
leftKerningGroup = S;
rightKerningGroup = S;
unicode = 1E68;
},
{
glyphname = Germandbls;
layers = (
{
background = {
paths = (
{
closed = 1;
nodes = (
"570 -6 OFFCURVE",
"635 88 OFFCURVE",
"650 181 CURVE SMOOTH",
"671 312 OFFCURVE",
"586 373 OFFCURVE",
"419 390 CURVE",
"420 381 LINE",
"648 626 LINE",
"650 647 LINE",
"581 681 OFFCURVE",
"513 698 OFFCURVE",
"450 698 CURVE SMOOTH",
"319 698 OFFCURVE",
"215 620 OFFCURVE",
"188 448 CURVE SMOOTH",
"121 21 LINE",
"129 29 LINE",
"24 15 LINE",
"22 0 LINE",
"137 0 LINE",
"207 446 LINE SMOOTH",
"232 605 OFFCURVE",
"325 679 OFFCURVE",
"449 679 CURVE SMOOTH",
"506 679 OFFCURVE",
"571 663 OFFCURVE",
"637 631 CURVE",
"636 640 LINE",
"404 391 LINE",
"402 373 LINE",
"566 356 OFFCURVE",
"648 303 OFFCURVE",
"629 183 CURVE SMOOTH",
"615 97 OFFCURVE",
"554 14 OFFCURVE",
"429 14 CURVE SMOOTH",
"374 14 OFFCURVE",
"329 30 OFFCURVE",
"296 46 CURVE",
"300 37 LINE",
"310 171 LINE",
"295 171 LINE",
"268 32 LINE",
"310 10 OFFCURVE",
"361 -6 OFFCURVE",
"422 -6 CURVE SMOOTH"
);
}
);
};
layerId = "075BA79B-D813-4287-A9DD-CCAF2D535ED3";
paths = (
{
closed = 1;
nodes = (
"548 -6 OFFCURVE",
"648 85 OFFCURVE",
"648 221 CURVE SMOOTH",
"648 344 OFFCURVE",
"566 385 OFFCURVE",
"403 396 CURVE",
"404 387 LINE",
"645 671 LINE",
"648 692 LINE",
"248 692 LINE",
"130 687 LINE",
"128 672 LINE",
"230 662 LINE",
"224 670 LINE",
"121 21 LINE",
"129 29 LINE",
"24 15 LINE",
"22 0 LINE",
"138 0 LINE",
"245 680 LINE",
"237 672 LINE",
"632 673 LINE",
"633 685 LINE",
"388 397 LINE",
"385 378 LINE",
"545 369 OFFCURVE",
"626 334 OFFCURVE",
"626 218 CURVE SMOOTH",
"626 99 OFFCURVE",
"541 14 OFFCURVE",
"399 14 CURVE SMOOTH",
"361 14 OFFCURVE",
"318 20 OFFCURVE",
"274 32 CURVE",
"277 24 LINE",
"283 137 LINE",
"268 137 LINE",
"244 19 LINE",
"295 3 OFFCURVE",
"348 -6 OFFCURVE",
"396 -6 CURVE SMOOTH"
);
}
);
width = 715;
},
{
background = {
paths = (
{
closed = 1;
nodes = (
"300 0 LINE",
"316 100 LINE",
"247 132 LINE",
"257 105 LINE",
"291 318 LINE",
"259 290 LINE",
"504 290 LINE",
"482 319 LINE",
"448 105 LINE",
"472 131 LINE",
"392 100 LINE",
"376 0 LINE",
"688 0 LINE",
"704 100 LINE",
"635 132 LINE",
"645 105 LINE",
"724 600 LINE",
"702 572 LINE",
"785 610 LINE",
"801 710 LINE",
"488 705 LINE",
"472 605 LINE",
"546 571 LINE",
"527 600 LINE",
"497 411 LINE",
"531 435 LINE",
"285 435 LINE",
"306 411 LINE",
"336 600 LINE",
"314 572 LINE",
"397 610 LINE",
"413 710 LINE",
"100 705 LINE",
"84 605 LINE",
"158 571 LINE",
"139 600 LINE",
"60 105 LINE",
"84 131 LINE",
"4 100 LINE",
"-12 0 LINE"
);
}
);
};
layerId = "927AED37-E9E6-4F96-A08E-421C3785EFC6";
paths = (
{
closed = 1;
nodes = (
"584 -12 OFFCURVE",
"694 88 OFFCURVE",
"694 232 CURVE SMOOTH",
"694 358 OFFCURVE",
"609 386 OFFCURVE",
"516 415 CURVE",
"535 390 LINE",
"688 573 LINE",
"704 710 LINE",
"345 710 LINE",
"100 705 LINE",
"84 605 LINE",
"157 572 LINE",
"140 610 LINE",
"60 100 LINE",
"91 134 LINE",
"4 100 LINE",
"-12 0 LINE",
"240 0 LINE",
"335 595 LINE",
"299 565 LINE",
"542 565 LINE",
"554 619 LINE",
"394 433 LINE",
"376 315 LINE",
"460 302 OFFCURVE",
"497 285 OFFCURVE",
"497 231 CURVE SMOOTH",
"497 193 OFFCURVE",
"477 133 OFFCURVE",
"443 133 CURVE SMOOTH",
"431 133 OFFCURVE",
"416 133 OFFCURVE",
"403 142 CURVE",
"430 113 LINE",
"418 194 LINE",
"315 194 LINE",
"279 8 LINE",
"332 -8 OFFCURVE",
"387 -12 OFFCURVE",
"420 -12 CURVE SMOOTH"
);
}
);
width = 719;
}
);
leftKerningGroup = H;
rightKerningGroup = S;
unicode = 1E9E;
},
{
glyphname = T;
layers = (
{
anchors = (
{
name = bottom;
position = "{228, 0}";
},
{
name = center;
position = "{284, 355}";
},
{
name = top;
position = "{338, 692}";
}
);
background = {
anchors = (
{
name = bottom;
position = "{228, 0}";
},
{
name = center;
position = "{283, 346}";
},
{
name = top;
position = "{338, 692}";
}
);
paths = (
{
closed = 1;
nodes = (
"348 0 LINE",
"350 15 LINE",
"236 29 LINE",
"241 21 LINE",
"345 680 LINE",
"338 673 LINE",
"545 673 LINE",
"538 680 LINE",
"533 552 LINE",
"547 552 LINE",
"569 692 LINE",
"106 692 LINE",
"84 552 LINE",
"99 552 LINE",
"133 680 LINE",
"124 673 LINE",
"332 673 LINE",
"326 680 LINE",
"222 21 LINE",
"230 29 LINE",
"110 15 LINE",
"108 0 LINE"
);
}
);
};
layerId = "075BA79B-D813-4287-A9DD-CCAF2D535ED3";
paths = (
{
closed = 1;
nodes = (
"348 0 LINE",
"350 15 LINE",
"236 29 LINE",
"241 21 LINE",
"345 680 LINE",
"337 673 LINE",
"548 673 LINE",
"541 680 LINE",
"536 552 LINE",
"550 552 LINE",
"572 692 LINE",
"102 692 LINE",
"80 552 LINE",
"95 552 LINE",
"129 680 LINE",
"120 673 LINE",
"332 673 LINE",
"325 680 LINE",
"221 21 LINE",
"230 29 LINE",
"109 15 LINE",
"107 0 LINE"
);
}
);
width = 538;
},
{
anchors = (
{
name = bottom;
position = "{272, 0}";
},
{
name = center;
position = "{326, 337}";
},
{
name = top;
position = "{383, 710}";
}
);
background = {
paths = (
{
closed = 1;
nodes = (
"543 710 LINE",
"230 705 LINE",
"214 605 LINE",
"288 571 LINE",
"269 600 LINE",
"190 105 LINE",
"214 131 LINE",
"124 100 LINE",
"108 0 LINE",
"440 0 LINE",
"456 100 LINE",
"377 132 LINE",
"387 105 LINE",
"466 600 LINE",
"444 572 LINE",
"527 610 LINE"
);
}
);
};
guideLines = (
{
angle = -99;
position = "{310, 243}";
},
{
angle = -99;
position = "{13, 231}";
},
{
angle = -99;
position = "{600, 231}";
}
);
layerId = "927AED37-E9E6-4F96-A08E-421C3785EFC6";
paths = (
{
closed = 1;
nodes = (
"440 0 LINE",
"456 100 LINE",
"377 132 LINE",
"387 105 LINE",
"465 595 LINE",
"419 565 LINE",
"552 565 LINE",
"516 595 LINE",
"527 477 LINE",
"642 477 LINE",
"680 710 LINE",
"89 710 LINE",
"52 477 LINE",
"167 477 LINE",
"216 603 LINE",
"169 565 LINE",
"299 565 LINE",
"268 595 LINE",
"190 105 LINE",
"214 131 LINE",
"124 100 LINE",
"108 0 LINE"
);
}
);
width = 628;
}
);
leftKerningGroup = T;
rightKerningGroup = T;
unicode = 0054;
},
{
glyphname = Tbar;
layers = (
{
background = {
components = (
{
name = T;
}
);
paths = (
{
closed = 1;
nodes = (
"117 356 LINE",
"419 356 LINE",
"422 375 LINE",
"120 375 LINE"
);
}
);
};
components = (
{
name = T;
},
{
name = strokeshortcomb;
transform = "{1.03226, 0, 0, 1, 42, 55}";
}
);
guideLines = (
{
angle = -99;
position = "{238, 231}";
},
{
angle = -99;
position = "{258, 231}";
},
{
angle = -99;
position = "{399, 231}";
},
{
angle = -99;
position = "{97, 231}";
}
);
layerId = "075BA79B-D813-4287-A9DD-CCAF2D535ED3";
width = 538;
},
{
background = {
components = (
{
name = T;
}
);
paths = (
{
closed = 1;
nodes = (
"115 279 LINE",
"540 279 LINE",
"559 394 LINE",
"133 394 LINE"
);
}
);
};
components = (
{
name = T;
},
{
name = strokeshortcomb;
transform = "{1.03226, 0, 0, 1.2, 80, -21}";
}
);
guideLines = (
{
angle = -99;
position = "{221, 231}";
},
{
angle = -99;
position = "{418, 231}";
},
{
angle = -99;
position = "{533, 231}";
},
{
angle = -99;
position = "{107, 231}";
}
);
layerId = "927AED37-E9E6-4F96-A08E-421C3785EFC6";
width = 628;
}
);
leftKerningGroup = T;
leftMetricsKey = T;
rightKerningGroup = T;
rightMetricsKey = T;
unicode = 0166;
},
{
glyphname = Tcedilla;
layers = (
{
background = {
components = (
{
name = T;
},
{
name = cedillacomb.case;
transform = "{1, 0, 0, 1, 130, 0}";
}
);
};
components = (
{
name = T;
},
{
name = cedillacomb.case;
transform = "{1, 0, 0, 1, 113, 0}";
}
);
layerId = "075BA79B-D813-4287-A9DD-CCAF2D535ED3";
width = 538;
},
{
background = {
components = (
{
name = T;
}
);
paths = (
{
closed = 1;
nodes = (
"40 474 LINE",
"154 474 LINE",
"191 565 LINE",
"248 565 LINE",
"178 123 LINE",
"108 100 LINE",
"92 0 LINE",
"191 0 LINE",
"165 -117 LINE",
"213 -119 OFFCURVE",
"264 -129 OFFCURVE",
"260 -151 CURVE SMOOTH",
"257 -166 OFFCURVE",
"243 -172 OFFCURVE",
"222 -172 CURVE SMOOTH",
"197 -172 OFFCURVE",
"164 -164 OFFCURVE",
"139 -154 CURVE",
"90 -246 LINE",
"124 -266 OFFCURVE",
"165 -275 OFFCURVE",
"206 -275 CURVE SMOOTH",
"294 -275 OFFCURVE",
"380 -232 OFFCURVE",
"394 -146 CURVE SMOOTH",
"403 -89 OFFCURVE",
"366 -49 OFFCURVE",
"294 -39 CURVE",
"300 0 LINE",
"420 0 LINE",
"436 100 LINE",
"373 124 LINE",
"443 565 LINE",
"500 565 LINE",
"508 474 LINE",
"622 474 LINE",
"659 710 LINE",
"78 710 LINE"
);
}
);
};
components = (
{
name = T;
},
{
name = cedillacomb.case;
transform = "{1, 0, 0, 1, 165, 0}";
}
);
layerId = "927AED37-E9E6-4F96-A08E-421C3785EFC6";
width = 628;
}
);
leftKerningGroup = T;
rightKerningGroup = T;
unicode = 0162;
},
{
glyphname = U;
layers = (
{
anchors = (
{
name = bottom;
position = "{327, 0}";
},
{
name = ogonek;
position = "{396, 0}";
},
{
name = top;
position = "{433, 692}";
},
{
name = topright;
position = "{747, 690}";
}
);
background = {
anchors = (
{
name = bottom;
position = "{327, 0}";
},
{
name = ogonek;
position = "{394, 0}";
},
{
name = top;
position = "{437, 692}";
},
{
name = topright;
position = "{713, 689}";
}
);
paths = (
{
closed = 1;
nodes = (
"548 672 LINE",
"649 664 LINE",
"643 671 LINE",
"577 254 LINE SMOOTH",
"553 101 OFFCURVE",
"494 13 OFFCURVE",
"325 13 CURVE SMOOTH",
"171 13 OFFCURVE",
"131 88 OFFCURVE",
"155 245 CURVE SMOOTH",
"223 671 LINE",
"215 663 LINE",
"320 677 LINE",
"322 692 LINE",
"110 687 LINE",
"108 672 LINE",
"209 663 LINE",
"204 671 LINE",
"136 245 LINE SMOOTH",
"110 78 OFFCURVE",
"156 -6 OFFCURVE",
"323 -6 CURVE SMOOTH",
"503 -6 OFFCURVE",
"571 90 OFFCURVE",
"597 254 CURVE SMOOTH",
"663 671 LINE",
"655 663 LINE",
"760 677 LINE",
"762 692 LINE",
"550 687 LINE"
);
}
);
};
guideLines = (
{
angle = 81.023;
position = "{377, 336}";
}
);
layerId = "075BA79B-D813-4287-A9DD-CCAF2D535ED3";
paths = (
{
closed = 1;
nodes = (
"548 672 LINE",
"649 664 LINE",
"643 671 LINE",
"577 255 LINE SMOOTH",
"553 102 OFFCURVE",
"494 13 OFFCURVE",
"324 13 CURVE SMOOTH",
"197 13 OFFCURVE",
"148 63 OFFCURVE",
"148 168 CURVE SMOOTH",
"148 191 OFFCURVE",
"151 216 OFFCURVE",
"155 244 CURVE SMOOTH",
"223 671 LINE",
"215 663 LINE",
"320 677 LINE",
"322 692 LINE",
"109 687 LINE",
"107 672 LINE",
"209 663 LINE",
"203 671 LINE",
"135 246 LINE SMOOTH",
"130 218 OFFCURVE",
"128 192 OFFCURVE",
"128 168 CURVE SMOOTH",
"128 53 OFFCURVE",
"185 -6 OFFCURVE",
"324 -6 CURVE SMOOTH",
"503 -6 OFFCURVE",
"571 89 OFFCURVE",
"597 253 CURVE SMOOTH",
"663 671 LINE",
"654 663 LINE",
"761 677 LINE",
"763 692 LINE",
"550 687 LINE"
);
}
);
width = 736;
},
{
anchors = (
{
name = bottom;
position = "{314, 0}";
},
{
name = ogonek;
position = "{435, 0}";
},
{
name = top;
position = "{427, 710}";
},
{
name = topright;
position = "{723, 709}";
}
);
background = {
anchors = (
{
name = bottom;
position = "{313, 0}";
},
{
name = ogonek;
position = "{427, 0}";
},
{
name = top;
position = "{432, 710}";
},
{
name = topright;
position = "{662, 707}";
}
);
paths = (
{
closed = 1;
nodes = (
"772 710 LINE",
"459 705 LINE",
"443 605 LINE",
"517 571 LINE",
"498 600 LINE",
"419 105 LINE",
"443 131 LINE",
"363 100 LINE",
"347 0 LINE",
"659 0 LINE",
"675 100 LINE",
"606 132 LINE",
"616 105 LINE",
"695 600 LINE",
"673 572 LINE",
"756 610 LINE"
);
},
{
closed = 1;
nodes = (
"397 710 LINE",
"84 705 LINE",
"68 605 LINE",
"142 571 LINE",
"123 600 LINE",
"44 105 LINE",
"68 131 LINE",
"-12 100 LINE",
"-28 0 LINE",
"284 0 LINE",
"300 100 LINE",
"231 132 LINE",
"241 105 LINE",
"320 600 LINE",
"298 572 LINE",
"381 610 LINE"
);
}
);
};
guideLines = (
{
angle = -99;
position = "{699, 231}";
},
{
angle = 81.023;
position = "{366, 336}";
}
);
layerId = "927AED37-E9E6-4F96-A08E-421C3785EFC6";
paths = (
{
closed = 1;
nodes = (
"443 605 LINE",
"517 571 LINE",
"498 600 LINE",
"449 291 LINE SMOOTH",
"433 189 OFFCURVE",
"404 140 OFFCURVE",
"327 140 CURVE SMOOTH",
"279 140 OFFCURVE",
"261 159 OFFCURVE",
"261 205 CURVE SMOOTH",
"261 221 OFFCURVE",
"263 241 OFFCURVE",
"267 264 CURVE SMOOTH",
"320 600 LINE",
"298 572 LINE",
"375 610 LINE",
"391 710 LINE",
"84 705 LINE",
"68 605 LINE",
"139 573 LINE",
"123 600 LINE",
"71 276 LINE SMOOTH",
"67 248 OFFCURVE",
"64 223 OFFCURVE",
"64 200 CURVE SMOOTH",
"64 53 OFFCURVE",
"150 -15 OFFCURVE",
"315 -15 CURVE SMOOTH",
"499 -15 OFFCURVE",
"612 67 OFFCURVE",
"645 279 CURVE SMOOTH",
"695 600 LINE",
"673 572 LINE",
"756 610 LINE",
"772 710 LINE",
"459 705 LINE"
);
}
);
width = 715;
}
);
leftKerningGroup = U;
rightKerningGroup = U;
unicode = 0055;
},
{
glyphname = Uhookabove;
layers = (
{
background = {
paths = (
{
closed = 1;
nodes = (
"562 672 LINE",
"673 664 LINE",
"667 671 LINE",
"601 254 LINE SMOOTH",
"577 101 OFFCURVE",
"514 13 OFFCURVE",
"329 13 CURVE SMOOTH",
"160 13 OFFCURVE",
"115 88 OFFCURVE",
"140 245 CURVE SMOOTH",
"207 671 LINE",
"199 663 LINE",
"313 677 LINE",
"316 692 LINE",
"84 687 LINE",
"81 672 LINE",
"192 663 LINE",
"186 671 LINE",
"119 245 LINE SMOOTH",
"93 78 OFFCURVE",
"144 -6 OFFCURVE",
"327 -6 CURVE SMOOTH",
"523 -6 OFFCURVE",
"596 90 OFFCURVE",
"622 254 CURVE SMOOTH",
"688 671 LINE",
"680 663 LINE",
"794 677 LINE",
"797 692 LINE",
"565 687 LINE"
);
},
{
closed = 1;
nodes = (
"456 730 LINE",
"461 761 LINE",
"512 767 OFFCURVE",
"543 792 OFFCURVE",
"548 828 CURVE SMOOTH",
"554 872 OFFCURVE",
"521 890 OFFCURVE",
"478 890 CURVE SMOOTH",
"457 890 OFFCURVE",
"435 886 OFFCURVE",
"413 878 CURVE",
"416 862 LINE",
"437 868 OFFCURVE",
"457 871 OFFCURVE",
"474 871 CURVE SMOOTH",
"507 871 OFFCURVE",
"529 859 OFFCURVE",
"524 827 CURVE SMOOTH",
"519 794 OFFCURVE",
"489 778 OFFCURVE",
"442 776 CURVE",
"435 730 LINE"
);
}
);
};
components = (
{
name = U;
},
{
name = hookabovecomb.case;
transform = "{1, 0, 0, 1, 212, 0}";
}
);
layerId = "075BA79B-D813-4287-A9DD-CCAF2D535ED3";
width = 736;
},
{
background = {
paths = (
{
closed = 1;
nodes = (
"437 605 LINE",
"505 575 LINE",
"497 621 LINE",
"444 285 LINE SMOOTH",
"428 183 OFFCURVE",
"403 140 OFFCURVE",
"327 140 CURVE SMOOTH",
"255 140 OFFCURVE",
"246 180 OFFCURVE",
"260 270 CURVE SMOOTH",
"316 620 LINE",
"291 572 LINE",
"371 610 LINE",
"387 710 LINE",
"77 705 LINE",
"61 605 LINE",
"133 573 LINE",
"121 620 LINE",
"65 270 LINE SMOOTH",
"33 70 OFFCURVE",
"112 -15 OFFCURVE",
"297 -15 CURVE SMOOTH",
"484 -15 OFFCURVE",
"606 73 OFFCURVE",
"639 285 CURVE SMOOTH",
"692 621 LINE",
"664 572 LINE",
"748 610 LINE",
"763 710 LINE",
"453 705 LINE"
);
},
{
closed = 1;
nodes = (
"480 756 LINE",
"486 792 LINE",
"553 806 OFFCURVE",
"586 846 OFFCURVE",
"594 897 CURVE SMOOTH",
"607 977 OFFCURVE",
"548 1012 OFFCURVE",
"469 1012 CURVE SMOOTH",
"432 1012 OFFCURVE",
"391 1004 OFFCURVE",
"350 990 CURVE",
"358 903 LINE",
"380 909 OFFCURVE",
"403 914 OFFCURVE",
"422 914 CURVE SMOOTH",
"445 914 OFFCURVE",
"461 907 OFFCURVE",
"458 887 CURVE SMOOTH",
"454 863 OFFCURVE",
"427 850 OFFCURVE",
"377 847 CURVE",
"363 756 LINE"
);
}
);
};
components = (
{
name = U;
},
{
name = hookabovecomb.case;
transform = "{1, 0, 0, 1, 207, 0}";
}
);
layerId = "927AED37-E9E6-4F96-A08E-421C3785EFC6";
width = 715;
}
);
leftKerningGroup = U;
rightKerningGroup = U;
unicode = 1EE6;
},
{
glyphname = Uhorn;
layers = (
{
anchors = (
{
name = bottom;
position = "{331, 0}";
},
{
name = top;
position = "{440, 692}";
}
);
background = {
paths = (
{
closed = 1;
nodes = (
"724 669 OFFCURVE",
"762 701 OFFCURVE",
"769 752 CURVE SMOOTH",
"772 773 OFFCURVE",
"770 796 OFFCURVE",
"764 821 CURVE",
"744 814 LINE",
"748 789 OFFCURVE",
"749 768 OFFCURVE",
"746 751 CURVE SMOOTH",
"739 711 OFFCURVE",
"716 691 OFFCURVE",
"665 690 CURVE SMOOTH",
"551 687 LINE",
"549 672 LINE",
"649 664 LINE",
"644 671 LINE",
"581 254 LINE SMOOTH",
"558 101 OFFCURVE",
"500 13 OFFCURVE",
"332 13 CURVE SMOOTH",
"179 13 OFFCURVE",
"138 88 OFFCURVE",
"162 245 CURVE SMOOTH",
"226 671 LINE",
"219 663 LINE",
"323 677 LINE",
"325 692 LINE",
"115 687 LINE",
"112 672 LINE",
"213 663 LINE",
"207 671 LINE",
"143 245 LINE SMOOTH",
"118 78 OFFCURVE",
"164 -6 OFFCURVE",
"330 -6 CURVE SMOOTH",
"508 -6 OFFCURVE",
"575 90 OFFCURVE",
"600 254 CURVE SMOOTH",
"664 680 LINE",
"657 670 LINE"
);
}
);
};
layerId = "075BA79B-D813-4287-A9DD-CCAF2D535ED3";
paths = (
{
closed = 1;
nodes = (
"503 -6 OFFCURVE",
"571 89 OFFCURVE",
"597 253 CURVE SMOOTH",
"664 678 LINE",
"656 672 LINE",
"732 666 OFFCURVE",
"771 709 OFFCURVE",
"771 775 CURVE SMOOTH",
"771 789 OFFCURVE",
"769 805 OFFCURVE",
"765 821 CURVE",
"745 816 LINE",
"748 801 OFFCURVE",
"749 786 OFFCURVE",
"749 775 CURVE SMOOTH",
"749 721 OFFCURVE",
"725 692 OFFCURVE",
"664 690 CURVE SMOOTH",
"550 687 LINE",
"548 672 LINE",
"649 664 LINE",
"643 671 LINE",
"577 255 LINE SMOOTH",
"553 102 OFFCURVE",
"494 13 OFFCURVE",
"325 13 CURVE SMOOTH",
"198 13 OFFCURVE",
"148 63 OFFCURVE",
"148 167 CURVE SMOOTH",
"148 193 OFFCURVE",
"151 216 OFFCURVE",
"155 244 CURVE SMOOTH",
"223 671 LINE",
"215 663 LINE",
"320 677 LINE",
"322 692 LINE",
"109 687 LINE",
"107 672 LINE",
"209 663 LINE",
"203 671 LINE",
"135 246 LINE SMOOTH",
"130 218 OFFCURVE",
"128 191 OFFCURVE",
"128 169 CURVE SMOOTH",
"128 53 OFFCURVE",
"183 -6 OFFCURVE",
"324 -6 CURVE SMOOTH"
);
}
);
width = 730;
},
{
anchors = (
{
name = bottom;
position = "{317, 0}";
},
{
name = top;
position = "{430, 710}";
}
);
background = {
anchors = (
{
name = bottom;
position = "{317, 0}";
},
{
name = top;
position = "{430, 710}";
}
);
paths = (
{
closed = 1;
nodes = (
"731 604 OFFCURVE",
"811 665 OFFCURVE",
"824 752 CURVE SMOOTH",
"829 786 OFFCURVE",
"824 824 OFFCURVE",
"810 867 CURVE",
"670 837 LINE",
"677 806 OFFCURVE",
"679 779 OFFCURVE",
"676 759 CURVE SMOOTH",
"671 728 OFFCURVE",
"652 710 OFFCURVE",
"611 709 CURVE SMOOTH",
"456 705 LINE",
"441 605 LINE",
"508 575 LINE",
"500 621 LINE",
"449 285 LINE SMOOTH",
"434 183 OFFCURVE",
"409 140 OFFCURVE",
"334 140 CURVE SMOOTH",
"262 140 OFFCURVE",
"252 180 OFFCURVE",
"266 270 CURVE SMOOTH",
"319 620 LINE",
"295 572 LINE",
"375 610 LINE",
"390 710 LINE",
"79 705 LINE",
"64 605 LINE",
"137 573 LINE",
"124 620 LINE",
"71 270 LINE SMOOTH",
"41 70 OFFCURVE",
"120 -15 OFFCURVE",
"305 -15 CURVE SMOOTH",
"492 -15 OFFCURVE",
"613 73 OFFCURVE",
"645 285 CURVE SMOOTH",
"699 647 LINE",
"608 609 LINE"
);
}
);
};
layerId = "927AED37-E9E6-4F96-A08E-421C3785EFC6";
paths = (
{
closed = 1;
nodes = (
"597 -15 OFFCURVE",
"632 195 OFFCURVE",
"645 279 CURVE SMOOTH",
"699 625 LINE",
"622 607 LINE",
"753 615 OFFCURVE",
"828 669 OFFCURVE",
"828 773 CURVE SMOOTH",
"828 801 OFFCURVE",
"822 832 OFFCURVE",
"811 867 CURVE",
"670 837 LINE",
"675 817 OFFCURVE",
"678 798 OFFCURVE",
"678 781 CURVE SMOOTH",
"678 711 OFFCURVE",
"625 708 OFFCURVE",
"604 708 CURVE SMOOTH",
"459 705 LINE",
"443 605 LINE",
"517 571 LINE",
"498 600 LINE",
"449 291 LINE SMOOTH",
"439 228 OFFCURVE",
"424 140 OFFCURVE",
"325 140 CURVE SMOOTH",
"278 140 OFFCURVE",
"261 160 OFFCURVE",
"261 204 CURVE SMOOTH",
"261 225 OFFCURVE",
"265 251 OFFCURVE",
"267 264 CURVE SMOOTH",
"320 600 LINE",
"298 572 LINE",
"375 610 LINE",
"391 710 LINE",
"84 705 LINE",
"68 605 LINE",
"139 573 LINE",
"123 600 LINE",
"71 276 LINE SMOOTH",
"69 263 OFFCURVE",
"64 235 OFFCURVE",
"64 200 CURVE SMOOTH",
"64 53 OFFCURVE",
"153 -15 OFFCURVE",
"314 -15 CURVE SMOOTH"
);
}
);
width = 741;
}
);
leftKerningGroup = U;
leftMetricsKey = U;
rightKerningGroup = Uhorn;
unicode = 01AF;
},
{
glyphname = V;
layers = (
{
anchors = (
{
name = bottom;
position = "{277, 0}";
},
{
name = top;
position = "{399, 692}";
}
);
background = {
anchors = (
{
name = bottom;
position = "{282, 0}";
},
{
name = top;
position = "{391, 692}";
}
);
paths = (
{
closed = 1;
nodes = (
"286 -2 LINE",
"633 670 LINE",
"623 663 LINE",
"723 677 LINE",
"726 692 LINE",
"502 687 LINE",
"500 672 LINE",
"616 664 LINE",
"613 670 LINE",
"278 19 LINE",
"282 19 LINE",
"178 670 LINE",
"174 663 LINE",
"294 677 LINE",
"296 692 LINE",
"72 687 LINE",
"69 672 LINE",
"166 663 LINE",
"158 670 LINE",
"267 -2 LINE"
);
}
);
};
layerId = "075BA79B-D813-4287-A9DD-CCAF2D535ED3";
paths = (
{
closed = 1;
nodes = (
"286 -2 LINE",
"628 670 LINE",
"618 663 LINE",
"719 677 LINE",
"721 692 LINE",
"495 687 LINE",
"493 672 LINE",
"610 664 LINE",
"608 670 LINE",
"278 19 LINE",
"282 19 LINE",
"183 670 LINE",
"179 663 LINE",
"300 677 LINE",
"302 692 LINE",
"75 687 LINE",
"72 672 LINE",
"170 663 LINE",
"163 670 LINE",
"267 -2 LINE"
);
}
);
width = 659;
},
{
anchors = (
{
name = bottom;
position = "{316, 0}";
},
{
name = top;
position = "{451, 710}";
}
);
background = {
anchors = (
{
name = bottom;
position = "{319, 0}";
},
{
name = top;
position = "{451, 710}";
}
);
paths = (
{
closed = 1;
nodes = (
"420 0 LINE",
"723 610 LINE",
"674 576 LINE",
"762 610 LINE",
"778 710 LINE",
"503 705 LINE",
"488 605 LINE",
"554 572 LINE",
"543 611 LINE",
"347 177 LINE",
"369 177 LINE",
"324 624 LINE",
"295 575 LINE",
"384 610 LINE",
"399 710 LINE",
"84 705 LINE",
"69 605 LINE",
"145 571 LINE",
"107 605 LINE",
"210 0 LINE"
);
}
);
};
layerId = "927AED37-E9E6-4F96-A08E-421C3785EFC6";
paths = (
{
closed = 1;
nodes = (
"422 0 LINE",
"726 610 LINE",
"677 576 LINE",
"765 610 LINE",
"780 710 LINE",
"503 705 LINE",
"488 605 LINE",
"556 572 LINE",
"547 611 LINE",
"347 177 LINE",
"374 177 LINE",
"326 624 LINE",
"295 575 LINE",
"379 610 LINE",
"392 710 LINE",
"75 705 LINE",
"59 605 LINE",
"143 571 LINE",
"103 605 LINE",
"210 0 LINE"
);
}
);
width = 717;
}
);
leftKerningGroup = V;
rightKerningGroup = V;
unicode = 0056;
},
{
glyphname = W;
layers = (
{
anchors = (
{
name = bottom;
position = "{453, 0}";
},
{
name = top;
position = "{565, 691}";
}
);
background = {
anchors = (
{
name = bottom;
position = "{453, 0}";
},
{
name = top;
position = "{570, 691}";
}
);
paths = (
{
closed = 1;
nodes = (
"827 672 LINE",
"942 664 LINE",
"938 670 LINE",
"660 24 LINE",
"664 24 LINE",
"573 692 LINE",
"555 689 LINE",
"245 22 LINE",
"248 21 LINE",
"185 671 LINE",
"179 663 LINE",
"300 677 LINE",
"302 692 LINE",
"77 687 LINE",
"74 672 LINE",
"172 663 LINE",
"165 671 LINE",
"231 -2 LINE",
"253 -2 LINE",
"562 662 LINE",
"558 662 LINE",
"647 -2 LINE",
"667 -2 LINE",
"958 670 LINE",
"948 663 LINE",
"1047 677 LINE",
"1050 692 LINE",
"829 687 LINE"
);
}
);
};
layerId = "075BA79B-D813-4287-A9DD-CCAF2D535ED3";
paths = (
{
closed = 1;
nodes = (
"826 672 LINE",
"943 664 LINE",
"938 670 LINE",
"661 24 LINE",
"665 24 LINE",
"573 692 LINE",
"555 689 LINE",
"245 22 LINE",
"248 21 LINE",
"185 671 LINE",
"179 663 LINE",
"301 677 LINE",
"303 692 LINE",
"76 687 LINE",
"73 672 LINE",
"172 663 LINE",
"165 671 LINE",
"231 -2 LINE",
"253 -2 LINE",
"562 662 LINE",
"558 662 LINE",
"648 -2 LINE",
"669 -2 LINE",
"958 670 LINE",
"949 663 LINE",
"1048 677 LINE",
"1051 692 LINE",
"828 687 LINE"
);
}
);
width = 991;
},
{
anchors = (
{
name = bottom;
position = "{445, 0}";
},
{
name = top;
position = "{575, 710}";
}
);
background = {
anchors = (
{
name = bottom;
position = "{445, 0}";
},
{
name = top;
position = "{578, 710}";
}
);
paths = (
{
closed = 1;
nodes = (
"767 605 LINE",
"834 575 LINE",
"818 611 LINE",
"659 183 LINE",
"697 184 LINE",
"657 710 LINE",
"481 705 LINE",
"283 182 LINE",
"323 182 LINE",
"298 611 LINE",
"274 575 LINE",
"352 610 LINE",
"367 710 LINE",
"82 705 LINE",
"66 605 LINE",
"117 580 LINE",
"100 611 LINE",
"169 0 LINE",
"351 0 LINE",
"539 465 LINE",
"518 466 LINE",
"547 0 LINE",
"732 0 LINE",
"999 629 LINE",
"947 577 LINE",
"1032 610 LINE",
"1047 710 LINE",
"782 705 LINE"
);
}
);
};
layerId = "927AED37-E9E6-4F96-A08E-421C3785EFC6";
paths = (
{
closed = 1;
nodes = (
"766 605 LINE",
"834 575 LINE",
"820 611 LINE",
"663 183 LINE",
"704 184 LINE",
"662 710 LINE",
"481 705 LINE",
"277 182 LINE",
"317 182 LINE",
"303 611 LINE",
"274 575 LINE",
"346 610 LINE",
"361 710 LINE",
"75 705 LINE",
"60 605 LINE",
"112 580 LINE",
"102 611 LINE",
"162 0 LINE",
"344 0 LINE",
"538 465 LINE",
"498 466 LINE",
"550 0 LINE",
"735 0 LINE",
"1000 629 LINE",
"948 577 LINE",
"1036 610 LINE",
"1051 710 LINE",
"782 705 LINE"
);
}
);
width = 988;
}
);
leftKerningGroup = V;
rightKerningGroup = V;
unicode = 0057;
},
{
glyphname = X;
layers = (
{
background = {
paths = (
{
closed = 1;
nodes = (
"352 368 LINE",
"350 356 LINE",
"597 670 LINE",
"586 663 LINE",
"686 677 LINE",
"688 692 LINE",
"475 687 LINE",
"473 672 LINE",
"580 663 LINE",
"578 670 LINE",
"343 371 LINE",
"350 371 LINE",
"213 670 LINE",
"209 663 LINE",
"319 677 LINE",
"321 692 LINE",
"108 687 LINE",
"106 672 LINE",
"202 663 LINE",
"192 670 LINE",
"339 352 LINE",
"340 364 LINE",
"75 21 LINE",
"87 28 LINE",
"-12 15 LINE",
"-15 0 LINE",
"202 0 LINE",
"205 15 LINE",
"92 28 LINE",
"94 21 LINE",
"348 348 LINE",
"340 348 LINE",
"490 21 LINE",
"494 28 LINE",
"378 15 LINE",
"376 0 LINE",
"593 0 LINE",
"595 15 LINE",
"501 28 LINE",
"511 21 LINE"
);
}
);
};
layerId = "075BA79B-D813-4287-A9DD-CCAF2D535ED3";
paths = (
{
closed = 1;
nodes = (
"352 367 LINE",
"351 355 LINE",
"597 670 LINE",
"585 663 LINE",
"683 677 LINE",
"685 692 LINE",
"475 687 LINE",
"473 672 LINE",
"580 663 LINE",
"577 670 LINE",
"342 370 LINE",
"351 370 LINE",
"213 670 LINE",
"209 663 LINE",
"319 677 LINE",
"321 692 LINE",
"108 687 LINE",
"106 672 LINE",
"201 663 LINE",
"192 670 LINE",
"339 353 LINE",
"339 365 LINE",
"74 21 LINE",
"87 28 LINE",
"-12 15 LINE",
"-15 0 LINE",
"202 0 LINE",
"205 15 LINE",
"93 28 LINE",
"95 21 LINE",
"348 349 LINE",
"340 349 LINE",
"490 21 LINE",
"494 28 LINE",
"378 15 LINE",
"376 0 LINE",
"593 0 LINE",
"595 15 LINE",
"501 28 LINE",
"511 21 LINE"
);
}
);
width = 659;
},
{
layerId = "927AED37-E9E6-4F96-A08E-421C3785EFC6";
paths = (
{
closed = 1;
nodes = (
"467 387 LINE",
"462 340 LINE",
"716 610 LINE",
"659 572 LINE",
"735 610 LINE",
"750 710 LINE",
"489 705 LINE",
"474 605 LINE",
"535 573 LINE",
"530 604 LINE",
"394 455 LINE",
"429 448 LINE",
"333 604 LINE",
"323 577 LINE",
"387 610 LINE",
"402 710 LINE",
"96 705 LINE",
"80 605 LINE",
"139 581 LINE",
"105 610 LINE",
"273 341 LINE",
"277 373 LINE",
"7 89 LINE",
"68 134 LINE",
"-8 100 LINE",
"-23 0 LINE",
"236 0 LINE",
"251 100 LINE",
"189 135 LINE",
"191 92 LINE",
"362 275 LINE",
"314 275 LINE",
"421 100 LINE",
"422 133 LINE",
"358 100 LINE",
"343 0 LINE",
"651 0 LINE",
"666 100 LINE",
"600 133 LINE",
"651 91 LINE"
);
}
);
width = 711;
}
);
leftKerningGroup = X;
rightKerningGroup = X;
unicode = 0058;
},
{
glyphname = Y;
layers = (
{
anchors = (
{
name = bottom;
position = "{263, 0}";
},
{
name = top;
position = "{373, 692}";
}
);
background = {
anchors = (
{
name = bottom;
position = "{263, 0}";
},
{
name = top;
position = "{373, 692}";
},
{
name = topleft;
position = "{80, 692}";
}
);
paths = (
{
closed = 1;
nodes = (
"369 0 LINE",
"371 15 LINE",
"271 29 LINE",
"276 21 LINE",
"315 268 LINE",
"309 251 LINE",
"582 670 LINE",
"571 663 LINE",
"671 677 LINE",
"673 692 LINE",
"450 687 LINE",
"448 672 LINE",
"565 664 LINE",
"562 670 LINE",
"305 275 LINE",
"311 275 LINE",
"179 670 LINE",
"174 663 LINE",
"297 677 LINE",
"299 692 LINE",
"73 687 LINE",
"70 672 LINE",
"168 663 LINE",
"159 670 LINE",
"297 251 LINE",
"296 268 LINE",
"257 21 LINE",
"265 29 LINE",
"160 15 LINE",
"158 0 LINE"
);
}
);
};
layerId = "075BA79B-D813-4287-A9DD-CCAF2D535ED3";
paths = (
{
closed = 1;
nodes = (
"369 0 LINE",
"371 15 LINE",
"271 29 LINE",
"276 21 LINE",
"314 268 LINE",
"309 251 LINE",
"582 670 LINE",
"571 663 LINE",
"671 677 LINE",
"673 692 LINE",
"450 687 LINE",
"448 672 LINE",
"565 664 LINE",
"562 670 LINE",
"304 275 LINE",
"310 275 LINE",
"179 670 LINE",
"174 663 LINE",
"297 677 LINE",
"299 692 LINE",
"73 687 LINE",
"70 672 LINE",
"168 663 LINE",
"159 670 LINE",
"298 251 LINE",
"296 268 LINE",
"257 21 LINE",
"265 29 LINE",
"160 15 LINE",
"158 0 LINE"
);
}
);
width = 610;
},
{
anchors = (
{
name = bottom;
position = "{286, 0}";
},
{
name = top;
position = "{411, 710}";
}
);
background = {
paths = (
{
closed = 1;
nodes = (
"555 710 LINE",
"242 705 LINE",
"226 605 LINE",
"300 571 LINE",
"281 600 LINE",
"202 105 LINE",
"226 131 LINE",
"146 100 LINE",
"130 0 LINE",
"442 0 LINE",
"458 100 LINE",
"389 132 LINE",
"399 105 LINE",
"478 600 LINE",
"456 572 LINE",
"539 610 LINE"
);
}
);
};
layerId = "927AED37-E9E6-4F96-A08E-421C3785EFC6";
paths = (
{
closed = 1;
nodes = (
"447 0 LINE",
"463 100 LINE",
"389 132 LINE",
"399 105 LINE",
"427 281 LINE",
"403 216 LINE",
"671 609 LINE",
"634 584 LINE",
"697 610 LINE",
"712 710 LINE",
"458 705 LINE",
"443 605 LINE",
"508 571 LINE",
"497 605 LINE",
"334 348 LINE",
"373 348 LINE",
"289 614 LINE",
"275 580 LINE",
"348 610 LINE",
"364 710 LINE",
"74 705 LINE",
"60 605 LINE",
"118 577 LINE",
"93 603 LINE",
"241 216 LINE",
"230 281 LINE",
"202 105 LINE",
"226 131 LINE",
"141 100 LINE",
"126 0 LINE"
);
}
);
width = 649;
}
);
leftKerningGroup = Y;
rightKerningGroup = Y;
unicode = 0059;
},
{
glyphname = Z;
layers = (
{
anchors = (
{
name = bottom;
position = "{243, 0}";
},
{
name = top;
position = "{358, 692}";
}
);
background = {
anchors = (
{
name = bottom;
position = "{243, 0}";
},
{
name = top;
position = "{357, 692}";
}
);
paths = (
{
closed = 1;
nodes = (
"466 0 LINE",
"492 137 LINE",
"477 137 LINE",
"439 13 LINE",
"452 20 LINE",
"38 20 LINE",
"40 14 LINE",
"574 676 LINE",
"577 692 LINE",
"148 692 LINE",
"126 556 LINE",
"140 556 LINE",
"175 679 LINE",
"166 672 LINE",
"554 672 LINE",
"552 678 LINE",
"16 16 LINE",
"14 0 LINE"
);
}
);
};
layerId = "075BA79B-D813-4287-A9DD-CCAF2D535ED3";
paths = (
{
closed = 1;
nodes = (
"469 0 LINE",
"495 137 LINE",
"480 137 LINE",
"441 13 LINE",
"455 20 LINE",
"38 20 LINE",
"41 14 LINE",
"572 676 LINE",
"572 692 LINE",
"144 692 LINE",
"122 556 LINE",
"136 556 LINE",
"170 679 LINE",
"160 672 LINE",
"552 672 LINE",
"550 678 LINE",
"16 16 LINE",
"16 0 LINE"
);
}
);
width = 576;
},
{
anchors = (
{
name = bottom;
position = "{269, 0}";
},
{
name = top;
position = "{371, 710}";
}
);
background = {
anchors = (
{
name = bottom;
position = "{260, 0}";
},
{
name = top;
position = "{373, 710}";
}
);
paths = (
{
closed = 1;
nodes = (
"525 0 LINE",
"560 221 LINE",
"443 221 LINE",
"408 120 LINE",
"450 147 LINE",
"216 147 LINE",
"217 117 LINE",
"614 576 LINE",
"635 710 LINE",
"118 710 LINE",
"83 489 LINE",
"199 489 LINE",
"239 583 LINE",
"193 563 LINE",
"419 563 LINE",
"402 585 LINE",
"6 135 LINE",
"-15 0 LINE"
);
}
);
};
layerId = "927AED37-E9E6-4F96-A08E-421C3785EFC6";
paths = (
{
closed = 1;
nodes = (
"541 0 LINE",
"576 221 LINE",
"458 221 LINE",
"423 120 LINE",
"466 147 LINE",
"216 147 LINE",
"219 117 LINE",
"624 569 LINE",
"641 710 LINE",
"111 710 LINE",
"76 489 LINE",
"193 489 LINE",
"234 583 LINE",
"186 563 LINE",
"426 563 LINE",
"408 578 LINE",
"4 135 LINE",
"-13 0 LINE"
);
}
);
width = 619;
}
);
leftKerningGroup = Z;
rightKerningGroup = Z;
unicode = 005A;
},
{
glyphname = Q.alt;
layers = (
{
anchors = (
{
name = bottom;
position = "{328, 0}";
},
{
name = top;
position = "{437, 692}";
}
);
background = {
paths = (
{
closed = 1;
nodes = (
"621 -156 OFFCURVE",
"667 -130 OFFCURVE",
"715 -107 CURVE",
"678 -132 LINE",
"662 -100 LINE",
"707 -91 LINE",
"662 -113 OFFCURVE",
"617 -135 OFFCURVE",
"589 -135 CURVE SMOOTH",
"542 -135 OFFCURVE",
"472 -77 OFFCURVE",
"347 -2 CURVE",
"343 -5 LINE",
"546 8 OFFCURVE",
"678 224 OFFCURVE",
"678 430 CURVE SMOOTH",
"678 616 OFFCURVE",
"571 698 OFFCURVE",
"441 698 CURVE SMOOTH",
"230 698 OFFCURVE",
"86 483 OFFCURVE",
"86 263 CURVE SMOOTH",
"86 73 OFFCURVE",
"194 -6 OFFCURVE",
"321 -6 CURVE",
"311 -2 LINE",
"477 -106 OFFCURVE",
"536 -156 OFFCURVE",
"584 -156 CURVE SMOOTH"
);
},
{
closed = 1;
nodes = (
"203 14 OFFCURVE",
"107 93 OFFCURVE",
"107 266 CURVE SMOOTH",
"107 470 OFFCURVE",
"241 678 OFFCURVE",
"438 678 CURVE SMOOTH",
"559 678 OFFCURVE",
"657 599 OFFCURVE",
"657 426 CURVE SMOOTH",
"657 222 OFFCURVE",
"521 14 OFFCURVE",
"324 14 CURVE SMOOTH"
);
}
);
};
layerId = "075BA79B-D813-4287-A9DD-CCAF2D535ED3";
paths = (
{
closed = 1;
nodes = (
"614 -155 OFFCURVE",
"642 -147 OFFCURVE",
"678 -128 CURVE",
"668 -139 LINE",
"654 -109 LINE",
"672 -108 LINE",
"638 -126 OFFCURVE",
"612 -134 OFFCURVE",
"587 -134 CURVE SMOOTH",
"525 -134 OFFCURVE",
"474 -84 OFFCURVE",
"347 -2 CURVE",
"343 -5 LINE",
"546 8 OFFCURVE",
"678 224 OFFCURVE",
"678 430 CURVE SMOOTH",
"678 616 OFFCURVE",
"571 698 OFFCURVE",
"441 698 CURVE SMOOTH",
"230 698 OFFCURVE",
"86 483 OFFCURVE",
"86 263 CURVE SMOOTH",
"86 73 OFFCURVE",
"194 -6 OFFCURVE",
"321 -6 CURVE",
"311 -2 LINE",
"458 -98 OFFCURVE",
"518 -155 OFFCURVE",
"587 -155 CURVE SMOOTH"
);
},
{
closed = 1;
nodes = (
"203 14 OFFCURVE",
"107 93 OFFCURVE",
"107 266 CURVE SMOOTH",
"107 470 OFFCURVE",
"241 678 OFFCURVE",
"438 678 CURVE SMOOTH",
"559 678 OFFCURVE",
"657 599 OFFCURVE",
"657 426 CURVE SMOOTH",
"657 222 OFFCURVE",
"521 14 OFFCURVE",
"324 14 CURVE SMOOTH"
);
}
);
width = 738;
},
{
anchors = (
{
name = bottom;
position = "{306, 0}";
},
{
name = top;
position = "{419, 710}";
}
);
background = {
anchors = (
{
name = bottom;
position = "{306, 0}";
},
{
name = top;
position = "{419, 710}";
}
);
components = (
{
name = Q;
}
);
};
layerId = "927AED37-E9E6-4F96-A08E-421C3785EFC6";
paths = (
{
closed = 1;
nodes = (
"603 -213 OFFCURVE",
"636 -203 OFFCURVE",
"671 -180 CURVE",
"656 -228 LINE",
"613 -27 LINE",
"683 -17 LINE",
"640 -41 OFFCURVE",
"609 -53 OFFCURVE",
"579 -53 CURVE SMOOTH",
"534 -53 OFFCURVE",
"492 -26 OFFCURVE",
"414 28 CURVE",
"421 -2 LINE",
"627 53 OFFCURVE",
"700 267 OFFCURVE",
"700 433 CURVE SMOOTH",
"700 616 OFFCURVE",
"612 725 OFFCURVE",
"423 725 CURVE SMOOTH",
"134 725 OFFCURVE",
"36 472 OFFCURVE",
"36 278 CURVE SMOOTH",
"36 106 OFFCURVE",
"113 -3 OFFCURVE",
"286 -14 CURVE",
"251 5 LINE",
"382 -115 OFFCURVE",
"475 -213 OFFCURVE",
"572 -213 CURVE SMOOTH"
);
},
{
closed = 1;
nodes = (
"272 138 OFFCURVE",
"241 174 OFFCURVE",
"241 271 CURVE SMOOTH",
"241 361 OFFCURVE",
"268 570 OFFCURVE",
"407 570 CURVE SMOOTH",
"464 570 OFFCURVE",
"495 535 OFFCURVE",
"495 440 CURVE SMOOTH",
"495 349 OFFCURVE",
"467 138 OFFCURVE",
"329 138 CURVE SMOOTH"
);
}
);
width = 710;
},
{
associatedMasterId = "075BA79B-D813-4287-A9DD-CCAF2D535ED3";
background = {
paths = (
{
closed = 1;
nodes = (
"708 -94 LINE",
"665 -116 OFFCURVE",
"623 -135 OFFCURVE",
"596 -135 CURVE SMOOTH",
"549 -135 OFFCURVE",
"478 -77 OFFCURVE",
"354 -2 CURVE",
"355 -5 LINE",
"511 8 OFFCURVE",
"654 135 OFFCURVE",
"689 356 CURVE SMOOTH",
"726 591 OFFCURVE",
"604 698 OFFCURVE",
"453 698 CURVE SMOOTH",
"296 698 OFFCURVE",
"137 581 OFFCURVE",
"99 341 CURVE SMOOTH",
"62 109 OFFCURVE",
"174 -4 OFFCURVE",
"326 -6 CURVE",
"316 -2 LINE",
"482 -106 OFFCURVE",
"541 -156 OFFCURVE",
"588 -156 CURVE SMOOTH",
"621 -156 OFFCURVE",
"667 -132 OFFCURVE",
"715 -109 CURVE"
);
},
{
closed = 1;
nodes = (
"156 568 OFFCURVE",
"302 678 OFFCURVE",
"449 678 CURVE SMOOTH",
"594 678 OFFCURVE",
"702 570 OFFCURVE",
"667 353 CURVE SMOOTH",
"632 129 OFFCURVE",
"482 14 OFFCURVE",
"334 14 CURVE SMOOTH",
"191 14 OFFCURVE",
"85 121 OFFCURVE",
"120 342 CURVE SMOOTH"
);
}
);
};
layerId = "281D70D7-E0AD-49FD-9C13-A89238B62ECC";
name = "Jul 3 17, 18:10";
paths = (
{
closed = 1;
nodes = (
"622 -156 OFFCURVE",
"668 -132 OFFCURVE",
"715 -109 CURVE",
"707 -94 LINE",
"664 -116 OFFCURVE",
"622 -135 OFFCURVE",
"595 -135 CURVE SMOOTH",
"548 -135 OFFCURVE",
"478 -77 OFFCURVE",
"353 -2 CURVE",
"356 -5 LINE",
"511 8 OFFCURVE",
"654 134 OFFCURVE",
"689 355 CURVE SMOOTH",
"726 590 OFFCURVE",
"603 698 OFFCURVE",
"452 698 CURVE SMOOTH",
"295 698 OFFCURVE",
"137 582 OFFCURVE",
"99 342 CURVE SMOOTH",
"62 110 OFFCURVE",
"174 -4 OFFCURVE",
"327 -6 CURVE",
"317 -2 LINE",
"483 -106 OFFCURVE",
"542 -156 OFFCURVE",
"590 -156 CURVE SMOOTH"
);
},
{
closed = 1;
nodes = (
"191 14 OFFCURVE",
"85 120 OFFCURVE",
"120 341 CURVE SMOOTH",
"156 567 OFFCURVE",
"303 678 OFFCURVE",
"450 678 CURVE SMOOTH",
"594 678 OFFCURVE",
"702 571 OFFCURVE",
"667 354 CURVE SMOOTH",
"632 130 OFFCURVE",
"481 14 OFFCURVE",
"333 14 CURVE SMOOTH"
);
}
);
width = 761;
}
);
leftKerningGroup = O;
leftMetricsKey = O;
rightKerningGroup = O;
},
{
export = 0;
glyphname = A.ogonekAccent;
layers = (
{
anchors = (
{
name = bottom;
position = "{288, 0}";
},
{
name = ogonek;
position = "{532, 0}";
},
{
name = top;
position = "{406, 692}";
}
);
background = {
anchors = (
{
name = bottom;
position = "{292, 0}";
},
{
name = ogonek;
position = "{533, 0}";
},
{
name = top;
position = "{406, 692}";
},
{
name = topleft;
position = "{339, 692}";
}
);
paths = (
{
closed = 1;
nodes = (
"415 693 LINE",
"396 691 LINE",
"52 22 LINE",
"61 29 LINE",
"-36 15 LINE",
"-39 0 LINE",
"181 0 LINE",
"184 15 LINE",
"69 29 LINE",
"72 22 LINE",
"170 213 LINE",
"160 206 LINE",
"486 206 LINE",
"479 213 LINE",
"512 22 LINE",
"517 29 LINE",
"397 15 LINE",
"394 0 LINE",
"619 0 LINE",
"621 15 LINE",
"526 29 LINE",
"533 22 LINE"
);
},
{
closed = 1;
nodes = (
"404 672 LINE",
"400 672 LINE",
"478 219 LINE",
"483 225 LINE",
"169 225 LINE",
"173 219 LINE"
);
}
);
};
guideLines = (
{
angle = 90;
position = "{1209, -200}";
},
{
angle = 90;
position = "{1188, -200}";
}
);
layerId = "075BA79B-D813-4287-A9DD-CCAF2D535ED3";
paths = (
{
closed = 1;
nodes = (
"415 693 LINE",
"395 691 LINE",
"52 22 LINE",
"61 29 LINE",
"-32 15 LINE",
"-35 0 LINE",
"181 0 LINE",
"184 15 LINE",
"69 29 LINE",
"73 22 LINE",
"170 213 LINE",
"160 206 LINE",
"486 206 LINE",
"479 213 LINE",
"516 0 LINE",
"614 0 LINE",
"616 15 LINE",
"526 29 LINE",
"533 22 LINE"
);
},
{
closed = 1;
nodes = (
"404 672 LINE",
"400 672 LINE",
"478 219 LINE",
"483 225 LINE",
"169 225 LINE",
"173 219 LINE"
);
}
);
width = 662;
},
{
anchors = (
{
name = bottom;
position = "{297, 0}";
},
{
name = ogonek;
position = "{552, 0}";
},
{
name = top;
position = "{426, 710}";
}
);
background = {
paths = (
{
closed = 1;
nodes = (
"525 716 LINE",
"359 702 LINE",
"429 102 LINE",
"630 139 LINE"
);
}
);
};
layerId = "927AED37-E9E6-4F96-A08E-421C3785EFC6";
paths = (
{
closed = 1;
nodes = (
"525 713 LINE",
"320 708 LINE",
"5 94 LINE",
"59 133 LINE",
"-21 100 LINE",
"-37 0 LINE",
"230 0 LINE",
"246 100 LINE",
"194 127 LINE",
"195 105 LINE",
"239 203 LINE",
"213 180 LINE",
"428 180 LINE",
"417 205 LINE",
"441 0 LINE",
"649 0 LINE",
"665 100 LINE",
"598 135 LINE",
"639 89 LINE"
);
},
{
closed = 1;
nodes = (
"420 604 LINE",
"371 605 LINE",
"408 286 LINE",
"421 320 LINE",
"272 320 LINE",
"279 291 LINE"
);
}
);
width = 699;
}
);
leftKerningGroup = A;
rightKerningGroup = A;
},
{
color = 3;
glyphname = a;
layers = (
{
anchors = (
{
name = bottom;
position = "{256, 0}";
},
{
name = ogonek;
position = "{424, 0}";
},
{
name = top;
position = "{333, 522}";
}
);
background = {
anchors = (
{
name = bottom;
position = "{256, 0}";
},
{
name = ogonek;
position = "{504, 2}";
},
{
name = top;
position = "{333, 522}";
}
);
components = (
{
name = curve;
transform = "{1, 0, 0, 1, 3, 0}";
}
);
};
guideLines = (
{
angle = -99;
position = "{561, 362}";
},
{
angle = -99;
position = "{454, 231}";
},
{
angle = -99;
position = "{434, 231}";
}
);
layerId = "075BA79B-D813-4287-A9DD-CCAF2D535ED3";
paths = (
{
closed = 1;
nodes = (
"270 -6 OFFCURVE",
"379 60 OFFCURVE",
"438 221 CURVE",
"432 220 LINE",
"397 -2 LINE",
"504 2 LINE",
"506 17 LINE",
"413 29 LINE",
"420 19 LINE",
"500 522 LINE",
"486 522 LINE",
"473 482 LINE",
"481 485 LINE",
"427 517 OFFCURVE",
"380 528 OFFCURVE",
"337 528 CURVE SMOOTH",
"176 528 OFFCURVE",
"58 372 OFFCURVE",
"58 185 CURVE SMOOTH",
"58 52 OFFCURVE",
"118 -6 OFFCURVE",
"192 -6 CURVE SMOOTH"
);
},
{
closed = 1;
nodes = (
"130 13 OFFCURVE",
"79 64 OFFCURVE",
"79 186 CURVE SMOOTH",
"79 363 OFFCURVE",
"187 509 OFFCURVE",
"336 509 CURVE SMOOTH",
"381 509 OFFCURVE",
"428 496 OFFCURVE",
"478 467 CURVE",
"473 479 LINE",
"450 335 LINE SMOOTH",
"414 111 OFFCURVE",
"281 13 OFFCURVE",
"193 13 CURVE SMOOTH"
);
}
);
width = 579;
},
{
anchors = (
{
name = bottom;
position = "{259, 0}";
},
{
name = ogonek;
position = "{461, 0}";
},
{
name = top;
position = "{324, 540}";
}
);
background = {
components = (
{
name = curve;
transform = "{1, 0, 0, 1, -5, 0}";
}
);
};
guideLines = (
{
angle = -99;
position = "{368, 472}";
},
{
angle = -99;
position = "{557, 472}";
},
{
angle = -99;
position = "{385, 472}";
},
{
angle = -99;
position = "{624, 472}";
}
);
layerId = "927AED37-E9E6-4F96-A08E-421C3785EFC6";
paths = (
{
closed = 1;
nodes = (
"262 -15 OFFCURVE",
"378 82 OFFCURVE",
"400 253 CURVE",
"343 145 LINE",
"315 -7 LINE",
"551 0 LINE",
"568 103 LINE",
"424 160 LINE",
"491 33 LINE",
"571 540 LINE",
"468 539 LINE",
"435 507 LINE",
"522 487 LINE",
"459 535 OFFCURVE",
"392 556 OFFCURVE",
"328 556 CURVE SMOOTH",
"148 556 OFFCURVE",
"10 393 OFFCURVE",
"10 191 CURVE SMOOTH",
"10 46 OFFCURVE",
"81 -15 OFFCURVE",
"162 -15 CURVE SMOOTH"
);
},
{
closed = 1;
nodes = (
"219 140 OFFCURVE",
"206 164 OFFCURVE",
"206 214 CURVE SMOOTH",
"206 311 OFFCURVE",
"255 411 OFFCURVE",
"324 411 CURVE SMOOTH",
"346 411 OFFCURVE",
"369 401 OFFCURVE",
"394 378 CURVE",
"363 439 LINE",
"341 303 LINE SMOOTH",
"325 205 OFFCURVE",
"287 140 OFFCURVE",
"244 140 CURVE SMOOTH"
);
}
);
width = 597;
},
{
anchors = (
{
name = bottom;
position = "{170, 0}";
},
{
name = ogonek;
position = "{401, 2}";
},
{
name = top;
position = "{245, 522}";
}
);
associatedMasterId = "075BA79B-D813-4287-A9DD-CCAF2D535ED3";
background = {
paths = (
{
closed = 1;
nodes = (
"226 -6 OFFCURVE",
"297 25 OFFCURVE",
"363 88 CURVE",
"360 91 LINE",
"350 -2 LINE",
"451 2 LINE",
"454 17 LINE",
"362 27 LINE",
"368 19 LINE",
"486 765 LINE",
"468 731 LINE",
"462 739 LINE",
"423 490 LINE",
"428 495 LINE",
"381 517 OFFCURVE",
"333 528 OFFCURVE",
"290 528 CURVE SMOOTH",
"157 528 OFFCURVE",
"47 429 OFFCURVE",
"20 252 CURVE SMOOTH",
"-6 83 OFFCURVE",
"66 -6 OFFCURVE",
"167 -6 CURVE SMOOTH"
);
},
{
closed = 1;
nodes = (
"79 13 OFFCURVE",
"15 93 OFFCURVE",
"40 253 CURVE SMOOTH",
"66 419 OFFCURVE",
"165 509 OFFCURVE",
"286 509 CURVE SMOOTH",
"330 509 OFFCURVE",
"377 496 OFFCURVE",
"425 470 CURVE",
"421 479 LINE",
"361 99 LINE",
"366 110 LINE",
"301 45 OFFCURVE",
"231 13 OFFCURVE",
"172 13 CURVE SMOOTH"
);
}
);
};
layerId = "5CE4FCA8-A45D-4ABE-ADF6-EB631E317596";
name = "Jul 4 17, 12:20";
paths = (
{
closed = 1;
nodes = (
"226 -6 OFFCURVE",
"297 25 OFFCURVE",
"363 88 CURVE",
"360 91 LINE",
"350 -2 LINE",
"451 2 LINE",
"454 17 LINE",
"362 27 LINE",
"368 19 LINE",
"448 522 LINE",
"428 522 LINE",
"423 490 LINE",
"428 495 LINE",
"381 517 OFFCURVE",
"333 528 OFFCURVE",
"290 528 CURVE SMOOTH",
"157 528 OFFCURVE",
"47 429 OFFCURVE",
"20 252 CURVE SMOOTH",
"-6 83 OFFCURVE",
"66 -6 OFFCURVE",
"167 -6 CURVE SMOOTH"
);
},
{
closed = 1;
nodes = (
"79 13 OFFCURVE",
"15 93 OFFCURVE",
"40 253 CURVE SMOOTH",
"66 419 OFFCURVE",
"165 509 OFFCURVE",
"286 509 CURVE SMOOTH",
"330 509 OFFCURVE",
"377 496 OFFCURVE",
"425 470 CURVE",
"421 479 LINE",
"361 99 LINE",
"366 110 LINE",
"301 45 OFFCURVE",
"231 13 OFFCURVE",
"172 13 CURVE SMOOTH"
);
}
);
width = 492;
},
{
anchors = (
{
name = bottom;
position = "{214, 0}";
},
{
name = ogonek;
position = "{445, 2}";
},
{
name = top;
position = "{289, 522}";
}
);
associatedMasterId = "075BA79B-D813-4287-A9DD-CCAF2D535ED3";
background = {
paths = (
{
closed = 1;
nodes = (
"489 525 LINE",
"383 520 LINE",
"380 505 LINE",
"471 491 LINE",
"465 499 LINE",
"390 21 LINE",
"398 29 LINE",
"303 15 LINE",
"300 0 LINE",
"492 0 LINE",
"495 15 LINE",
"404 29 LINE",
"409 21 LINE"
);
}
);
};
layerId = "E00D2D72-8388-4395-9A11-ECE7C5E48E65";
name = "Jul 4 17, 15:23";
paths = (
{
closed = 1;
nodes = (
"400 162 OFFCURVE",
"283 13 OFFCURVE",
"190 13 CURVE SMOOTH",
"131 13 OFFCURVE",
"84 68 OFFCURVE",
"84 167 CURVE SMOOTH",
"84 326 OFFCURVE",
"168 509 OFFCURVE",
"326 509 CURVE SMOOTH",
"374 510 OFFCURVE",
"436 492 OFFCURVE",
"463 469 CURVE",
"471 484 LINE",
"450 502 OFFCURVE",
"393 528 OFFCURVE",
"328 528 CURVE SMOOTH",
"158 527 OFFCURVE",
"63 338 OFFCURVE",
"63 166 CURVE SMOOTH",
"63 55 OFFCURVE",
"117 -7 OFFCURVE",
"188 -6 CURVE SMOOTH",
"291 -5 OFFCURVE",
"413 151 OFFCURVE",
"458 362 CURVE",
"444 364 LINE"
);
},
{
closed = 1;
nodes = (
"386 -1 LINE",
"492 0 LINE",
"495 15 LINE",
"404 29 LINE",
"409 21 LINE",
"489 525 LINE",
"469 522 LINE",
"462 479 LINE"
);
}
);
width = 574;
},
{
anchors = (
{
name = bottom;
position = "{263, 0}";
},
{
name = ogonek;
position = "{553, 3}";
},
{
name = top;
position = "{328, 540}";
}
);
associatedMasterId = "927AED37-E9E6-4F96-A08E-421C3785EFC6";
background = {
paths = (
{
closed = 1;
nodes = (
"553 3 LINE",
"569 103 LINE",
"425 160 LINE",
"492 33 LINE",
"572 540 LINE",
"449 539 LINE",
"364 436 LINE",
"319 155 LINE",
"337 145 LINE",
"314 -3 LINE"
);
},
{
closed = 1;
nodes = (
"246 -15 OFFCURVE",
"358 73 OFFCURVE",
"380 233 CURVE",
"340 265 LINE",
"318 178 OFFCURVE",
"267 135 OFFCURVE",
"235 135 CURVE SMOOTH",
"209 135 OFFCURVE",
"196 164 OFFCURVE",
"196 220 CURVE SMOOTH",
"196 322 OFFCURVE",
"238 416 OFFCURVE",
"325 416 CURVE SMOOTH",
"347 416 OFFCURVE",
"373 410 OFFCURVE",
"401 397 CURVE",
"533 514 LINE",
"460 543 OFFCURVE",
"393 556 OFFCURVE",
"333 556 CURVE SMOOTH",
"130 556 OFFCURVE",
"0 402 OFFCURVE",
"0 195 CURVE SMOOTH",
"0 42 OFFCURVE",
"71 -15 OFFCURVE",
"149 -15 CURVE SMOOTH"
);
}
);
};
guideLines = (
{
angle = -99;
position = "{372, 472}";
},
{
angle = -99;
position = "{561, 472}";
},
{
angle = -99;
position = "{389, 472}";
},
{
angle = -99;
position = "{628, 472}";
}
);
layerId = "EFD76ECB-9F84-4ADA-93E5-9D17885DB6C6";
name = "Feb 3 18, 19:52";
paths = (
{
closed = 1;
nodes = (
"352 -54 OFFCURVE",
"7 -114 OFFCURVE",
"7 173 CURVE SMOOTH",
"7 485 OFFCURVE",
"291 660 OFFCURVE",
"533 494 CURVE",
"398 378 LINE",
"303 472 OFFCURVE",
"203 351 OFFCURVE",
"203 205 CURVE SMOOTH",
"203 82 OFFCURVE",
"320 147 OFFCURVE",
"345 303 CURVE SMOOTH",
"367 439 LINE",
"472 539 LINE",
"575 540 LINE",
"495 33 LINE",
"428 160 LINE",
"572 103 LINE",
"556 3 LINE",
"321 -3 LINE",
"344 145 LINE",
"400 253 LINE"
);
}
);
width = 603;
},
{
anchors = (
{
name = bottom;
position = "{263, 0}";
},
{
name = ogonek;
position = "{553, 3}";
},
{
name = top;
position = "{328, 540}";
}
);
associatedMasterId = "927AED37-E9E6-4F96-A08E-421C3785EFC6";
background = {
paths = (
{
closed = 1;
nodes = (
"352 -54 OFFCURVE",
"17 -114 OFFCURVE",
"17 173 CURVE SMOOTH",
"17 485 OFFCURVE",
"291 660 OFFCURVE",
"533 494 CURVE",
"398 378 LINE",
"303 472 OFFCURVE",
"213 351 OFFCURVE",
"213 205 CURVE SMOOTH",
"213 82 OFFCURVE",
"320 147 OFFCURVE",
"345 303 CURVE SMOOTH",
"367 439 LINE",
"472 539 LINE",
"575 540 LINE",
"495 33 LINE",
"428 160 LINE",
"572 103 LINE",
"556 3 LINE",
"321 -3 LINE",
"344 145 LINE",
"400 253 LINE"
);
}
);
};
guideLines = (
{
angle = -99;
position = "{372, 472}";
},
{
angle = -99;
position = "{561, 472}";
},
{
angle = -99;
position = "{389, 472}";
},
{
angle = -99;
position = "{628, 472}";
}
);
layerId = "5BE73E89-7200-43E8-8AB3-0FC5F279A6B0";
name = "Feb 3 18, 19:55";
paths = (
{
closed = 1;
nodes = (
"357 -57 OFFCURVE",
"17 -120 OFFCURVE",
"17 184 CURVE SMOOTH",
"17 485 OFFCURVE",
"294 659 OFFCURVE",
"526 487 CURVE",
"398 378 LINE",
"293 475 OFFCURVE",
"213 340 OFFCURVE",
"213 215 CURVE SMOOTH",
"213 82 OFFCURVE",
"320 147 OFFCURVE",
"345 303 CURVE SMOOTH",
"367 439 LINE",
"472 539 LINE",
"575 540 LINE",
"495 33 LINE",
"428 160 LINE",
"572 103 LINE",
"556 3 LINE",
"321 -3 LINE",
"344 145 LINE",
"395 253 LINE"
);
}
);
width = 603;
},
{
anchors = (
{
name = bottom;
position = "{260, 0}";
},
{
name = ogonek;
position = "{550, 3}";
},
{
name = top;
position = "{325, 540}";
}
);
associatedMasterId = "927AED37-E9E6-4F96-A08E-421C3785EFC6";
background = {
paths = (
{
closed = 1;
nodes = (
"353 -57 OFFCURVE",
"11 -126 OFFCURVE",
"11 192 CURVE SMOOTH",
"11 480 OFFCURVE",
"292 660 OFFCURVE",
"523 487 CURVE",
"395 378 LINE",
"291 475 OFFCURVE",
"207 339 OFFCURVE",
"207 218 CURVE SMOOTH",
"207 80 OFFCURVE",
"317 147 OFFCURVE",
"342 303 CURVE SMOOTH",
"364 439 LINE",
"469 539 LINE",
"572 540 LINE",
"492 33 LINE",
"425 160 LINE",
"569 103 LINE",
"553 3 LINE",
"318 -3 LINE",
"341 145 LINE",
"392 253 LINE"
);
}
);
};
guideLines = (
{
angle = -99;
position = "{369, 472}";
},
{
angle = -99;
position = "{558, 472}";
},
{
angle = -99;
position = "{386, 472}";
},
{
angle = -99;
position = "{625, 472}";
}
);
layerId = "ACA578D5-00C9-4421-A04D-F7019F4AFEF2";
name = "Feb 7 18, 01:34";
paths = (
{
closed = 1;
nodes = (
"371 82 OFFCURVE",
"258 -16 OFFCURVE",
"161 -16 CURVE SMOOTH",
"82 -16 OFFCURVE",
"14 49 OFFCURVE",
"14 192 CURVE SMOOTH",
"14 402 OFFCURVE",
"162 555 OFFCURVE",
"332 555 CURVE SMOOTH",
"395 555 OFFCURVE",
"461 534 OFFCURVE",
"523 487 CURVE",
"395 378 LINE",
"370 401 OFFCURVE",
"347 411 OFFCURVE",
"325 411 CURVE SMOOTH",
"257 411 OFFCURVE",
"210 310 OFFCURVE",
"210 218 CURVE SMOOTH",
"210 166 OFFCURVE",
"225 143 OFFCURVE",
"245 143 CURVE SMOOTH",
"279 143 OFFCURVE",
"326 206 OFFCURVE",
"342 303 CURVE SMOOTH",
"364 439 LINE",
"469 539 LINE",
"572 540 LINE",
"492 33 LINE",
"425 160 LINE",
"569 103 LINE",
"553 3 LINE",
"318 -3 LINE",
"341 145 LINE",
"392 253 LINE"
);
}
);
width = 603;
}
);
leftKerningGroup = o;
rightKerningGroup = n;
unicode = 0061;
},
